<svg xmlns="http://www.w3.org/2000/svg" viewBox="0 0 840 325" fill="none">
  <path
    d="M711.707 69.6254C690.083 69.6458 669.716 75.0035 651.855 84.4422V32.7799C651.855 26.0125 646.344 20.5219 639.551 20.5219H595.975C589.177 20.5219 583.671 26.0125 583.671 32.7799V75.5296C583.671 84.0489 576.74 90.9542 568.189 90.9542H544.591C539.69 90.9542 535.476 94.4018 534.528 99.1926L505.378 246.37C505.378 246.37 505.373 246.401 505.368 246.411C505.029 248.025 503.543 249.215 501.8 249.108C499.975 248.99 498.606 247.381 498.606 245.563V197.384C498.606 197.384 498.606 197.338 498.606 197.313C498.606 197.287 498.606 197.267 498.606 197.241V12.258C498.606 5.49056 493.095 0 486.302 0H444.264C437.471 0 431.96 5.49056 431.96 12.258V85.2747C413.699 75.2998 392.737 69.6254 370.441 69.6254C314.346 69.6254 266.674 105.536 249.3 155.538C231.932 105.536 184.259 69.6254 128.159 69.6254C57.3818 69.6254 0 126.794 0 197.313C0 267.832 57.3818 325 128.164 325C128.759 325 129.349 324.985 129.938 324.98L129.918 325H274.615C279.101 325 281.357 319.596 278.189 316.43L232.818 271.034C239.734 261.304 245.317 250.574 249.305 239.097C266.679 289.094 314.346 325 370.441 325C392.742 325 413.71 319.32 431.976 309.34C432.335 318.049 439.532 325 448.365 325H537.675C549.426 325 559.54 316.721 561.817 305.229L583.697 194.754C583.681 195.602 583.671 196.455 583.671 197.313C583.671 267.832 641.053 325 711.836 325C782.618 325 840 267.832 840 197.313C840 126.916 782.367 69.5538 711.707 69.6254ZM184.28 222.472L170.351 208.534C162.025 200.204 148.491 200.188 140.15 208.503C131.845 216.777 131.815 230.179 140.079 238.489L154.31 252.806C146.374 256.524 137.515 258.603 128.17 258.603C94.1957 258.603 66.6506 231.16 66.6506 197.313C66.6506 163.465 94.1957 136.023 128.17 136.023C162.143 136.023 189.689 163.465 189.689 197.313C189.689 206.276 187.756 214.796 184.285 222.472H184.28ZM431.96 197.384C431.924 231.201 404.395 258.603 370.441 258.603C336.488 258.603 308.922 231.16 308.922 197.313C308.922 163.465 336.468 136.023 370.441 136.023C404.415 136.023 431.924 163.424 431.96 197.241V197.379V197.384ZM623.735 105.163C623.669 105.23 621.157 107.722 621.09 107.783C609.478 118.724 599.779 136.518 592.212 153.021C591.843 153.827 590.602 153.419 590.802 152.556L601.394 111.517C603.957 101.598 608.115 98.4214 615.851 97.2365C616.322 97.165 616.799 97.1343 617.276 97.1343H619.624C620.085 97.1343 620.547 97.1649 620.998 97.262C623.556 97.7881 625.155 99.5297 625.13 101.894C625.12 103.166 624.591 104.321 623.74 105.163H623.735ZM711.836 258.603C677.857 258.603 650.317 231.165 650.317 197.313C650.317 163.46 677.857 136.023 711.836 136.023C745.815 136.023 773.354 163.465 773.354 197.313C773.354 231.16 745.809 258.603 711.836 258.603Z"
    fill="url(#paint0_radial_2658_33400)" />
  <defs>
    <radialGradient id="paint0_radial_2658_33400" cx="0" cy="0" r="1" gradientUnits="userSpaceOnUse"
      gradientTransform="translate(99.6072 33.7906) rotate(16.4361) scale(1029.21 579.289)">
      <stop stop-color="#A3E635" />
      <stop offset="1" stop-color="#70EFA3" />
    </radialGradient>
  </defs>
</svg>