<svg width="100" height="100" viewBox="0 0 100 100" fill="none" xmlns="http://www.w3.org/2000/svg">
<rect width="100" height="100" rx="22" fill="black"/>
<path d="M74.0773 41.7794C72.2823 41.7811 70.5916 42.2259 69.109 43.0094V38.721C69.109 38.1592 68.6516 37.7035 68.0877 37.7035H64.4706C63.9063 37.7035 63.4493 38.1592 63.4493 38.721V42.2695C63.4493 42.9767 62.8739 43.5499 62.1641 43.5499H60.2053C59.7985 43.5499 59.4487 43.8361 59.37 44.2338L56.9503 56.4506C56.9503 56.4506 56.9499 56.4532 56.9495 56.454C56.9214 56.588 56.798 56.6868 56.6533 56.6779C56.5018 56.6681 56.3882 56.5346 56.3882 56.3837V52.3844C56.3882 52.3844 56.3882 52.3806 56.3882 52.3785C56.3882 52.3764 56.3882 52.3747 56.3882 52.3726V37.0175C56.3882 36.4558 55.9307 36 55.3669 36H51.8774C51.3135 36 50.8561 36.4558 50.8561 37.0175V43.0785C49.3403 42.2505 47.6002 41.7794 45.7495 41.7794C41.0932 41.7794 37.1361 44.7603 35.6939 48.9109C34.2521 44.7603 30.295 41.7794 25.6382 41.7794C19.7631 41.7794 15 46.5249 15 52.3785C15 58.2321 19.7631 62.9775 25.6386 62.9775C25.688 62.9775 25.737 62.9763 25.7859 62.9758L25.7842 62.9775H37.7952C38.1676 62.9775 38.3548 62.529 38.0918 62.2661L34.3257 58.498C34.8998 57.6903 35.3632 56.7996 35.6943 55.8469C37.1365 59.9971 41.0932 62.9775 45.7495 62.9775C47.6007 62.9775 49.3411 62.5061 50.8574 61.6777C50.8871 62.4005 51.4846 62.9775 52.2178 62.9775H59.6313C60.6066 62.9775 61.4462 62.2903 61.6352 61.3364L63.4514 52.1661C63.4501 52.2365 63.4493 52.3073 63.4493 52.3785C63.4493 58.2321 68.2124 62.9775 74.0879 62.9775C79.9634 62.9775 84.7266 58.2321 84.7266 52.3785C84.7266 46.535 79.9426 41.7735 74.0773 41.7794ZM30.2967 54.4669L29.1405 53.3099C28.4494 52.6185 27.3259 52.6172 26.6336 53.3074C25.9442 53.9942 25.9416 55.1067 26.6276 55.7965L27.8089 56.9848C27.1502 57.2935 26.4148 57.466 25.6391 57.466C22.819 57.466 20.5325 55.1881 20.5325 52.3785C20.5325 49.5689 22.819 47.291 25.6391 47.291C28.4592 47.291 30.7456 49.5689 30.7456 52.3785C30.7456 53.1225 30.5848 53.8297 30.2967 54.4669ZM50.8561 52.3844C50.8531 55.1915 48.5679 57.466 45.7495 57.466C42.9311 57.466 40.643 55.1881 40.643 52.3785C40.643 49.5689 42.9294 47.291 45.7495 47.291C48.5696 47.291 50.8531 49.5655 50.8561 52.3726V52.3844ZM66.7749 44.7294C66.7694 44.7349 66.5609 44.9418 66.5553 44.9469C65.5915 45.855 64.7863 47.3321 64.1582 48.7019C64.1276 48.7689 64.0246 48.735 64.0412 48.6633L64.9204 45.2568C65.1331 44.4334 65.4783 44.1697 66.1204 44.0714C66.1596 44.0654 66.1991 44.0629 66.2387 44.0629H66.4336C66.4719 44.0629 66.5102 44.0655 66.5477 44.0735C66.76 44.1172 66.8928 44.2617 66.8907 44.458C66.8898 44.5636 66.8455 44.6594 66.7749 44.7294ZM74.0879 57.466C71.2674 57.466 68.9814 55.1885 68.9814 52.3785C68.9814 49.5685 71.2674 47.291 74.0879 47.291C76.9084 47.291 79.1945 49.5689 79.1945 52.3785C79.1945 55.1881 76.908 57.466 74.0879 57.466Z" fill="url(#paint0_radial_2708_8040)"/>
<path d="M66.8326 43.1785C63.0826 42.2073 63.5218 47.6793 64.0474 50.4028C64.2665 48.2418 66.3067 46.1304 67.4538 44.9785C68.2746 44.1542 67.2743 43.2699 66.8326 43.1785Z" fill="black"/>
<defs>
<radialGradient id="paint0_radial_2708_8040" cx="0" cy="0" r="1" gradientUnits="userSpaceOnUse" gradientTransform="translate(23.2682 38.8049) rotate(16.4361) scale(85.4323 48.0855)">
<stop stop-color="#A3E635"/>
<stop offset="1" stop-color="#70EFA3"/>
</radialGradient>
</defs>
</svg>
