<svg xmlns="http://www.w3.org/2000/svg" viewBox="0 0 24 24" fill="currentColor">
  <path fill-rule="evenodd" clip-rule="evenodd"
    d="M10.8889 12.6667L10.8889 10.8889L2.44444 10.8889C2.19898 10.8889 2 11.0879 2 11.3334V12.6667C2 12.9121 2.19898 13.1111 2.44444 13.1111H10.4444C10.6899 13.1111 10.8889 12.9121 10.8889 12.6667ZM13.1111 21.5556C13.1111 21.8011 12.9121 22 12.6666 22H11.3333C11.0878 22 10.8889 21.8011 10.8889 21.5556L10.8889 14.6667C10.8889 14.4212 11.0878 14.2223 11.3333 14.2223H13.1111V21.5556ZM13.1111 11.3334V13.1111L13.1111 13.6667L13.1111 14.2223C13.1111 13.6101 13.6062 13.1135 14.2178 13.1111L21.5556 13.1111C21.801 13.1111 22 12.9121 22 12.6667V11.3334C22 11.0879 21.801 10.8889 21.5556 10.8889L13.5556 10.8889C13.3101 10.8889 13.1111 11.0879 13.1111 11.3334ZM13.1111 13.1111L13.1111 13.6667L13.1111 14.2223L11.9999 14.2222C12.6136 14.2222 13.1111 13.7248 13.1111 13.1111Z"
  />
  <path
    d="M11.3333 2C11.0878 2 10.8889 2.19899 10.8889 2.44445V9.77779C10.8889 10.3914 10.3914 10.8889 9.77777 10.8889H10.8889C10.8889 10.2765 11.3844 9.77979 11.9963 9.77778L12 9.77778L12.6666 9.77779C12.9121 9.77779 13.1111 9.5788 13.1111 9.33334V2.44444C13.1111 2.19898 12.9121 2 12.6666 2H11.3333Z"
  />
</svg>