<svg xmlns="http://www.w3.org/2000/svg" viewBox="0 0 24 24" fill="currentColor">
  <path
    d="M4.2002 7.59995C4.2002 7.37904 4.37928 7.19995 4.6002 7.19995H19.3002C19.5211 7.19995 19.7002 7.37904 19.7002 7.59995V8.79995C19.7002 9.02087 19.5211 9.19995 19.3002 9.19995H4.60019C4.37928 9.19995 4.2002 9.02087 4.2002 8.79995V7.59995Z"
  />
  <path
    d="M4.2002 11.6C4.2002 11.379 4.37928 11.2 4.60019 11.2H15.2002C15.4211 11.2 15.6002 11.379 15.6002 11.6V12.8C15.6002 13.0209 15.4211 13.2 15.2002 13.2H4.60019C4.37928 13.2 4.2002 13.0209 4.2002 12.8V11.6Z"
  />
  <path
    d="M4.60019 15.2C4.37928 15.2 4.2002 15.379 4.2002 15.5999V16.8C4.2002 17.0209 4.37928 17.2 4.60019 17.2H10.5002C10.7211 17.2 10.9002 17.0209 10.9002 16.8V15.5999C10.9002 15.379 10.7211 15.2 10.5002 15.2H4.60019Z"
  />
</svg>