<svg xmlns="http://www.w3.org/2000/svg" viewBox="0 0 24 24" fill="currentColor">
  <path
    d="M5.41406 13.3924L12.9094 5.89709C13.0656 5.74088 13.0656 5.48762 12.9094 5.33141L12.0609 4.48288C11.9046 4.32667 11.6514 4.32667 11.4952 4.48288L4.28268 11.6954C4.12647 11.8516 4.12648 12.1048 4.28268 12.2611L5.41406 13.3924Z"
  />
  <path
    d="M5.41406 10.564L12.9094 18.0593C13.0656 18.2155 13.0656 18.4688 12.9094 18.625L12.0609 19.4735C11.9047 19.6298 11.6514 19.6298 11.4952 19.4735L4.28268 12.2611C4.12648 12.1048 4.12647 11.8516 4.28268 11.6954L5.41406 10.564Z"
  />
  <path
    d="M5.99984 11.4001C5.99984 11.1792 6.17893 11.0001 6.39984 11.0001H19.5998C19.8208 11.0001 19.9998 11.1792 19.9998 11.4001V12.6001C19.9998 12.821 19.8208 13.0001 19.5998 13.0001H6.39984C6.17893 13.0001 5.99984 12.821 5.99984 12.6001V11.4001Z"
  />
</svg>