<svg xmlns="http://www.w3.org/2000/svg" viewBox="0 0 24 24" fill="currentColor">
  <path
    d="M18.7515 10.664L11.2561 18.1593C11.0999 18.3155 11.0999 18.5688 11.2561 18.725L12.1047 19.5735C12.2609 19.7297 12.5141 19.7297 12.6704 19.5735L19.8828 12.361C20.0391 12.2048 20.0391 11.9516 19.8828 11.7953L18.7515 10.664Z"
  />
  <path
    d="M18.7515 13.4924L11.2561 5.99707C11.0999 5.84086 11.0999 5.58759 11.2561 5.43138L12.1047 4.58285C12.2609 4.42664 12.5141 4.42664 12.6704 4.58285L19.8828 11.7953C20.0391 11.9516 20.0391 12.2048 19.8828 12.361L18.7515 13.4924Z"
  />
  <path
    d="M18.1657 12.6563C18.1657 12.8772 17.9866 13.0563 17.7657 13.0563H4.56569C4.34477 13.0563 4.16569 12.8772 4.16569 12.6563V11.4563C4.16569 11.2354 4.34477 11.0563 4.56569 11.0563H17.7657C17.9866 11.0563 18.1657 11.2354 18.1657 11.4563V12.6563Z"
  />
</svg>