<svg xmlns="http://www.w3.org/2000/svg" viewBox="0 0 24 24" fill="currentColor">
  <path fill-rule="evenodd" clip-rule="evenodd"
    d="M7.4 2C7.17909 2 7 2.17909 7 2.4V3C7 3.55228 6.55228 4 6 4H5.4C5.17909 4 5 4.17909 5 4.4V20.3C5 20.5498 5.1309 20.7691 5.32786 20.893C5.34546 20.9245 5.36765 20.9541 5.39444 20.9809L6.24297 21.8295C6.39918 21.9857 6.65244 21.9857 6.80865 21.8295L11.5396 17.0985L11.3373 17.3011C11.5213 17.1171 11.7591 17.0198 12 17.0092C12.2409 17.0198 12.4787 17.1171 12.6627 17.3011L12.4598 17.0982L17.1913 21.8295C17.3476 21.9857 17.6008 21.9857 17.757 21.8295L18.6056 20.9809C18.6324 20.9541 18.6545 20.9245 18.6721 20.893C18.8691 20.7691 19 20.5498 19 20.3V4.4C19 4.17909 18.8209 4 18.6 4H18C17.4477 4 17 3.55228 17 3V2.4C17 2.17909 16.8209 2 16.6 2H7.4ZM9.21567 16.594L9.16157 16.6481V16.594H9.21567ZM14.8384 16.6481V16.594H14.7843L14.8384 16.6481Z"
  />
</svg>