<svg xmlns="http://www.w3.org/2000/svg" viewBox="0 0 24 24" fill="currentColor">
  <path fill-rule="evenodd" clip-rule="evenodd"
    d="M7 2.4C7 2.17909 7.17909 2 7.4 2H16.6C16.8209 2 17 2.17909 17 2.4V3C17 3.55228 17.4477 4 18 4H18.6C18.8209 4 19 4.17909 19 4.4V20.3C19 20.55 18.869 20.7694 18.6718 20.8932C18.6542 20.9246 18.6321 20.9542 18.6053 20.9809L17.7568 21.8295C17.6006 21.9857 17.3473 21.9857 17.1911 21.8295L12.6628 17.3011C12.4788 17.1171 12.2409 17.0198 12 17.0092C11.759 17.0198 11.5212 17.1171 11.3372 17.3011L6.80887 21.8295C6.65266 21.9857 6.3994 21.9857 6.24319 21.8295L5.39466 20.9809C5.36793 20.9542 5.34577 20.9246 5.32819 20.8932C5.13104 20.7694 5 20.55 5 20.3V4.4C5 4.17909 5.17909 4 5.4 4H6C6.55228 4 7 3.55228 7 3V2.4ZM10.9129 15.4627L11.5398 16.0895L11.3372 15.8869C11.5212 16.0709 11.759 16.1682 12 16.1788C12.2409 16.1682 12.4788 16.0709 12.6628 15.8869L12.4601 16.0896L13.0871 15.4627C13.2433 15.3065 13.4965 15.3065 13.6527 15.4627L17 18.8099V5C17 4.44772 16.5523 4 16 4H8C7.44772 4 7 4.44772 7 5V18.8099L10.3473 15.4627C10.5035 15.3065 10.7567 15.3065 10.9129 15.4627Z"
  />
</svg>