<svg xmlns="http://www.w3.org/2000/svg" viewBox="0 0 24 24" fill="currentColor">
  <path d="M13 7.69995H11V19.7H13V7.69995Z" />
  <path
    d="M2 4.49995C2 4.05812 2.35817 3.69995 2.8 3.69995H7.6C7.82091 3.69995 8 3.87904 8 4.09995V5.69995H2V4.49995Z"
  />
  <path d="M2 15.7H7.6C7.82091 15.7 8 15.879 8 16.1V17.7H2.8C2.35817 17.7 2 17.3418 2 16.9V15.7Z"
  />
  <path d="M2 5.69995L3.6 5.69995V15.7H2L2 5.69995Z" />
  <path
    d="M8 5.69995L10.6 5.69995C10.8209 5.69995 11 5.87904 11 6.09995L11 7.69995L8.4 7.69995C8.17909 7.69995 8 7.52087 8 7.29995L8 5.69995Z"
  />
  <path d="M11 19.7H8.4C8.17909 19.7 8 19.5209 8 19.3V17.7H11L11 19.7Z" />
  <path d="M8 5.69995L8 6.69995C8 6.14767 7.55229 5.69995 7 5.69995L8 5.69995Z" />
  <path d="M8 5.69995V4.69995C8 5.25224 8.44772 5.69995 9 5.69995L8 5.69995Z" />
  <path d="M11 7.69995L11 8.69995C11 8.14767 10.5523 7.69995 10 7.69995L11 7.69995Z" />
  <path d="M11 7.69995V6.69995C11 7.25224 11.4477 7.69995 12 7.69995L11 7.69995Z" />
  <path d="M8 17.7V18.7C8 18.1477 7.55229 17.7 7 17.7H8Z" />
  <path d="M8 17.7L8 16.7C8 17.2522 8.44772 17.7 9 17.7H8Z" />
  <path
    d="M22 4.49995C22 4.05812 21.6418 3.69995 21.2 3.69995H16.4C16.1791 3.69995 16 3.87904 16 4.09995V5.69995H22V4.49995Z"
  />
  <path
    d="M22 15.7H16.8C16.3582 15.7 16 16.0581 16 16.5V17.7H21.2C21.6418 17.7 22 17.3418 22 16.9V15.7Z"
  />
  <path d="M22 5.69995L20.4 5.69995V15.7H22L22 5.69995Z" />
  <path
    d="M16 5.69995L13.4 5.69995C13.1791 5.69995 13 5.87904 13 6.09995L13 7.69995L15.6 7.69995C15.8209 7.69995 16 7.52087 16 7.29995L16 5.69995Z"
  />
  <path d="M13 19.7H15.6C15.8209 19.7 16 19.5209 16 19.3V17.7H13L13 19.7Z" />
  <path d="M16 5.69995L16 6.69995C16 6.14767 16.4477 5.69995 17 5.69995L16 5.69995Z" />
  <path d="M16 5.69995L16 4.69995C16 5.25224 15.5523 5.69995 15 5.69995L16 5.69995Z" />
  <path d="M13 7.69995L13 8.69995C13 8.14767 13.4477 7.69995 14 7.69995L13 7.69995Z" />
  <path d="M13 7.69995L13 6.69995C13 7.25224 12.5523 7.69995 12 7.69995L13 7.69995Z" />
  <path d="M16 17.7V18.7C16 18.1477 16.4477 17.7 17 17.7H16Z" />
  <path d="M16 17.7L16 16.7C16 17.2522 15.5523 17.7 15 17.7H16Z" />
</svg>