<svg xmlns="http://www.w3.org/2000/svg" viewBox="0 0 24 24" fill="currentColor">
  <path fill-rule="evenodd" clip-rule="evenodd"
    d="M14 10.7999L15.6 10.7999C15.8209 10.7999 16 10.979 16 11.1999V14.3999C16 14.6208 15.8209 14.7999 15.6 14.7999H14.9966C14.4459 14.8018 14 15.2488 14 15.7999V16.3999C14 16.6208 13.8209 16.7999 13.6 16.7999H10.4C10.1791 16.7999 10 16.6208 10 16.3999V15.7999C10 15.2488 9.55413 14.8018 9.00342 14.7999H8.4C8.17909 14.7999 8 14.6208 8 14.3999V11.1999C8 10.979 8.17909 10.7999 8.4 10.7999H10L9 10.7999C9.55228 10.7999 10 10.3522 10 9.79993V9.19993C10 8.97901 10.1791 8.79993 10.4 8.79993L13.6 8.79993C13.8209 8.79993 14 8.97901 14 9.19993V9.79993C14 10.3522 14.4477 10.7999 15 10.7999H14ZM10 11.7999V13.7999C10 14.3522 10.4477 14.7999 11 14.7999H13C13.5523 14.7999 14 14.3522 14 13.7999V11.7999C14 11.2476 13.5523 10.7999 13 10.7999H11C10.4477 10.7999 10 11.2476 10 11.7999Z"
  />
  <path fill-rule="evenodd" clip-rule="evenodd"
    d="M14.8 4.29993C15.0209 4.29993 15.2 4.47901 15.2 4.69993V5.29993C15.2 5.85221 15.6477 6.29993 16.2 6.29993L19.6 6.29993C19.8209 6.29993 20 6.47901 20 6.69993V7.29993C20 7.85221 20.4477 8.29993 21 8.29993H21.6C21.8209 8.29993 22 8.47901 22 8.69993V17.6999C22 17.9208 21.8209 18.0999 21.6 18.0999H21C20.4477 18.0999 20 18.5476 20 19.0999V19.6999C20 19.9208 19.8209 20.0999 19.6 20.0999H4.4C4.17909 20.0999 4 19.9208 4 19.6999V19.0999C4 18.5476 3.55228 18.0999 3 18.0999H2.4C2.17909 18.0999 2 17.9208 2 17.6999V8.69993C2 8.47901 2.17909 8.29993 2.4 8.29993H3C3.55228 8.29993 4 7.85221 4 7.29993V6.69993C4 6.47901 4.17909 6.29993 4.4 6.29993L7.8 6.29993C8.35196 6.29993 8.79947 5.85275 8.8 5.30091V4.69993C8.8 4.47901 8.97909 4.29993 9.2 4.29993H14.8ZM4 9.29993V17.0999C4 17.6522 4.44772 18.0999 5 18.0999H19C19.5523 18.0999 20 17.6522 20 17.0999V9.29993C20 8.74764 19.5523 8.29993 19 8.29993H15.6C15.3791 8.29993 15.2 8.12084 15.2 7.89993V7.29993C15.2 6.74764 14.7523 6.29993 14.2 6.29993H9.8C9.24772 6.29993 8.8 6.74764 8.8 7.29993V7.89993C8.8 8.12084 8.62091 8.29993 8.4 8.29993H5C4.44772 8.29993 4 8.74764 4 9.29993Z"
  />
</svg>