<svg xmlns="http://www.w3.org/2000/svg" viewBox="0 0 24 24" fill="currentColor">
  <path
    d="M18 5C17.4477 5 17 4.55228 17 4V3.8C17 3.35817 16.6418 3 16.2 3H7.8C7.35817 3 7 3.35817 7 3.8L7 5L7 4C7 4.55228 6.55228 5 6 5H5.4C5.17909 5 5 5.17909 5 5.4V7.4L5 8.4C5 7.84772 5.44771 7.4 6 7.4L6.6 7.4C6.82091 7.4 7 7.22091 7 7L7 6C7 5.44772 7.44771 5 8 5H16C16.5523 5 17 5.44772 17 6V7C17 7.22091 17.1791 7.4 17.4 7.4L18 7.4C18.5523 7.4 19 7.84772 19 8.4V15.4C19 15.9523 18.5523 16.4 18 16.4L17.4 16.4C17.1791 16.4 17 16.5791 17 16.8V18C17 18.5523 16.5523 19 16 19H8C7.44771 19 7 18.5523 7 18L7 16.8C7 16.5791 6.82091 16.4 6.6 16.4L6 16.4C5.44771 16.4 5 15.9523 5 15.4L5 16.4V18.6C5 18.8209 5.17909 19 5.4 19H6C6.55228 19 7 19.4477 7 20L7 20.2C7 20.6418 7.35817 21 7.8 21L16.2 21C16.6418 21 17 20.6418 17 20.2L17 19V20C17 19.4477 17.4477 19 18 19H18.6C18.8209 19 19 18.8209 19 18.6L19 17.4C19 16.8477 19.4477 16.4 20 16.4L19 16.4H20.6C20.8209 16.4 21 16.2209 21 16V7.8C21 7.57909 20.8209 7.4 20.6 7.4H20C19.4477 7.4 19 6.95228 19 6.4L19 5.4C19 5.17909 18.8209 5 18.6 5H18Z"
  />
  <path
    d="M5 7.4V16.4L3.4 16.4C3.17908 16.4 3 16.2209 3 16V7.8C3 7.57909 3.17909 7.4 3.4 7.4H4C4.55228 7.4 5 6.95228 5 6.4L5 7.4Z"
  />
  <path fill-rule="evenodd" clip-rule="evenodd"
    d="M15 14C14.4477 14 14 14.4477 14 15V15.6C14 15.8209 13.8209 16 13.6 16H10.4C10.1791 16 10 15.8209 10 15.6L10 15C9.99947 14.4482 9.55195 14 9 14H8.4C8.17909 14 8 13.8209 8 13.6V10.4C8 10.1791 8.17909 10 8.4 10H9C9.55195 10 9.99946 9.55282 10 9.00099V8.4C10 8.17909 10.1791 8 10.4 8L13.6 8C13.8209 8 14 8.17909 14 8.4V9C14 9.55228 14.4477 10 15 10H15.6C15.8209 10 16 10.1791 16 10.4V13.6C16 13.8209 15.8209 14 15.6 14H15ZM11 10H13C13.5523 10 14 10.4477 14 11V13C14 13.5523 13.5523 14 13 14H11C10.4477 14 10 13.5523 10 13V11C10 10.4477 10.4477 10 11 10Z"
  />
  <path d="M5 17.4C5 16.8477 4.55228 16.4 4 16.4L5 16.4L5 17.4Z" />
</svg>