<svg xmlns="http://www.w3.org/2000/svg" viewBox="0 0 24 24" fill="currentColor">
  <path
    d="M11.9002 13.7C12.7286 13.7 13.4002 13.0284 13.4002 12.2C13.4002 11.3715 12.7286 10.7 11.9002 10.7C11.0718 10.7 10.4002 11.3715 10.4002 12.2C10.4002 13.0284 11.0718 13.7 11.9002 13.7Z"
  />
  <path fill-rule="evenodd" clip-rule="evenodd"
    d="M11.9502 6.69997C15.0154 6.69997 17.5002 9.16241 17.5002 12.2C17.5002 15.2375 15.0154 17.7 11.9502 17.7C8.88502 17.7 6.4002 15.2375 6.4002 12.2C6.4002 9.16241 8.88502 6.69997 11.9502 6.69997ZM11.9502 8.29997C14.1454 8.29997 15.9002 10.0597 15.9002 12.2C15.9002 14.3403 14.1454 16.1 11.9502 16.1C9.75499 16.1 8.0002 14.3403 8.0002 12.2C8.0002 10.0597 9.75499 8.29997 11.9502 8.29997Z"
  />
  <path fill-rule="evenodd" clip-rule="evenodd"
    d="M4.9002 4.09998C4.23745 4.09998 3.7002 4.63723 3.7002 5.29998V18.3C3.7002 18.5209 3.87928 18.7 4.1002 18.7H4.3002C4.85248 18.7 5.3002 19.1477 5.3002 19.7L5.3002 18.7V19.9C5.3002 20.1209 5.47928 20.3 5.7002 20.3H19.0002C19.6629 20.3 20.2002 19.7627 20.2002 19.1V6.09998C20.2002 5.87906 20.0211 5.69998 19.8002 5.69998H19.6002C19.0479 5.69998 18.6002 5.25226 18.6002 4.69998L18.6002 5.69998V4.49998C18.6002 4.27906 18.4211 4.09998 18.2002 4.09998H4.9002ZM18.6002 6.69998C18.6002 6.14796 18.1529 5.70042 17.601 5.69998L5.3002 5.69998L5.3002 17.7C5.30046 18.2516 5.74732 18.6992 6.2988 18.7L18.6002 18.7V6.69998Z"
  />
</svg>