<svg xmlns="http://www.w3.org/2000/svg" viewBox="0 0 24 24" fill="currentColor">
  <path
    d="M17.9398 5.21176C17.7836 5.05555 17.5303 5.05555 17.3741 5.21176L12.7072 9.87867C12.3168 10.2691 11.6838 10.2692 11.2933 9.87892L6.6261 5.21176C6.46989 5.05555 6.21662 5.05555 6.06041 5.21176L5.21188 6.06029C5.05567 6.2165 5.05567 6.46977 5.21188 6.62598L10.3031 11.7171C10.4593 11.8734 10.7125 11.8734 10.8687 11.7171L11.293 11.2929C11.6835 10.9024 12.3167 10.9024 12.7072 11.2929L13.1315 11.7171C13.2877 11.8734 13.541 11.8734 13.6972 11.7171L18.7883 6.62598C18.9445 6.46977 18.9445 6.2165 18.7883 6.06029L17.9398 5.21176Z"
  />
  <path
    d="M11.2939 14.1204C11.6844 13.7309 12.3166 13.7311 12.7069 14.1209L17.3741 18.7882C17.5303 18.9444 17.7836 18.9444 17.9398 18.7882L18.7883 17.9397C18.9445 17.7835 18.9445 17.5302 18.7883 17.374L13.6972 12.2828C13.541 12.1266 13.2877 12.1266 13.1315 12.2828L12.7072 12.7071C12.3167 13.0976 11.6835 13.0976 11.293 12.7071L10.8687 12.2828C10.7125 12.1266 10.4593 12.1266 10.3031 12.2828L5.21188 17.374C5.05567 17.5302 5.05567 17.7835 5.21188 17.9397L6.06041 18.7882C6.21662 18.9444 6.46989 18.9444 6.6261 18.7882L11.2939 14.1204Z"
  />
</svg>