<svg xmlns="http://www.w3.org/2000/svg" viewBox="0 0 24 24" fill="currentColor">
  <path
    d="M4.13684 3.5C3.50898 3.5 3 4.00898 3 4.63684V5.01579H17.1158V3.87895C17.1158 3.66966 16.9461 3.5 16.7368 3.5H4.13684Z"
  />
  <path fill-rule="evenodd" clip-rule="evenodd"
    d="M21 20.3632C21 20.991 20.491 21.5 19.8632 21.5H7.87895C7.66966 21.5 7.5 21.3303 7.5 21.1211V20.9284C7.49828 20.4066 7.07479 19.9842 6.55264 19.9842H6.41054C6.20125 19.9842 6.03159 19.8146 6.03159 19.6053V18.8474H4.89475C4.68546 18.8474 4.5158 18.6777 4.5158 18.4684V17.3316L4.51578 18.279C4.51578 17.7557 4.09163 17.3316 3.56841 17.3316L3.37895 17.3316C3.16966 17.3316 3 17.1619 3 16.9526V5.01579L4.51579 5.01579V16.3909C4.51938 16.9095 4.93961 17.3291 5.45843 17.3316L17.1158 17.3316V5.95983C17.114 5.43814 16.6906 5.01579 16.1685 5.01579L17.1158 5.01579L18.2527 5.01579C18.4619 5.01579 18.6316 5.18545 18.6316 5.39474V6.2H19.0947C19.304 6.2 19.4737 6.36966 19.4737 6.57895V6.77226C19.4758 7.2929 19.8978 7.71447 20.4186 7.71578L20.421 7.71578L20.6211 7.71578C20.8303 7.71578 21 7.88544 21 8.09472V20.3632ZM17.4948 18.8474C18.1226 18.8474 18.6316 18.3384 18.6316 17.7105L18.6316 7.72156C18.9789 7.75996 19.2696 7.98608 19.4 8.2962V19.9H8.4914C7.97195 19.8982 7.55099 19.4784 7.54738 18.9594V18.8474H17.4948Z"
  />
  <path
    d="M17.1158 5.01579L17.1158 4.06842C17.1158 4.59164 17.54 5.01579 18.0632 5.01579L17.1158 5.01579Z"
  />
  <path
    d="M10.7684 12.5947C11.5532 12.5947 12.1895 11.9585 12.1895 11.1737C12.1895 10.3889 11.5532 9.75263 10.7684 9.75263C9.98359 9.75263 9.34736 10.3889 9.34736 11.1737C9.34736 11.9585 9.98359 12.5947 10.7684 12.5947Z"
  />
  <path fill-rule="evenodd" clip-rule="evenodd"
    d="M10.8158 5.96316C13.7197 5.96316 16.0737 8.29599 16.0737 11.1737C16.0737 14.0514 13.7197 16.3842 10.8158 16.3842C7.91195 16.3842 5.55791 14.0514 5.55791 11.1737C5.55791 8.29599 7.91195 5.96316 10.8158 5.96316ZM10.8158 7.47895C12.8955 7.47895 14.5579 9.14604 14.5579 11.1737C14.5579 13.2013 12.8955 14.8684 10.8158 14.8684C8.73614 14.8684 7.0737 13.2013 7.0737 11.1737C7.0737 9.14604 8.73614 7.47895 10.8158 7.47895Z"
  />
</svg>