<svg xmlns="http://www.w3.org/2000/svg" viewBox="0 0 24 24" fill="currentColor">
  <path fill-rule="evenodd" clip-rule="evenodd"
    d="M6 4.4V5C6 5.54894 5.55769 5.99458 5.01002 5.99995H4.4C4.17909 5.99995 4 6.17904 4 6.39995V8.69995H2.4C2.17909 8.69995 2 8.87904 2 9.09995V10.3C2 10.5209 2.17909 10.7 2.4 10.7H3C3.55228 10.7 4 11.1477 4 11.7V17.6C4 17.8209 4.17909 18 4.4 18H5V19.6C5 19.8209 5.17909 20 5.4 20H7.6C7.82091 20 8 19.8209 8 19.6V19C8 18.4477 8.44772 18 9 18H15C15.5523 18 16 18.4477 16 19V19.6C16 19.8209 16.1791 20 16.4 20H18.6C18.8209 20 19 19.8209 19 19.6V18H19.6C19.8209 18 20 17.8209 20 17.6V11.7C20 11.1477 20.4477 10.7 21 10.7H21.6C21.8209 10.7 22 10.5209 22 10.3V9.09995C22 8.87904 21.8209 8.69995 21.6 8.69995H20V6.39995C20 6.17904 19.8209 5.99995 19.6 5.99995H18.99C18.4423 5.99458 18 5.54894 18 5V4.4C18 4.17909 17.8209 4 17.6 4H6.4C6.17909 4 6 4.17909 6 4.4ZM20 8.69995V8.7H18V10.5H6V8.7H4V8.69995H6V7C6 6.44772 6.44772 6 7 6H17L17.0007 6C17.5526 6.00036 18 6.44794 18 7V8.69995H20ZM8 17V16.4C8 16.1791 8.17909 16 8.4 16H15.6C15.8209 16 16 16.1791 16 16.4V17C16 17.5523 16.4477 18 17 18H18V12.5H6V18H7C7.55228 18 8 17.5523 8 17ZM7 13.6667C7 13.2985 7.29848 13 7.66667 13H8.33333C8.70152 13 9 13.2985 9 13.6667V14.3333C9 14.7015 8.70152 15 8.33333 15H7.66667C7.29848 15 7 14.7015 7 14.3333V13.6667ZM15.6667 13C15.2985 13 15 13.2985 15 13.6667V14.3333C15 14.7015 15.2985 15 15.6667 15H16.3333C16.7015 15 17 14.7015 17 14.3333V13.6667C17 13.2985 16.7015 13 16.3333 13H15.6667Z"
  />
</svg>