<svg xmlns="http://www.w3.org/2000/svg" viewBox="0 0 24 24" fill="currentColor">
  <path
    d="M20.9014 12.1044C20.9583 11.7407 20.7095 11.3997 20.3457 11.3428L16.491 10.7401C16.1272 10.6832 15.7862 10.932 15.7294 11.2958L15.6264 11.9545C15.5695 12.3182 15.8183 12.6592 16.1821 12.7161L20.0368 13.3188C20.4006 13.3756 20.7416 13.1269 20.7985 12.7631L20.9014 12.1044Z"
  />
  <path
    d="M9.86468 6.89559C9.50904 6.99089 9.29799 7.35645 9.39328 7.71209L9.84737 9.40676C9.94266 9.76241 10.3082 9.97346 10.6639 9.87817L11.3078 9.70562C11.6635 9.61033 11.8745 9.24477 11.7792 8.88912L11.3251 7.19445C11.2298 6.83881 10.8643 6.62775 10.5086 6.72305L9.86468 6.89559Z"
  />
  <path
    d="M6.4379 19.7729L4.31658 17.6516L3.18521 18.783C3.029 18.9392 3.029 19.1925 3.18521 19.3487L4.74084 20.9043C4.89705 21.0605 5.15032 21.0605 5.30653 20.9043L6.4379 19.7729Z"
  />
  <path
    d="M4.31658 17.6516L3.60944 18.3587C3.99997 17.9682 3.99997 17.335 3.60944 16.9445L4.31658 17.6516Z"
  />
  <path
    d="M4.31658 17.6516L5.02365 16.9445C4.63312 17.335 4.63312 17.9682 5.02365 18.3587L4.31658 17.6516Z"
  />
  <path
    d="M5.73079 10.5805L5.02369 11.2877C5.41421 10.8971 5.41421 10.264 5.02369 9.87344L5.73079 10.5805Z"
  />
  <path
    d="M5.73079 10.5805L6.43789 9.87344C6.04737 10.264 6.04737 10.8971 6.43789 11.2876L5.73079 10.5805Z"
  />
  <path
    d="M6.4379 7.04501L5.73079 7.75212C6.12132 7.36159 6.12132 6.72843 5.73079 6.3379L6.4379 7.04501Z"
  />
  <path
    d="M6.4379 7.04501L7.145 6.3379C6.75447 6.72843 6.75447 7.36159 7.145 7.75212L6.4379 7.04501Z"
  />
  <path
    d="M8.55921 4.92369L7.8521 5.6308C8.24263 5.24027 8.87579 5.24027 9.26631 5.6308L8.55921 4.92369Z"
  />
  <path
    d="M8.55921 4.92369L9.26631 4.21658C8.87579 4.60711 8.24263 4.60711 7.8521 4.21658L8.55921 4.92369Z"
  />
  <path
    d="M11.3169 4.9944L10.6098 5.70151C11.0004 5.31098 11.6335 5.31098 12.024 5.70151L11.3169 4.9944Z"
  />
  <path
    d="M11.3169 4.9944L12.024 4.28729C11.6335 4.67782 11.0004 4.67782 10.6098 4.28729L11.3169 4.9944Z"
  />
  <path
    d="M5.02369 14.1161L4.31658 14.8232C4.70711 14.4327 4.70711 13.7995 4.31658 13.409L5.02369 14.1161Z"
  />
  <path
    d="M5.02369 14.1161L5.73079 13.409C5.34026 13.7995 5.34026 14.4327 5.73079 14.8232L5.02369 14.1161Z"
  />
  <path
    d="M6.15505 15.8131C6.31126 15.6569 6.31126 15.4037 6.15505 15.2474L5.02369 14.1161L3.1852 15.9546C3.02899 16.1108 3.02899 16.364 3.1852 16.5202L4.31658 17.6516L6.15505 15.8131Z"
  />
  <path
    d="M6.86216 12.2776C7.01837 12.1214 7.01837 11.8681 6.86216 11.7119L5.73079 10.5805L3.89231 12.419C3.7361 12.5752 3.7361 12.8285 3.89231 12.9847L5.02369 14.1161L6.86216 12.2776Z"
  />
  <path
    d="M7.56926 8.74207C7.72547 8.58586 7.72547 8.33259 7.56926 8.17638L6.4379 7.04501L4.59941 8.88349C4.4432 9.0397 4.4432 9.29296 4.59941 9.44917L5.73079 10.5805L7.56926 8.74207Z"
  />
  <path
    d="M6.86216 3.79232C7.01837 3.63611 7.27163 3.63611 7.42784 3.79232L8.55921 4.92369L6.4379 7.04501L5.30652 5.91364C5.15031 5.75743 5.15031 5.50416 5.30652 5.34795L6.86216 3.79232Z"
  />
  <path
    d="M11.3876 4.92369L10.2563 3.79232C10.1001 3.63611 9.84679 3.63611 9.69058 3.79232L8.55921 4.92369L9.69058 6.05506C9.84679 6.21127 10.1001 6.21127 10.2563 6.05506L11.3876 4.92369Z"
  />
  <path
    d="M6.36719 19.7022L5.66009 20.4093C6.05061 20.0188 6.68377 20.0188 7.0743 20.4093L6.36719 19.7022Z"
  />
  <path
    d="M6.36719 19.7022L7.0743 18.9951C6.68378 19.3856 6.05061 19.3856 5.66009 18.9951L6.36719 19.7022Z"
  />
  <path
    d="M13.4383 18.288L12.7312 18.9951C13.1217 18.6046 13.7548 18.6046 14.1454 18.9951L13.4383 18.288Z"
  />
  <path
    d="M13.4383 18.288L14.1454 17.5809C13.7548 17.9714 13.1217 17.9714 12.7312 17.5809L13.4383 18.288Z"
  />
  <path
    d="M16.9738 17.5809L16.2667 18.288C16.6572 17.8975 17.2904 17.8975 17.6809 18.288L16.9738 17.5809Z"
  />
  <path
    d="M16.9738 17.5809L17.6809 16.8738C17.2904 17.2643 16.6572 17.2643 16.2667 16.8738L16.9738 17.5809Z"
  />
  <path
    d="M9.90273 18.9951L9.19562 19.7022C9.58614 19.3117 10.2193 19.3117 10.6098 19.7022L9.90273 18.9951Z"
  />
  <path
    d="M9.90273 18.9951L10.6098 18.288C10.2193 18.6785 9.58614 18.6785 9.19562 18.288L9.90273 18.9951Z"
  />
  <path
    d="M8.20568 17.8637C8.36189 17.7075 8.61515 17.7075 8.77136 17.8637L9.90273 18.9951L8.06425 20.8336C7.90804 20.9898 7.65478 20.9898 7.49857 20.8336L6.36719 19.7022L8.20568 17.8637Z"
  />
  <path
    d="M11.7412 17.1566C11.8974 17.0004 12.1507 17.0004 12.3069 17.1566L13.4383 18.288L11.5998 20.1265C11.4436 20.2827 11.1903 20.2827 11.0341 20.1265L9.90273 18.9951L11.7412 17.1566Z"
  />
  <path
    d="M15.2767 16.4495C15.4329 16.2933 15.6862 16.2933 15.8424 16.4495L16.9738 17.5809L15.1353 19.4194C14.9791 19.5756 14.7258 19.5756 14.5696 19.4194L13.4383 18.288L15.2767 16.4495Z"
  />
  <path
    d="M20.2265 17.1566C20.3827 17.0004 20.3827 16.7472 20.2265 16.5909L19.378 15.7424C19.2218 15.5862 18.9685 15.5862 18.8123 15.7424L16.9738 17.5809L18.1052 18.7123C18.2614 18.8685 18.5146 18.8685 18.6709 18.7123L20.2265 17.1566Z"
  />
  <path
    d="M5.5899 8.41425C5.43369 8.25804 5.43369 8.00478 5.5899 7.84857L6.15559 7.28288C6.3118 7.12667 6.56506 7.12667 6.72127 7.28288L9.33757 9.89918C9.49378 10.0554 9.49378 10.3087 9.33757 10.4649L8.77188 11.0305C8.61567 11.1868 8.36241 11.1868 8.2062 11.0305L5.5899 8.41425Z"
  />
  <path
    d="M13.0142 15.8388C12.858 15.6826 12.858 15.4293 13.0142 15.2731L13.5799 14.7074C13.7361 14.5512 13.9894 14.5512 14.1456 14.7074L16.6912 17.253C16.8474 17.4092 16.8474 17.6625 16.6912 17.8187L16.1255 18.3844C15.9693 18.5406 15.716 18.5406 15.5598 18.3844L13.0142 15.8388Z"
  />
  <path
    d="M8.48845 12.9479C8.33224 12.7917 8.33224 12.5384 8.48845 12.3822L9.05414 11.8165C9.21035 11.6603 9.46361 11.6603 9.61982 11.8165L12.2361 14.4328C12.3923 14.589 12.3923 14.8423 12.2361 14.9985L11.6704 15.5642C11.5142 15.7204 11.261 15.7204 11.1047 15.5642L8.48845 12.9479Z"
  />
  <path
    d="M11.3169 4.9944L12.4483 3.86303C12.6045 3.70682 12.8578 3.70682 13.014 3.86303L13.8716 4.72065C14.0278 4.87686 14.0278 5.13013 13.8716 5.28633L13.0231 6.13486C12.8669 6.29107 12.6136 6.29107 12.4574 6.13486L11.3169 4.9944Z"
  />
  <path
    d="M3.54604 3.25378C3.1904 3.34907 2.97934 3.71463 3.07464 4.07027L3.24719 4.71422C3.34248 5.06987 3.70804 5.28092 4.06368 5.18563L4.70763 5.01308C5.06328 4.91779 5.27433 4.55223 5.17904 4.19659L5.00649 3.55264C4.9112 3.19699 4.54564 2.98594 4.18999 3.08123L3.54604 3.25378Z"
  />
  <path
    d="M19.3377 19.0404C18.9821 19.1357 18.771 19.5012 18.8663 19.8569L19.0389 20.5008C19.1342 20.8565 19.4997 21.0675 19.8554 20.9722L20.4993 20.7997C20.855 20.7044 21.066 20.3388 20.9707 19.9832L20.7982 19.3392C20.7029 18.9836 20.3373 18.7725 19.9817 18.8678L19.3377 19.0404Z"
  />
  <path
    d="M16.5139 6.16138L15.8068 6.86849C16.1973 6.47797 16.8305 6.47797 17.221 6.86849L16.5139 6.16138Z"
  />
  <path
    d="M16.5139 6.16138L17.221 5.45427C16.8305 5.8448 16.1973 5.8448 15.8068 5.45427L16.5139 6.16138Z"
  />
  <path
    d="M19.4838 3.19153C19.64 3.03532 19.8932 3.03532 20.0494 3.19153L20.898 4.04006C21.0542 4.19627 21.0542 4.44954 20.898 4.60575L18.211 7.29275C18.0548 7.44896 17.8015 7.44896 17.6453 7.29275L16.5139 6.16138L19.4838 3.19153Z"
  />
  <path
    d="M14.8169 5.03001C14.9731 4.8738 15.2263 4.8738 15.3825 5.03001L16.5139 6.16138L13.6366 9.03867C13.4804 9.19488 13.2271 9.19488 13.0709 9.03867L12.2224 8.19014C12.0662 8.03393 12.0662 7.78067 12.2224 7.62446L14.8169 5.03001Z"
  />
  <path
    d="M16.3481 10.8265L15.641 11.5336C16.0315 11.1431 16.0315 10.51 15.641 10.1194L16.3481 10.8265Z"
  />
  <path
    d="M16.3481 10.8265L17.0552 10.1194C16.6647 10.51 16.6647 11.1431 17.0552 11.5336L16.3481 10.8265Z"
  />
  <path
    d="M16.0654 8.28101C16.2216 8.1248 16.4749 8.1248 16.6311 8.28101L17.4796 9.12954C17.6358 9.28575 17.6358 9.53901 17.4796 9.69522L16.3481 10.8265L15.2169 9.69522C15.0607 9.53901 15.0607 9.28575 15.2169 9.12954L16.0654 8.28101Z"
  />
</svg>