<svg xmlns="http://www.w3.org/2000/svg" viewBox="0 0 24 24" fill="currentColor">
  <path fill-rule="evenodd" clip-rule="evenodd"
    d="M4.9002 3.19995C4.23745 3.19995 3.7002 3.73721 3.7002 4.39995V16.4C3.7002 16.6209 3.87928 16.8 4.10019 16.8H4.30019C4.85248 16.8 5.30019 17.2477 5.30019 17.8L5.30019 18C5.30019 18.2209 5.47928 18.4 5.70019 18.4H7.40019V19.4C7.40019 19.6209 7.57928 19.8 7.80019 19.8L8.00019 19.7999L8.002 19.8C8.55345 19.8009 9.00019 20.2483 9.00019 20.7999V21C9.00019 21.2209 9.17928 21.4 9.40019 21.4H19.8002C20.4629 21.4 21.0002 20.8627 21.0002 20.1999V8.12853C21.0002 7.90761 20.8211 7.72853 20.6002 7.72853H19.4002L20.4002 7.72852C19.8479 7.72852 19.4002 7.31279 19.4002 6.79995V6.59995C19.4002 6.37904 19.2211 6.19995 19.0002 6.19995H17.3002V5.12853C17.3002 4.90761 17.1211 4.72853 16.9002 4.72853H15.7002L16.7002 4.72852C16.1483 4.72852 15.7009 4.31342 15.7002 3.80113V3.59995C15.7002 3.37904 15.5211 3.19995 15.3002 3.19995H4.9002ZM18.7855 7.79995H17.3002L17.3002 17.2C17.3002 17.8627 16.7629 18.4 16.1002 18.4H9.00019V18.8C9.00019 19.3516 9.44684 19.7989 9.99822 19.7999L19.4002 19.8V8.65709C19.3999 8.27133 19.1463 7.93996 18.7855 7.79995ZM15.7002 16.8V5.65709C15.7002 5.27106 15.4465 4.94004 15.0855 4.79995L5.3002 4.79995L5.30019 15.8C5.30041 16.3516 5.74729 16.7992 6.2988 16.7999L15.7002 16.8Z"
  />
</svg>