<svg xmlns="http://www.w3.org/2000/svg" viewBox="0 0 24 24" fill="currentColor">
  <path d="M9 17.4C9 17.1791 9.17909 17 9.4 17H20V18.6C20 18.8209 19.8209 19 19.6 19H9V17.4Z"
  />
  <path
    d="M10.5 7C10.5 6.44772 10.9477 6 11.5 6H12.5C13.0523 6 13.5 6.44772 13.5 7V8C13.5 8.55228 13.0523 9 12.5 9H11.5C10.9477 9 10.5 8.55228 10.5 8V7Z"
  />
  <path
    d="M6.8 9.3C6.8 8.74771 7.24772 8.3 7.8 8.3H8.8C9.35228 8.3 9.8 8.74772 9.8 9.3V10.3C9.8 10.8523 9.35228 11.3 8.8 11.3H7.8C7.24772 11.3 6.8 10.8523 6.8 10.3V9.3Z"
  />
  <path
    d="M5 13C5 12.4477 5.44772 12 6 12H7C7.55228 12 8 12.4477 8 13V14C8 14.5523 7.55228 15 7 15H6C5.44772 15 5 14.5523 5 14V13Z"
  />
  <path
    d="M17.2 9.3C17.2 8.74772 16.7523 8.3 16.2 8.3H15.2C14.6477 8.3 14.2 8.74772 14.2 9.3V10.3C14.2 10.8523 14.6477 11.3 15.2 11.3H16.2C16.7523 11.3 17.2 10.8523 17.2 10.3V9.3Z"
  />
  <path d="M9 19V20C9 19.4477 9.44772 19 10 19H9Z" />
  <path d="M9 19L9 18C9 18.5523 8.55229 19 8 19H9Z" />
  <path d="M4 9V10C4 9.44772 4.44772 9 5 9H4Z" />
  <path d="M4 9L4 8C4 8.55228 3.55229 9 3 9H4Z" />
  <path d="M6 7V8C6 7.44772 6.44772 7 7 7H6Z" />
  <path d="M6 7L6 6C6 6.55228 5.55229 7 5 7H6Z" />
  <path d="M18 5.4C18 5.17909 17.8209 5 17.6 5H15V6.6C15 6.82091 15.1791 7 15.4 7H18V5.4Z"
  />
  <path d="M20 7.4C20 7.17909 19.8209 7 19.6 7H18V8.6C18 8.82091 18.1791 9 18.4 9H20V7.4Z"
  />
  <path d="M22 9.4C22 9.17909 21.8209 9 21.6 9H20L20 17H21.6C21.8209 17 22 16.8209 22 16.6V9.4Z"
  />
  <path d="M20 17L20 18C20 17.4477 20.4477 17 21 17H20Z" />
  <path d="M20 17L20 16C20 16.5523 19.5523 17 19 17H20Z" />
  <path d="M20 9V10C20 9.44772 19.5523 9 19 9H20Z" />
  <path d="M20 9V8C20 8.55228 20.4477 9 21 9H20Z" />
  <path d="M18 7V8C18 7.44772 17.5523 7 17 7H18Z" />
  <path d="M18 7V6C18 6.55228 18.4477 7 19 7H18Z" />
  <path d="M9 5L9 6C9 5.44772 9.44772 5 10 5L9 5Z" />
  <path d="M9 5L9 4C9 4.55228 8.55229 5 8 5L9 5Z" />
  <path d="M6 19V20C6 19.4477 5.55228 19 5 19H6Z" />
  <path d="M6 19L6 18C6 18.5523 6.44771 19 7 19H6Z" />
  <path d="M4 17L4 18C4 17.4477 3.55228 17 3 17H4Z" />
  <path d="M4 17L4 16C4 16.5523 4.44771 17 5 17H4Z" />
  <path d="M15 3.4C15 3.17909 14.8209 3 14.6 3H9.4C9.17909 3 9 3.17909 9 3.4L9 5L15 5L15 3.4Z"
  />
  <path d="M6 5.4C6 5.17909 6.17909 5 6.4 5L9 5L9 6.6C9 6.82091 8.82091 7 8.6 7H6V5.4Z" />
  <path d="M9 19H6V20.6C6 20.8209 6.17909 21 6.4 21H8.6C8.82091 21 9 20.8209 9 20.6V19Z"
  />
  <path d="M4 7.4C4 7.17909 4.17909 7 4.4 7H6V8.6C6 8.82091 5.82091 9 5.6 9H4V7.4Z" />
  <path d="M4 17H5.6C5.82091 17 6 17.1791 6 17.4V19H4.4C4.17909 19 4 18.8209 4 18.6V17Z"
  />
  <path d="M2 9.4C2 9.17909 2.17909 9 2.4 9H4V17H2.4C2.17909 17 2 16.8209 2 16.6V9.4Z" />
  <path d="M15 5L15 6C15 5.44772 14.5523 5 14 5H15Z" />
  <path d="M15 5L15 4C15 4.55228 15.4477 5 16 5H15Z" />
</svg>