<svg xmlns="http://www.w3.org/2000/svg" viewBox="0 0 24 24" fill="currentColor">
  <path
    d="M6.5 11.5C6.5 11.7209 6.67909 11.9 6.9 11.9H8.1C8.32091 11.9 8.5 11.7209 8.5 11.5V10.3C8.5 10.0791 8.32091 9.9 8.1 9.9H6.9C6.67909 9.9 6.5 10.0791 6.5 10.3V11.5Z"
  />
  <path
    d="M9.5 11.5C9.5 11.7209 9.67909 11.9 9.9 11.9H11.1C11.3209 11.9 11.5 11.7209 11.5 11.5V10.3C11.5 10.0791 11.3209 9.9 11.1 9.9H9.9C9.67909 9.9 9.5 10.0791 9.5 10.3V11.5Z"
  />
  <path
    d="M12.5 11.5C12.5 11.7209 12.6791 11.9 12.9 11.9H14.1C14.3209 11.9 14.5 11.7209 14.5 11.5V10.3C14.5 10.0791 14.3209 9.9 14.1 9.9H12.9C12.6791 9.9 12.5 10.0791 12.5 10.3V11.5Z"
  />
  <path
    d="M15.5 11.5C15.5 11.7209 15.6791 11.9 15.9 11.9H17.1C17.3209 11.9 17.5 11.7209 17.5 11.5V10.3C17.5 10.0791 17.3209 9.9 17.1 9.9H15.9C15.6791 9.9 15.5 10.0791 15.5 10.3V11.5Z"
  />
  <path
    d="M6.9 14.7C6.67909 14.7 6.5 14.5209 6.5 14.3V13.1C6.5 12.8791 6.67909 12.7 6.9 12.7H8.1C8.32091 12.7 8.5 12.8791 8.5 13.1V14.3C8.5 14.5209 8.32091 14.7 8.1 14.7H6.9Z"
  />
  <path
    d="M9.5 14.3C9.5 14.5209 9.67909 14.7 9.9 14.7H11.1C11.3209 14.7 11.5 14.5209 11.5 14.3V13.1C11.5 12.8791 11.3209 12.7 11.1 12.7H9.9C9.67909 12.7 9.5 12.8791 9.5 13.1V14.3Z"
  />
  <path
    d="M12.5 14.3C12.5 14.5209 12.6791 14.7 12.9 14.7H14.1C14.3209 14.7 14.5 14.5209 14.5 14.3V13.1C14.5 12.8791 14.3209 12.7 14.1 12.7H12.9C12.6791 12.7 12.5 12.8791 12.5 13.1V14.3Z"
  />
  <path
    d="M15.5 14.3C15.5 14.5209 15.6791 14.7 15.9 14.7H17.1C17.3209 14.7 17.5 14.5209 17.5 14.3V13.1C17.5 12.8791 17.3209 12.7 17.1 12.7H15.9C15.6791 12.7 15.5 12.8791 15.5 13.1V14.3Z"
  />
  <path
    d="M6.9 17.5C6.67909 17.5 6.5 17.3209 6.5 17.1V15.9C6.5 15.6791 6.67909 15.5 6.9 15.5H8.1C8.32091 15.5 8.5 15.6791 8.5 15.9V17.1C8.5 17.3209 8.32091 17.5 8.1 17.5H6.9Z"
  />
  <path
    d="M9.5 17.1C9.5 17.3209 9.67909 17.5 9.9 17.5H11.1C11.3209 17.5 11.5 17.3209 11.5 17.1V15.9C11.5 15.6791 11.3209 15.5 11.1 15.5H9.9C9.67909 15.5 9.5 15.6791 9.5 15.9V17.1Z"
  />
  <path
    d="M12.5 17.1C12.5 17.3209 12.6791 17.5 12.9 17.5H14.1C14.3209 17.5 14.5 17.3209 14.5 17.1V15.9C14.5 15.6791 14.3209 15.5 14.1 15.5H12.9C12.6791 15.5 12.5 15.6791 12.5 15.9V17.1Z"
  />
  <path
    d="M15.5 17.1C15.5 17.3209 15.6791 17.5 15.9 17.5H17.1C17.3209 17.5 17.5 17.3209 17.5 17.1V15.9C17.5 15.6791 17.3209 15.5 17.1 15.5H15.9C15.6791 15.5 15.5 15.6791 15.5 15.9V17.1Z"
  />
  <path fill-rule="evenodd" clip-rule="evenodd"
    d="M7 4.9V6.5H9V4.9C9 4.67909 9.17909 4.5 9.4 4.5H10.6C10.8209 4.5 11 4.67909 11 4.9V6.5H13V4.9C13 4.67909 13.1791 4.5 13.4 4.5H14.6C14.8209 4.5 15 4.67909 15 4.9V6.5H17V4.9C17 4.67909 17.1791 4.5 17.4 4.5H18.6C18.8209 4.5 19 4.67909 19 4.9V6.3H19.8C20.4627 6.3 21 6.83726 21 7.5V18.8C21 19.0209 20.8209 19.2 20.6 19.2L20 19.2C19.4477 19.2 19 19.6477 19 20.2V20.8C19 21.0209 18.8209 21.2 18.6 21.2H5.4C5.17909 21.2 5 21.0209 5 20.8V20.2C5 19.6477 4.55228 19.2 4 19.2L3.4 19.2C3.17909 19.2 3 19.0209 3 18.8V7.5C3 6.83726 3.53726 6.3 4.2 6.3H5V4.9C5 4.67909 5.17909 4.5 5.4 4.5H6.6C6.82091 4.5 7 4.67909 7 4.9ZM5 8.1L5 19.2L5 18.2C5 18.7518 5.44699 19.1993 5.99865 19.2L18 19.2C18.5523 19.2 19 18.7523 19 18.2V9.1C19 8.54787 18.5525 8.10026 18.0005 8.1L6 8.1C5.44772 8.1 5 8.54772 5 9.1L5 8.1Z"
  />
</svg>