<svg xmlns="http://www.w3.org/2000/svg" viewBox="0 0 24 24" fill="currentColor">
  <path
    d="M9.50041 16H14.5004V17.2C14.5004 17.6418 14.1422 18 13.7004 18L10.3004 18C9.85858 18 9.50041 17.6418 9.50041 17.2V16Z"
  />
  <path
    d="M9.50041 8L14.5004 8V6.8C14.5004 6.35818 14.1422 6 13.7004 6L10.3004 6.00001C9.85858 6.00001 9.50041 6.35818 9.50041 6.80001V8Z"
  />
  <path d="M9.59 16V17C9.59 16.4477 9.14229 16 8.59 16H9.59Z" />
  <path d="M9.59 16L9.59 15C9.59 15.5523 10.0377 16 10.59 16H9.59Z" />
  <path d="M7.59 14V15C7.59 14.4477 7.14229 14 6.59 14H7.59Z" />
  <path d="M7.59 14L7.59 13C7.59 13.5523 8.03772 14 8.59 14H7.59Z" />
  <path
    d="M7.59 14H9.19C9.41092 14 9.59 14.1791 9.59 14.4L9.59 16H7.99C7.76909 16 7.59 15.8209 7.59 15.6L7.59 14Z"
  />
  <path d="M9.59 8V7C9.59 7.55229 9.14229 8 8.59 8H9.59Z" />
  <path d="M9.59 8L9.59 9C9.59 8.44772 10.0377 8 10.59 8H9.59Z" />
  <path d="M7.59 10V9C7.59 9.55229 7.14229 10 6.59 10H7.59Z" />
  <path d="M7.59 10L7.59 11C7.59 10.4477 8.03772 10 8.59 10H7.59Z" />
  <path
    d="M9.59 9.6C9.59 9.82092 9.41092 10 9.19 10H7.59V8.4C7.59 8.17909 7.76909 8 7.99 8H9.59V9.6Z"
  />
  <path
    d="M7.59 10H6.39001C6.16909 10 5.99 10.1791 5.99 10.4V13.6C5.99 13.8209 6.16909 14 6.39 14H7.59V10Z"
  />
  <path d="M14.4109 16V17C14.4109 16.4477 14.8586 16 15.4109 16H14.4109Z" />
  <path d="M14.4109 16L14.4109 15C14.4109 15.5523 13.9631 16 13.4109 16H14.4109Z" />
  <path d="M16.4109 14V15C16.4109 14.4477 16.8586 14 17.4109 14H16.4109Z" />
  <path d="M16.4109 14L16.4109 13C16.4109 13.5523 15.9631 14 15.4109 14H16.4109Z" />
  <path
    d="M16.4109 14H14.8109C14.5899 14 14.4109 14.1791 14.4109 14.4V16H16.0109C16.2318 16 16.4109 15.8209 16.4109 15.6V14Z"
  />
  <path d="M14.4109 8V7C14.4109 7.55229 14.8586 8 15.4109 8H14.4109Z" />
  <path d="M14.4109 8L14.4109 9C14.4109 8.44772 13.9631 8 13.4109 8H14.4109Z" />
  <path d="M16.4109 10V9C16.4109 9.55229 16.8586 10 17.4109 10H16.4109Z" />
  <path d="M16.4109 10L16.4109 11C16.4109 10.4477 15.9631 10 15.4109 10H16.4109Z" />
  <path
    d="M14.4109 9.6C14.4109 9.82092 14.5899 10 14.8109 10H16.4109V8.4C16.4109 8.17909 16.2318 8 16.0109 8H14.4109V9.6Z"
  />
  <path
    d="M16.4109 10H17.6109C17.8318 10 18.0109 10.1791 18.0109 10.4V13.6C18.0109 13.8209 17.8318 14 17.6109 14H16.4109V10Z"
  />
  <path
    d="M11 19.4C11 19.1791 11.1791 19 11.4 19H12.6C12.8209 19 13 19.1791 13 19.4V21.6C13 21.8209 12.8209 22 12.6 22H11.4C11.1791 22 11 21.8209 11 21.6V19.4Z"
  />
  <path
    d="M11 2.4C11 2.17909 11.1791 2 11.4 2H12.6C12.8209 2 13 2.17909 13 2.4V4.6C13 4.82091 12.8209 5 12.6 5H11.4C11.1791 5 11 4.82091 11 4.6V2.4Z"
  />
  <path
    d="M6.0603 16.5255C6.21651 16.3693 6.46978 16.3693 6.62599 16.5255L7.47452 17.374C7.63073 17.5302 7.63073 17.7835 7.47452 17.9397L5.91888 19.4953C5.76267 19.6515 5.50941 19.6515 5.3532 19.4953L4.50467 18.6468C4.34846 18.4906 4.34846 18.2373 4.50467 18.0811L6.0603 16.5255Z"
  />
  <path
    d="M18.0811 4.50467C18.2373 4.34846 18.4906 4.34846 18.6468 4.50467L19.4953 5.3532C19.6515 5.50941 19.6515 5.76267 19.4953 5.91888L17.9397 7.47452C17.7835 7.63073 17.5302 7.63073 17.374 7.47452L16.5255 6.62599C16.3693 6.46978 16.3693 6.21651 16.5255 6.0603L18.0811 4.50467Z"
  />
  <path
    d="M16.5255 17.9397C16.3693 17.7835 16.3693 17.5302 16.5255 17.374L17.374 16.5255C17.5303 16.3693 17.7835 16.3693 17.9397 16.5255L19.4954 18.0811C19.6516 18.2373 19.6516 18.4906 19.4954 18.6468L18.6468 19.4953C18.4906 19.6515 18.2374 19.6515 18.0812 19.4953L16.5255 17.9397Z"
  />
  <path
    d="M4.50468 5.91889C4.34847 5.76268 4.34847 5.50941 4.50468 5.3532L5.35321 4.50468C5.50942 4.34847 5.76268 4.34847 5.91889 4.50468L7.47453 6.06031C7.63074 6.21652 7.63074 6.46979 7.47453 6.626L6.626 7.47452C6.46979 7.63073 6.21653 7.63073 6.06032 7.47452L4.50468 5.91889Z"
  />
  <path
    d="M4.2 11.0456C4.42091 11.0456 4.6 11.2246 4.6 11.4456L4.6 12.6456C4.6 12.8665 4.42091 13.0456 4.2 13.0456H2.4C2.17909 13.0456 2 12.8665 2 12.6456L2 11.4456C2 11.2246 2.17909 11.0456 2.4 11.0456H4.2Z"
  />
  <path
    d="M21.6 11.0456C21.8209 11.0456 22 11.2246 22 11.4456V12.6456C22 12.8665 21.8209 13.0456 21.6 13.0456H19.8C19.5791 13.0456 19.4 12.8665 19.4 12.6456V11.4456C19.4 11.2246 19.5791 11.0456 19.8 11.0456H21.6Z"
  />
</svg>