<svg xmlns="http://www.w3.org/2000/svg" viewBox="0 0 24 24" fill="currentColor">
  <path d="M14.6005 6.4501V7.2501C14.6005 6.80827 14.9587 6.4501 15.4005 6.4501L14.6005 6.4501Z"
  />
  <path
    d="M14.6005 6.4501L14.6005 5.6501C14.6005 6.09193 14.2423 6.4501 13.8005 6.4501L14.6005 6.4501Z"
  />
  <path d="M17.6005 6.4501V7.2501C17.6005 6.80827 17.2423 6.4501 16.8005 6.4501L17.6005 6.4501Z"
  />
  <path
    d="M17.6005 6.4501L17.6005 5.6501C17.6005 6.09193 17.9586 6.4501 18.4005 6.4501L17.6005 6.4501Z"
  />
  <path d="M14.6005 10.4501V11.2501C14.6005 10.8083 14.2423 10.4501 13.8005 10.4501H14.6005Z"
  />
  <path d="M14.6005 10.4501V9.6501C14.6005 10.0919 14.9586 10.4501 15.4005 10.4501H14.6005Z"
  />
  <path d="M17.6005 10.4501V11.2501C17.6005 10.8083 17.9587 10.4501 18.4005 10.4501H17.6005Z"
  />
  <path d="M17.6005 10.4501L17.6005 9.6501C17.6005 10.0919 17.2423 10.4501 16.8005 10.4501H17.6005Z"
  />
  <path
    d="M14.6005 5.2501C14.6005 5.02918 14.7796 4.8501 15.0005 4.8501H17.2005C17.4214 4.8501 17.6005 5.02918 17.6005 5.2501L17.6005 6.4501H14.6005L14.6005 5.2501Z"
  />
  <path
    d="M14.6005 10.4H17.6005V11.6C17.6005 11.8209 17.4214 12 17.2005 12H15.0005C14.7796 12 14.6005 11.8209 14.6005 11.6V10.4Z"
  />
  <path
    d="M13.4005 10.4501C13.1796 10.4501 13.0005 10.271 13.0005 10.0501V6.8501C13.0005 6.62918 13.1796 6.4501 13.4005 6.4501H14.6005L14.6005 10.4501H13.4005Z"
  />
  <path
    d="M17.6005 10.4501L17.6005 6.4501H18.8005C19.0214 6.4501 19.2005 6.62918 19.2005 6.8501V10.0501C19.2005 10.271 19.0214 10.4501 18.8005 10.4501H17.6005Z"
  />
  <path d="M5.5877 7.14385V7.84385C5.5877 7.45725 5.9011 7.14385 6.2877 7.14385L5.5877 7.14385Z"
  />
  <path d="M5.5877 7.14385L5.5877 6.44385C5.5877 6.83045 5.2743 7.14385 4.8877 7.14385H5.5877Z"
  />
  <path d="M8.2127 7.14385V7.84385C8.2127 7.45725 7.8993 7.14385 7.5127 7.14385H8.2127Z"
  />
  <path d="M8.2127 7.14385L8.2127 6.44385C8.2127 6.83045 8.5261 7.14385 8.9127 7.14385H8.2127Z"
  />
  <path d="M5.5877 10.6438V11.3439C5.5877 10.9573 5.2743 10.6438 4.8877 10.6438H5.5877Z"
  />
  <path d="M5.5877 10.6438L5.5877 9.94385C5.5877 10.3304 5.9011 10.6438 6.2877 10.6438H5.5877Z"
  />
  <path d="M8.2127 10.6438V11.3439C8.2127 10.9573 8.5261 10.6438 8.9127 10.6438H8.2127Z"
  />
  <path d="M8.2127 10.6438L8.2127 9.94385C8.2127 10.3304 7.8993 10.6438 7.5127 10.6438H8.2127Z"
  />
  <path
    d="M5.5877 6.09385C5.5877 5.90055 5.7444 5.74385 5.9377 5.74385H7.8627C8.056 5.74385 8.2127 5.90055 8.2127 6.09385L8.2127 7.14385H5.5877L5.5877 6.09385Z"
  />
  <path
    d="M5.5877 10.6H8.2127V11.65C8.2127 11.8433 8.056 12 7.8627 12H5.9377C5.7444 12 5.5877 11.8433 5.5877 11.65V10.6Z"
  />
  <path
    d="M4.5377 10.6438C4.3444 10.6438 4.1877 10.4871 4.1877 10.2938L4.1877 7.49385C4.1877 7.30055 4.3444 7.14385 4.5377 7.14385L5.5877 7.14385L5.5877 10.6438L4.5377 10.6438Z"
  />
  <path
    d="M8.2127 10.6438L8.2127 7.14385L9.2627 7.14385C9.456 7.14385 9.6127 7.30055 9.6127 7.49385V10.2938C9.6127 10.4871 9.456 10.6438 9.2627 10.6438L8.2127 10.6438Z"
  />
  <path
    d="M13.4002 13.0499C13.4002 12.829 13.5793 12.6499 13.8002 12.6499H18.4002C18.6211 12.6499 18.8002 12.829 18.8002 13.0499V14.2499H13.4002V13.0499Z"
  />
  <path
    d="M13.4002 14.2499L13.4002 15.0499C13.4002 14.6081 13.7584 14.2499 14.2002 14.2499H13.4002Z"
  />
  <path d="M13.4002 14.2499L13.4002 13.4499C13.4002 13.8918 13.042 14.2499 12.6002 14.2499H13.4002Z"
  />
  <path
    d="M11.8002 15.8499V16.6499C11.8002 16.2081 12.1584 15.8499 12.6002 15.8499L11.8002 15.8499Z"
  />
  <path
    d="M11.8002 15.8499L11.8002 15.0499C11.8002 15.4918 11.442 15.8499 11.0002 15.8499L11.8002 15.8499Z"
  />
  <path
    d="M11.8002 15.8499V14.6499C11.8002 14.429 11.9793 14.2499 12.2002 14.2499H13.4002L13.4002 15.4499C13.4002 15.6709 13.2211 15.8499 13.0002 15.8499H11.8002Z"
  />
  <path
    d="M10.6002 18.6499C10.3793 18.6499 10.2002 18.4709 10.2002 18.2499V16.2499C10.2002 16.029 10.3793 15.8499 10.6002 15.8499H11.8002V18.2499C11.8002 18.4709 11.6211 18.6499 11.4002 18.6499H10.6002Z"
  />
  <path d="M18.8002 14.2499L18.8002 15.0499C18.8002 14.6081 18.442 14.2499 18.0002 14.2499H18.8002Z"
  />
  <path
    d="M18.8002 14.2499L18.8002 13.4499C18.8002 13.8918 19.1584 14.2499 19.6002 14.2499H18.8002Z"
  />
  <path d="M20.4002 15.8499V16.6499C20.4002 16.2081 20.042 15.8499 19.6002 15.8499L20.4002 15.8499Z"
  />
  <path
    d="M20.4002 15.8499V15.0499C20.4002 15.4918 20.7584 15.8499 21.2002 15.8499L20.4002 15.8499Z"
  />
  <path
    d="M20.4002 15.8499V14.6499C20.4002 14.429 20.2211 14.2499 20.0002 14.2499H18.8002L18.8002 15.4499C18.8002 15.6709 18.9793 15.8499 19.2002 15.8499H20.4002Z"
  />
  <path
    d="M21.6002 18.6499C21.8211 18.6499 22.0002 18.4709 22.0002 18.2499V16.2499C22.0002 16.029 21.8211 15.8499 21.6002 15.8499H20.4002V18.2499C20.4002 18.4709 20.5793 18.6499 20.8002 18.6499H21.6002Z"
  />
  <path
    d="M5.20048 13.05C5.20048 12.829 5.37957 12.65 5.60048 12.65H8.20048C8.4214 12.65 8.60048 12.829 8.60048 13.05V14.25H5.20048V13.05Z"
  />
  <path d="M5.20048 14.25L5.20049 15.05C5.20049 14.6081 5.55866 14.25 6.00049 14.25H5.20048Z"
  />
  <path d="M5.20048 14.25L5.20049 13.45C5.20049 13.8918 4.84232 14.25 4.40049 14.25H5.20048Z"
  />
  <path d="M3.60049 15.85L3.60049 16.65C3.60049 16.2081 3.95866 15.85 4.40049 15.85L3.60049 15.85Z"
  />
  <path d="M3.60049 15.85L3.60049 15.05C3.60049 15.4918 3.24232 15.85 2.80049 15.85L3.60049 15.85Z"
  />
  <path
    d="M3.60049 15.85L3.60049 14.65C3.60049 14.429 3.77957 14.25 4.00049 14.25H5.20048L5.20049 15.45C5.20049 15.6709 5.0214 15.85 4.80049 15.85H3.60049Z"
  />
  <path
    d="M2.40049 18.65C2.17957 18.65 2.00049 18.4709 2.00049 18.25L2.00049 16.25C2.00049 16.029 2.17957 15.85 2.40049 15.85H3.60049L3.60049 18.25C3.60049 18.4709 3.4214 18.65 3.20049 18.65H2.40049Z"
  />
  <path d="M8.60048 14.25L8.60049 15.05C8.60049 14.6081 8.24232 14.25 7.80049 14.25H8.60048Z"
  />
  <path d="M8.60048 14.25L8.60049 13.45C8.60049 13.8918 8.95866 14.25 9.40049 14.25H8.60048Z"
  />
  <path d="M10.2005 15.85V16.65C10.2005 16.2081 9.84232 15.85 9.40049 15.85L10.2005 15.85Z"
  />
  <path
    d="M10.2005 15.85L10.2005 15.05C10.2005 15.4918 10.5584 15.8499 11.0002 15.8499L10.2005 15.85Z"
  />
  <path
    d="M10.2005 15.85V14.65C10.2005 14.429 10.0214 14.25 9.80049 14.25H8.60048L8.60049 15.45C8.60049 15.6709 8.77958 15.85 9.00049 15.85H10.2005Z"
  />
  <path
    d="M11.4002 18.6499C11.6211 18.6499 11.8002 18.4709 11.8002 18.2499L11.8005 16.25C11.8005 16.029 11.6214 15.85 11.4005 15.85H10.2005L10.2002 18.2499C10.2002 18.4709 10.3793 18.6499 10.6002 18.6499H11.4002Z"
  />
</svg>