<svg xmlns="http://www.w3.org/2000/svg" viewBox="0 0 24 24" fill="currentColor">
  <path fill-rule="evenodd" clip-rule="evenodd"
    d="M19 2.05212C18.7239 2.05212 18.5 2.27598 18.5 2.55212V3.00002L16.9 3.00002C16.6791 3.00002 16.5 3.17911 16.5 3.40002V4.00002L18.5 4.00002L18.5 11.6511H16.9C16.6791 11.6511 16.5 11.8302 16.5 12.0511V12.4511C16.5 12.5616 16.5896 12.6511 16.7 12.6511L16.75 12.6511V14.7676C16.3187 14.6566 16 14.265 16 13.7991V13.1991C16 12.9782 15.8209 12.7991 15.6 12.7991H15.5V10L16.6 10C16.8209 10 17 9.82091 17 9.6V9.2C17 9.08954 16.9105 9 16.8 9V8C16.9105 8 17 7.91046 17 7.8V7.4C17 7.17909 16.8209 7 16.6 7L13.4 7C13.1791 7 13 7.17909 13 7.4V7.8C13 7.91046 13.0896 8 13.2 8L13.2 9C13.0896 9 13 9.08954 13 9.2V9.6C13 9.82091 13.1791 10 13.4 10L14.5 10V12.6653C14.2011 12.4924 14 12.1692 14 11.7991V11.1991C14 10.9782 13.8209 10.7991 13.6 10.7991H10.4C10.3862 10.7991 10.3726 10.7998 10.3591 10.8012C10.1574 10.8216 10 10.992 10 11.1991L10 11.7991C10 12.3514 9.55229 12.7991 9.00001 12.7991L9.00001 10.5H10.1C10.3209 10.5 10.5 10.3209 10.5 10.1V9.7C10.5 9.58954 10.4105 9.5 10.3 9.5V8.5C10.4105 8.5 10.5 8.41046 10.5 8.3V7.9C10.5 7.67909 10.3209 7.5 10.1 7.5L6.90001 7.5C6.67909 7.5 6.50001 7.67909 6.50001 7.9V8.3C6.50001 8.41046 6.58955 8.5 6.70001 8.5V9.5C6.58955 9.5 6.50001 9.58954 6.50001 9.7V10.1C6.50001 10.3209 6.67909 10.5 6.90001 10.5H8.00001L8.00001 13.7991C8.00001 14.265 7.68131 14.6566 7.25001 14.7676V12.6511H7.30001C7.41047 12.6511 7.50001 12.5615 7.50001 12.4511V12.0511C7.50001 11.8302 7.32092 11.6511 7.10001 11.6511H5.50003L5.50003 6.64141H7.50001V6.04141C7.50001 5.82049 7.32092 5.64141 7.10001 5.64141L5.50003 5.64141V5.49597C5.50003 5.21983 5.27617 4.99597 5.00003 4.99597C4.72389 4.99597 4.50003 5.21983 4.50003 5.49597V5.64141L2.90001 5.64141C2.67909 5.64141 2.50001 5.82049 2.50001 6.04141L2.50001 6.64141H4.50003L4.50003 11.6511H2.90001C2.67909 11.6511 2.50001 11.8302 2.50001 12.0511L2.50001 12.4511C2.50001 12.5615 2.58955 12.6511 2.70001 12.6511H2.75001L2.75001 16.1511C2.63955 16.1511 2.55001 16.2406 2.55001 16.3511L2.55001 16.7511C2.55001 16.972 2.72909 17.1511 2.95001 17.1511H4.50003L4.50003 18.0648C4.49964 18.4271 4.38351 18.7798 4.16857 19.0715L2.59752 21.2034C2.4337 21.4257 2.48111 21.7387 2.70341 21.9025C2.92571 22.0663 3.23873 22.0189 3.40254 21.7966L4.9736 19.6647C4.98252 19.6526 4.99132 19.6404 5.00003 19.6282C5.00873 19.6404 5.01755 19.6526 5.02647 19.6647L6.59752 21.7966C6.76134 22.0189 7.07435 22.0663 7.29665 21.9025C7.51895 21.7387 7.56636 21.4257 7.40254 21.2034L5.83149 19.0715C5.61618 18.7793 5.50003 18.4259 5.50003 18.063L5.50003 17.1511H6.00001V17.7013C6.00001 17.9222 6.17909 18.1012 6.40001 18.1012H7.1799C7.64633 18.186 8.00001 18.5942 8.00001 19.0851L8.00001 22.0912H9.00001L9.00001 20.0851C9.55229 20.0851 10 20.5328 10 21.0851L10 21.6851C10 21.8922 10.1574 22.0626 10.3591 22.083C10.3726 22.0844 10.3862 22.0851 10.4 22.0851H13.6C13.8209 22.0851 14 21.906 14 21.6851V21.0851C14 20.5328 14.4477 20.0851 15 20.0851L15.6 20.0851C15.8209 20.0851 16 19.906 16 19.6851V19.0851C16 18.5942 16.3537 18.186 16.8201 18.1012H17.6C17.8209 18.1012 18 17.9222 18 17.7013V17.1511H18.5L18.5 18.063C18.5 18.4259 18.3839 18.7793 18.1686 19.0715L16.5975 21.2034C16.4337 21.4257 16.4811 21.7387 16.7034 21.9025C16.9257 22.0664 17.2387 22.0189 17.4026 21.7966L18.9736 19.6647C18.9825 19.6526 18.9913 19.6405 19 19.6282L19.0164 19.651L19.0265 19.6647L20.5975 21.7966C20.7614 22.0189 21.0744 22.0664 21.2967 21.9025C21.519 21.7387 21.5664 21.4257 21.4026 21.2034L19.8315 19.0715C19.6162 18.7793 19.5 18.4259 19.5 18.063L19.5 17.1511H21.1001C21.321 17.1511 21.5001 16.972 21.5001 16.7511V16.3511C21.5001 16.2406 21.4105 16.1511 21.3001 16.1511H21.25V12.6511L21.3 12.6511C21.4105 12.6511 21.5 12.5616 21.5 12.4511V12.0511C21.5 11.8302 21.3209 11.6511 21.1 11.6511H19.5L19.5 4.00002L21.5 4.00002V3.40002C21.5 3.17911 21.321 3.00002 21.1 3.00002L19.5 3.00002V2.55212C19.5 2.27598 19.2762 2.05212 19 2.05212ZM9.60001 18.0851C9.82092 18.0851 10 18.2642 10 18.4851V20.0851L10 19.0851C10 19.6367 10.4467 20.084 10.998 20.0851H13C13.5523 20.0851 14 19.6374 14 19.0851L14 20.0851V18.4851C14 18.2642 14.1791 18.0851 14.4 18.0851L15 18.0851C15.5523 18.0851 16 17.6374 16 17.0851L16 18.0851V14.7991L16 15.7991C16 15.2468 15.5523 14.7991 15 14.7991L14.4 14.7991C14.1791 14.7991 14 14.62 14 14.3991V12.7991L14 13.7991C14 13.2468 13.5523 12.7991 13 12.7991H11C10.4477 12.7991 10 13.2468 10 13.7991V12.7991L10 14.3991C10 14.62 9.82092 14.7991 9.60001 14.7991L9.00002 14.7991C8.44773 14.7991 8.00002 15.2468 8.00002 15.7991V14.7991L8.00001 18.0851L8.00002 17.0851C8.00002 17.6374 8.44773 18.0851 9.00002 18.0851H9.60001Z"
  />
</svg>