<svg xmlns="http://www.w3.org/2000/svg" viewBox="0 0 24 24" fill="currentColor">
  <path fill-rule="evenodd" clip-rule="evenodd"
    d="M4.51562 2.70005C4.51562 2.47914 4.69471 2.30005 4.91563 2.30005H6.11563C6.33654 2.30005 6.51562 2.47914 6.51562 2.70005V9.30005L6.51563 8.30005C6.51563 8.85233 6.96334 9.30005 7.51563 9.30005V2.70005C7.51563 2.47913 7.69471 2.30005 7.91563 2.30005H9.11563C9.33654 2.30005 9.51563 2.47913 9.51563 2.70005V9.30005C10.0674 9.30005 10.5149 8.85309 10.5156 8.30145V2.70005C10.5156 2.47913 10.6947 2.30005 10.9156 2.30005H12.1156C12.3365 2.30005 12.5156 2.47913 12.5156 2.70005V8.90005C12.5156 9.12096 12.3365 9.30005 12.1156 9.30005H11.5156C11.086 9.30005 10.7197 9.57097 10.5781 9.95128V10.9C10.5781 11.121 10.399 11.3 10.1781 11.3H9.54688V21.3C9.54688 21.521 9.36779 21.7 9.14688 21.7H7.94688C7.72596 21.7 7.54688 21.521 7.54688 21.3V11.3H6.91563C6.69472 11.3 6.51563 11.121 6.51563 10.9V10.3C6.51563 9.74776 6.06791 9.30005 5.51563 9.30005H4.91562C4.69471 9.30005 4.51562 9.12096 4.51562 8.90005V2.70005ZM19.4844 2.70005C19.4844 2.47913 19.3053 2.30005 19.0844 2.30005H17.4844H15.8844C15.6635 2.30005 15.4844 2.47913 15.4844 2.70005L15.4844 3.30005L15.4844 3.30145C15.4836 3.85309 15.0362 4.30005 14.4844 4.30005H13.8844C13.6635 4.30005 13.4844 4.47914 13.4844 4.70005V10.9C13.4844 11.121 13.6635 11.3 13.8844 11.3H14.4844C15.0367 11.3 15.4844 11.7478 15.4844 12.3V21.3C15.4844 21.521 15.6635 21.7 15.8844 21.7H17.0844C17.3053 21.7 17.4844 21.521 17.4844 21.3V11.3H19.0844C19.3053 11.3 19.4844 11.121 19.4844 10.9V2.70005ZM17.4844 11.3H16.4844C15.9326 11.3 15.4851 10.8531 15.4844 10.3014L15.4844 10.3L15.4844 5.30005C15.4844 4.74776 15.9321 4.30005 16.4844 4.30005H17.4844V11.3Z"
  />
</svg>