<svg xmlns="http://www.w3.org/2000/svg" viewBox="0 0 24 24" fill="currentColor">
  <path
    d="M16.332 3.2142C16.1758 3.05799 15.9225 3.05799 15.7663 3.2142L3.74549 15.235C3.58928 15.3912 3.58928 15.6445 3.74549 15.8007L4.03201 16.0872C4.33954 16.3987 4.33956 16.8997 4.03206 17.2112L3.68894 17.5543C3.56397 17.6793 3.56397 17.8819 3.68894 18.0069L4.59403 18.912L4.02836 18.3463C4.33933 18.6573 4.34077 19.1605 4.03269 19.4733L3.68894 19.817C3.56397 19.942 3.56397 20.1446 3.68894 20.2696L4.36776 20.9484C4.49273 21.0734 4.69534 21.0734 4.82031 20.9484L5.16235 20.6064C5.47345 20.2981 5.97459 20.2975 6.28648 20.6045L6.63046 20.9484C6.75543 21.0734 6.95804 21.0734 7.08301 20.9484L7.98811 20.0433L7.08301 19.1383C6.95804 19.0133 6.75543 19.0133 6.63046 19.1383L5.7254 20.0433L6.29107 19.4776C5.9801 19.7886 5.47683 19.7901 5.16407 19.482L5.15628 19.4742C4.84732 19.1615 4.84847 18.6576 5.15973 18.3463L4.59403 18.912L5.49913 18.0069C5.6241 17.8819 5.6241 17.6793 5.49913 17.5543L4.59404 16.6492L17.1805 4.06273L16.332 3.2142Z"
  />
  <path
    d="M18.029 3.2142C18.1853 3.05799 18.4385 3.05799 18.5947 3.2142L21.4232 6.04263C21.5794 6.19884 21.5794 6.45211 21.4232 6.60832L20.5747 7.45682L20.009 8.02252C20.3195 7.71201 20.3214 7.20975 20.0147 6.89689L17.7405 4.62271C17.4276 4.31599 16.9254 4.31789 16.6149 4.6284L17.1805 4.06273L16.6149 3.49705C16.9261 3.80825 17.4299 3.80946 17.7426 3.50069L18.029 3.2142Z"
  />
  <path
    d="M21.4232 8.87105L9.40239 20.8919C9.24618 21.0481 8.99292 21.0481 8.83671 20.8919L7.98811 20.0433L20.5747 7.45682L21.1403 6.89116C20.8294 7.20208 20.8279 7.70525 21.1359 8.01802L21.4232 8.30536C21.5794 8.46157 21.5794 8.71484 21.4232 8.87105Z"
  />
  <path d="M15.7664 5.47692L14.635 6.60829L18.0291 10.0024L19.1605 8.87104L15.7664 5.47692Z"
  />
  <path
    d="M7.98811 20.0433L7.42244 19.4776C7.73486 19.7901 8.2414 19.7901 8.55381 19.4776L7.98811 20.0433Z"
  />
  <path
    d="M8.55381 20.609L7.98811 20.0433L7.42244 20.609C7.73486 20.2966 8.24139 20.2966 8.55381 20.609Z"
  />
  <path
    d="M5.15975 17.2149L4.59404 16.6492L5.15975 16.0835C4.84733 16.3959 4.84733 16.9025 5.15975 17.2149Z"
  />
</svg>