<svg xmlns="http://www.w3.org/2000/svg" viewBox="0 0 24 24" fill="currentColor">
  <path
    d="M18.6815 3.77809L17.2351 2.3317C16.9922 2.08877 17.1623 1.67328 17.5059 1.67049L20.5905 1.64541C20.8078 1.64365 21.0167 1.72919 21.1703 1.88285C21.1787 1.89122 21.1869 1.89974 21.1948 1.90841C21.201 1.9139 21.2071 1.91962 21.213 1.92556L22.0616 2.77408C22.2178 2.93029 22.2178 3.18356 22.0616 3.33977L15.9808 9.4205L16.6879 8.71377C16.2976 9.10405 16.2974 9.73665 16.6872 10.1272L17.1122 10.5522C17.2684 10.7085 17.2684 10.9617 17.1122 11.1179L15.5565 12.6736C15.166 13.0641 15.166 13.6973 15.5565 14.0878L15.9808 14.512C16.137 14.6683 16.137 14.9215 15.9808 15.0777L14.8494 16.2091C14.4589 16.5996 14.4589 17.2328 14.8494 17.6233L15.2737 18.0476C15.4299 18.2038 15.4299 18.4571 15.2737 18.6133L11.5967 22.2902C11.4405 22.4464 11.1873 22.4464 11.031 22.2902L10.5891 21.8483C10.1973 21.4755 9.57754 21.4814 9.193 21.8659L9.89989 21.1591L8.7687 22.2902C8.61249 22.4464 8.35922 22.4464 8.20301 22.2902L7.35448 21.4417C7.19827 21.2855 7.19827 21.0322 7.35448 20.876L7.77876 20.4517L7.78134 20.4491C8.16908 20.0586 8.16842 19.4278 7.77934 19.0381L7.35449 18.6132C7.19828 18.457 7.19828 18.2038 7.35449 18.0476L7.7787 17.6233C8.16923 17.2328 8.16923 16.5997 7.7787 16.2091C7.38817 15.8186 6.75501 15.8186 6.36448 16.2091L5.94026 16.6333C5.78405 16.7895 5.53079 16.7895 5.37458 16.6333L4.95031 16.2091C4.56093 15.8197 3.93031 15.8186 3.53952 16.2057L3.5361 16.2091L3.11185 16.6333C2.95564 16.7896 2.70237 16.7896 2.54616 16.6333L1.69763 15.7848C1.54142 15.6286 1.54142 15.3753 1.69763 15.2191L2.1219 14.7949C2.50661 14.4101 2.51233 13.79 2.13906 13.3982L1.69724 12.9564C1.54103 12.8002 1.54103 12.5469 1.69724 12.3907L5.37419 8.71377C5.5304 8.55756 5.78367 8.55756 5.93988 8.71377L6.36489 9.13878C6.75469 9.52778 7.38555 9.52831 7.77601 9.14037L7.77835 9.13803L8.90969 8.00667C9.0659 7.85046 9.31917 7.85046 9.47538 8.00667L9.89964 8.43094L9.90162 8.43291C10.2923 8.82146 10.924 8.8208 11.3139 8.43094L10.6068 9.13804L11.3139 9.84515C10.9238 9.45512 10.2918 9.45463 9.90112 9.84367L8.76827 10.9765C8.61206 11.1327 8.3588 11.1327 8.20259 10.9765L7.77312 10.5471C7.38219 10.1617 6.75292 10.1635 6.36414 10.5522L2.82881 14.0876L3.53611 13.3807C3.14558 13.7712 3.14558 14.4043 3.53611 14.7949L3.53696 14.7957C3.92717 15.185 4.55886 15.1851 4.94919 14.796L5.37458 14.3706C5.53079 14.2144 5.78405 14.2144 5.94026 14.3706L6.37293 14.8033C6.76409 15.1854 7.39098 15.1826 7.7787 14.7949L7.92012 14.6535C8.07633 14.4973 8.3296 14.4973 8.48581 14.6535L9.33434 15.502C9.49055 15.6582 9.49055 15.9115 9.33434 16.0677L9.19292 16.2091C8.80519 16.5969 8.80241 17.2238 9.18458 17.6149L9.61723 18.0476C9.77344 18.2038 9.77344 18.457 9.61723 18.6132L9.1918 19.0387C8.80244 19.4293 8.80284 20.0616 9.19297 20.4517C9.57766 20.8364 10.1978 20.8422 10.5895 20.469L13.4516 17.6069C13.8209 17.2206 13.8207 16.6113 13.4513 16.2252L13.0109 15.7848C12.8547 15.6286 12.8547 15.3754 13.0109 15.2192L14.1601 14.07C14.5274 13.6843 14.5275 13.0773 14.1603 12.6915L13.7181 12.2493C13.5618 12.0931 13.5618 11.8398 13.7181 11.6836L15.2928 10.1089C15.6569 9.72513 15.6584 9.12337 15.2974 8.7378L15.2575 8.69798C14.8659 8.32332 14.2447 8.32858 13.8595 8.71377L12.3038 10.2694C12.1476 10.4256 11.8944 10.4256 11.7382 10.2694L10.6068 9.13804L12.8695 6.87529C13.0257 6.71908 13.279 6.71908 13.4352 6.87529L13.8595 7.29956C14.2449 7.68433 14.8666 7.68982 15.258 7.31487L18.7395 3.83336C18.7199 3.81556 18.7006 3.79714 18.6815 3.77809Z"
  />
  <path
    d="M11.5966 16.7747L11.8794 17.0575C12.0356 17.2137 12.0356 17.467 11.8794 17.6232L11.5966 17.9061C11.4403 18.0623 11.1871 18.0623 11.0309 17.9061L10.748 17.6232C10.5918 17.467 10.5918 17.2137 10.748 17.0575L11.0309 16.7747C11.1871 16.6185 11.4403 16.6185 11.5966 16.7747Z"
  />
  <path
    d="M11.6673 14.8655C11.5111 14.7093 11.2578 14.7093 11.1016 14.8655L10.8187 15.1484C10.6625 15.3046 10.6625 15.5578 10.8187 15.714L11.1016 15.9969C11.2578 16.1531 11.5111 16.1531 11.6673 15.9969L11.9501 15.714C12.1063 15.5578 12.1063 15.3046 11.9501 15.1484L11.6673 14.8655Z"
  />
  <path
    d="M11.1723 12.9563C11.3285 12.8001 11.5817 12.8001 11.7379 12.9563L12.0208 13.2392C12.177 13.3954 12.177 13.6486 12.0208 13.8048L11.7379 14.0877C11.5817 14.2439 11.3285 14.2439 11.1723 14.0877L10.8894 13.8048C10.7332 13.6486 10.7332 13.3954 10.8894 13.2392L11.1723 12.9563Z"
  />
</svg>