<svg xmlns="http://www.w3.org/2000/svg" viewBox="0 0 24 24" fill="currentColor">
  <path
    d="M7.6 6.30005C7.82091 6.30005 8 6.47913 8 6.70005L8 10.1H6.4C6.17909 10.1 6 9.92096 6 9.70005V6.70005C6 6.47913 6.17909 6.30005 6.4 6.30005H7.6Z"
  />
  <path
    d="M6 13.1001C6 12.8792 5.82091 12.7001 5.6 12.7001H4.4C4.17909 12.7001 4 12.8792 4 13.1001V17.1001C4 17.321 4.17909 17.5001 4.4 17.5001H5.01225C5.55889 17.5066 6 17.9518 6 18.5V19.1C6 19.3209 6.17909 19.5 6.4 19.5H17.6C17.8209 19.5 18 19.3209 18 19.1V18.5C18 17.9518 18.4411 17.5066 18.9878 17.5001H19.6C19.8209 17.5001 20 17.321 20 17.1001V13.1001C20 12.8792 19.8209 12.7001 19.6 12.7001H18.4C18.1791 12.7001 18 12.8792 18 13.1001V16.5C18 17.0523 17.5523 17.5 17 17.5H7C6.44772 17.5 6 17.0523 6 16.5V13.1001Z"
  />
  <path
    d="M18 6.70005C18 6.47913 17.8209 6.30005 17.6 6.30005H16.4C16.1791 6.30005 16 6.47913 16 6.70005V9.70005C16 9.92096 16.1791 10.1 16.4 10.1H18V6.70005Z"
  />
  <path
    d="M11 6.70005C11 6.47913 11.1791 6.30005 11.4 6.30005H12.6C12.8209 6.30005 13 6.47913 13 6.70005V13.7C13 13.921 12.8209 14.1 12.6 14.1L11 14.1L11 6.70005Z"
  />
</svg>