<svg xmlns="http://www.w3.org/2000/svg" viewBox="0 0 24 24" fill="currentColor">
  <path fill-rule="evenodd" clip-rule="evenodd"
    d="M5 3.4C5 3.17909 5.17909 3 5.4 3H10.6C10.8209 3 11 3.17909 11 3.4V3.7C11 4.25228 11.4477 4.7 12 4.7C12.5523 4.7 13 4.25228 13 3.7V3.4C13 3.17909 13.1791 3 13.4 3H18.6C18.8209 3 19 3.17909 19 3.4V3.7C19 4.25228 19.4477 4.7 20 4.7H20.6C20.8209 4.7 21 4.87909 21 5.1V13C21 13.2209 20.8209 13.4 20.6 13.4H19.9989C19.4471 13.4006 19 13.8481 19 14.4V15C19 15.2209 18.8209 15.4 18.6 15.4H18C17.4477 15.4 17 15.8477 17 16.4V17C17 17.2209 16.8209 17.4 16.6 17.4H16C15.4477 17.4 15 17.8477 15 18.4V19C15 19.2209 14.8209 19.4 14.6 19.4H13.5636C13.23 19.5621 13 19.9042 13 20.3V20.6C13 20.8209 12.8209 21 12.6 21H11.4C11.1791 21 11 20.8209 11 20.6V20.3C11 19.9042 10.77 19.5621 10.4364 19.4H9.4C9.17909 19.4 9 19.2209 9 19V18.4C9 17.8477 8.55228 17.4 8 17.4H7.4C7.17909 17.4 7 17.2209 7 17V16.4C7 15.8477 6.55228 15.4 6 15.4H5.4C5.17909 15.4 5 15.2209 5 15V14.4C5 13.8482 4.55304 13.4008 4.0014 13.4H3.4C3.17909 13.4 3 13.2209 3 13V5.1C3 4.87909 3.17909 4.7 3.4 4.7H4C4.55228 4.7 5 4.25228 5 3.7V3.4ZM13 5.7V6.3C13 6.52091 12.8209 6.7 12.6 6.7H11.4C11.1791 6.7 11 6.52091 11 6.3V5.7C11 5.14772 10.5523 4.7 10 4.7H6C5.44772 4.7 5 5.14772 5 5.7V12.4C5 12.9523 5.44772 13.4 6 13.4H6.6C6.82091 13.4 7 13.5791 7 13.8V14.4C7 14.9523 7.44772 15.4 8 15.4H8.6C8.82091 15.4 9 15.5791 9 15.8V16.4C9 16.9523 9.44772 17.4 10 17.4H10.6C10.8209 17.4 11 17.5791 11 17.8V18.3C11 18.8516 11.4466 19.2989 11.998 19.3L12 19.3C12.5523 19.3 13 18.8523 13 18.3V17.8C13 17.5791 13.1791 17.4 13.4 17.4H14C14.5523 17.4 15 16.9523 15 16.4V15.8C15 15.5791 15.1791 15.4 15.4 15.4H16C16.5523 15.4 17 14.9523 17 14.4V13.8C17 13.5791 17.1791 13.4 17.4 13.4H18C18.5523 13.4 19 12.9523 19 12.4V5.7C19 5.14772 18.5523 4.7 18 4.7H14C13.4477 4.7 13 5.14772 13 5.7Z"
  />
</svg>