<svg xmlns="http://www.w3.org/2000/svg" viewBox="0 0 24 24" fill="currentColor">
  <path fill-rule="evenodd" clip-rule="evenodd"
    d="M9.9 4.40002C10.1209 4.40002 10.3 4.57911 10.3 4.80002V5.40002C10.3 5.95231 10.7477 6.40002 11.3 6.40002L19.6 6.40002C19.8209 6.40002 20 6.57911 20 6.80002V7.40002C20 7.95231 20.4477 8.40002 21 8.40002H21.6C21.8209 8.40002 22 8.57911 22 8.80002V17.8C22 18.0209 21.8209 18.2 21.6 18.2H21C20.4477 18.2 20 18.6477 20 19.2V19.8C20 20.0209 19.8209 20.2 19.6 20.2H4.4C4.17909 20.2 4 20.0209 4 19.8V19.2C4 18.6477 3.55228 18.2 3 18.2L2.4 18.2C2.17909 18.2 2 18.0209 2 17.8V6.70002C2 6.47911 2.17909 6.30002 2.4 6.30002L3 6.30002C3.55206 6.29976 4 5.85214 4 5.30002V4.80002C4 4.57911 4.17909 4.40002 4.4 4.40002H9.9ZM4 7.30002V17.2C4 17.7523 4.44772 18.2 5 18.2H19C19.5523 18.2 20 17.7523 20 17.2V9.40002C20 8.84774 19.5523 8.40002 19 8.40002H10.7C10.4791 8.40002 10.3 8.22094 10.3 8.00002V7.40002C10.3 6.84774 9.85228 6.40002 9.3 6.40002L4.56359 6.40002C4.22997 6.56209 4 6.9042 4 7.30002Z"
  />
</svg>