<svg xmlns="http://www.w3.org/2000/svg" viewBox="0 0 24 24" fill="currentColor">
  <path
    d="M4.85742 15.6475C4.85402 15.4529 5.00901 15.2924 5.2036 15.289L11.5456 15.1783C11.7401 15.1749 11.9006 15.3299 11.904 15.5245L11.9409 17.6385L5.24665 17.7553C5.05206 17.7587 4.89157 17.6037 4.88817 17.4091L4.85742 15.6475Z"
  />
  <path
    d="M10.7289 19.897C10.5715 19.7827 10.5366 19.5623 10.651 19.4048L14.3792 14.2733C14.4936 14.1159 14.714 14.081 14.8714 14.1953L16.5819 15.4381L12.6466 20.8547C12.5322 21.0122 12.3118 21.0471 12.1543 20.9327L10.7289 19.897Z"
  />
  <path
    d="M11.0735 17.653C11.6695 17.6492 11.6122 18.0438 11.5048 18.2345L11.9355 17.6375L11.0735 17.653Z"
  />
  <path
    d="M8.35477 15.2351C7.79952 15.2446 7.92162 14.9319 8.05254 14.7566L7.47322 15.2524L8.35477 15.2351Z"
  />
  <path
    d="M7.03065 14.6986C7.15606 14.8665 7.17131 15.2409 6.68438 15.2638L6.6172 15.2647C6.64059 15.2651 6.66297 15.2648 6.68438 15.2638L7.50896 15.2524L7.03065 14.6986Z"
  />
  <path
    d="M12.3638 17.0486C12.029 17.3979 11.9553 17.1233 11.928 16.9062L11.941 17.6375L12.3638 17.0486Z"
  />
  <path
    d="M16.052 16.1654L16.5805 15.4374L16.8191 16.407C16.6631 15.8221 16.3027 15.8711 16.052 16.1654Z"
  />
  <path
    d="M16.3581 14.557L16.5829 15.445L15.8298 14.8912C16.3581 15.2257 16.417 14.933 16.3581 14.557Z"
  />
  <path
    d="M17.5216 17.6432C17.3333 17.6925 17.1407 17.5799 17.0914 17.3916L15.4849 11.2555C15.4356 11.0672 15.5482 10.8747 15.7365 10.8254L17.7819 10.2899L19.4777 16.7668C19.527 16.9551 19.4143 17.1477 19.226 17.197L17.5216 17.6432Z"
  />
  <path
    d="M20.2629 10.9337C20.189 11.1137 19.9831 11.1997 19.8031 11.1258L13.9357 8.71604C13.7557 8.6421 13.6697 8.43623 13.7436 8.2562L14.5469 6.30042L20.7402 8.84403C20.9202 8.91797 21.0062 9.12385 20.9323 9.30387L20.2629 10.9337Z"
  />
  <path
    d="M18.001 11.1293C17.8564 10.551 18.2534 10.5135 18.4641 10.5727L17.7821 10.2954L18.001 11.1293Z"
  />
  <path
    d="M17.1088 10.0183C17.5273 10.2612 17.2778 10.3976 17.0734 10.4755L17.7809 10.2901L17.1088 10.0183Z"
  />
  <path
    d="M15.3788 6.64345L14.5466 6.30196L15.4323 5.84098C14.9008 6.13077 15.0336 6.46938 15.3788 6.64345Z"
  />
  <path
    d="M13.7437 6.7262L14.5534 6.29791L14.1932 7.16049C14.3934 6.56815 14.0951 6.58011 13.7437 6.7262Z"
  />
  <path
    d="M16.7765 4.74684C16.8672 4.91901 16.8012 5.13214 16.6291 5.22288L11.0178 8.18027C10.8456 8.27101 10.6325 8.205 10.5417 8.03284L9.55594 6.16241L15.479 3.04072C15.6511 2.94998 15.8643 3.01599 15.955 3.18816L16.7765 4.74684Z"
  />
  <path
    d="M9.61982 3.59998C9.81193 3.63112 9.94242 3.81211 9.91127 4.00422L8.8962 10.2654C8.86506 10.4575 8.68408 10.588 8.49197 10.5568L6.40491 10.2185L7.47637 3.60947C7.50752 3.41736 7.6885 3.28687 7.88061 3.31802L9.61982 3.59998Z"
  />
  <path
    d="M10.3237 5.75843C9.79339 6.03052 9.66672 5.65237 9.67659 5.43378L9.56125 6.16087L10.3237 5.75843Z"
  />
  <path
    d="M9.4443 6.87955C9.58579 6.41686 9.77532 6.6288 9.8976 6.81025L9.55637 6.16334L9.4443 6.87955Z"
  />
  <path
    d="M6.55015 9.33037L6.40648 10.2184L5.7565 9.4605C6.15935 9.91229 6.45899 9.70609 6.55015 9.33037Z"
  />
  <path
    d="M7.00189 10.9041L6.401 10.2127L7.32281 10.3677C6.7005 10.3072 6.77985 10.595 7.00189 10.9041Z"
  />
  <path
    d="M4.49866 8.51773C4.64614 8.39075 4.86864 8.40736 4.99563 8.55485L9.1343 13.3615C9.26128 13.509 9.24467 13.7315 9.09719 13.8585L7.49497 15.238L3.12637 10.1643C2.99938 10.0168 3.016 9.79435 3.16348 9.66737L4.49866 8.51773Z"
  />
</svg>