<svg xmlns="http://www.w3.org/2000/svg" viewBox="0 0 24 24" fill="currentColor">
  <path fill-rule="evenodd" clip-rule="evenodd"
    d="M7 20.2L7 20C7 19.4477 6.55228 19 6 19L5.4 19C5.17909 19 5 18.8209 5 18.6L5 16.4L5 15.4C5 15.95 5.44395 16.3962 5.99302 16.4H6.6C6.82091 16.4 7 16.5791 7 16.8L7 18C7 18.5523 7.44771 19 8 19L7.27027 19L17 19L17 20.2C17 20.6418 16.6418 21 16.2 21H7.8C7.35817 21 7 20.6418 7 20.2ZM5 7.40003L5 16.4L3.4 16.4C3.17909 16.4 3 16.2209 3 16V7.80002C3 7.57911 3.17909 7.40003 3.4 7.40003H4C4.55228 7.40003 5 6.95231 5 6.40003L5 7.40003ZM7 4L7 3.8C7 3.35817 7.35817 3 7.8 3H16.2C16.6418 3 17 3.35818 17 3.8V4C17 4.55228 17.4477 5 18 5L18.6 5C18.8209 5 19 5.17909 19 5.4L19 6.40003C19 6.95231 19.4477 7.40003 20 7.40003H20.6C20.8209 7.40003 21 7.57911 21 7.80002V16C21 16.2209 20.8209 16.4 20.6 16.4H19L20 16.4C19.4477 16.4 19 16.8477 19 17.4L19 18.6C19 18.8209 18.8209 19 18.6 19L18 19C17.4477 19 17 19.4477 17 20L17 19L16 19C16.5523 19 17 18.5523 17 18V16.8C17 16.5791 17.1791 16.4 17.4 16.4H18.007C18.5556 16.3963 18.9993 15.9507 19 15.4013L19 15.4V8.40003C19 7.84774 18.5523 7.40003 18 7.40003H19L17.4 7.4C17.1791 7.4 17 7.22091 17 7V6C17 5.44772 16.5523 5 16 5H8C7.44771 5 7 5.44772 7 6L7 7C7 7.22091 6.82091 7.4 6.6 7.4L5 7.40003L5 5.4C5 5.17909 5.17909 5 5.4 5L6 5C6.55228 5 7 4.55228 7 4ZM5 16.4H4C4.55228 16.4 5 16.8477 5 17.4L5 16.4ZM5 7.40003H6C5.44771 7.40003 5 7.84774 5 8.40003L5 7.40003ZM10.9842 14.7999H13C13.5523 14.7999 14 14.3522 14 13.7999V13.6001C14 13.3792 14.1791 13.2001 14.4 13.2001H15.6C15.8209 13.2001 16 13.3792 16 13.6001V14.4001C16 14.621 15.8209 14.8001 15.6 14.8001H14.9827C14.4384 14.8093 14 15.2534 14 15.7999V15.9999C14 16.2208 13.8209 16.3999 13.6 16.3999H10.4C10.1791 16.3999 10 16.2208 10 15.9999L10 15.8C10 15.2501 9.55609 14.8039 9.00705 14.8001H8.4C8.17909 14.8001 8 14.621 8 14.4001V13.6001C8 13.3792 8.17909 13.2001 8.4 13.2001H9.6C9.82091 13.2001 10 13.3792 10 13.6001V13.8C10.0002 14.3469 10.4393 14.7915 10.9842 14.7999ZM7.88851 11.2592C7.98999 11.6131 8.35918 11.8178 8.71311 11.7163L9.73845 11.4223C10.0924 11.3208 10.297 10.9516 10.1955 10.5977L10.0118 9.95681C9.91029 9.60289 9.5411 9.39824 9.18718 9.49973L8.16183 9.79374C7.8079 9.89523 7.60326 10.2644 7.70475 10.6183L7.88851 11.2592ZM14.2199 11.4223C13.866 11.3208 13.6614 10.9516 13.7629 10.5977L13.9466 9.95684C14.0481 9.60292 14.4173 9.39827 14.7712 9.49976L15.7966 9.79377C16.1505 9.89526 16.3551 10.2644 16.2536 10.6184L16.0699 11.2592C15.9684 11.6131 15.5992 11.8178 15.2453 11.7163L14.2199 11.4223Z"
  />
</svg>