<svg xmlns="http://www.w3.org/2000/svg" viewBox="0 0 24 24" fill="currentColor">
  <path
    d="M19.7531 5.72764C19.9093 5.88385 20.1626 5.88385 20.3188 5.72764L21.8745 4.17201C22.0307 4.0158 22.0307 3.76253 21.8745 3.60632L20.4602 2.19211C20.304 2.0359 20.0508 2.0359 19.8946 2.19211L18.3389 3.74774C18.1827 3.90395 18.1827 4.15722 18.3389 4.31343L18.4806 4.4551L15.5575 7.3782L14.2845 6.10515C14.1282 5.94894 13.875 5.94894 13.7188 6.10515L13.2781 6.54585C12.8864 6.91987 12.2656 6.91439 11.8807 6.52943L12.5876 7.23634L11.456 6.10515C11.2998 5.94894 11.0466 5.94894 10.8903 6.10515L8.32967 8.66583C7.93807 9.04118 7.31631 9.03614 6.93089 8.65072L7.63783 9.35767L6.50628 8.22647C6.35007 8.07026 6.09681 8.07026 5.9406 8.22647L2.26364 11.9034C2.10743 12.0596 2.10743 12.3129 2.26364 12.4691L2.68791 12.8934C3.07843 13.2839 3.07843 13.9171 2.68791 14.3076L2.26364 14.7319C2.10743 14.8881 2.10743 15.1413 2.26364 15.2975L2.70411 15.738C3.07343 16.1241 3.07351 16.7334 2.70436 17.1196L2.54648 17.2774C2.23407 17.5899 2.23407 18.0964 2.54649 18.4088L5.65776 21.5201C5.97018 21.8325 6.47671 21.8325 6.78913 21.5201L7.63765 20.6716L3.3952 16.4291L4.52638 15.2975C4.68259 15.1413 4.68259 14.8881 4.52638 14.7319L4.10212 14.3076C3.71189 13.917 3.71169 13.2838 4.10212 12.8934L7.63783 9.35767L6.93092 10.0649C7.31588 9.67998 7.93661 9.67449 8.32829 10.0485L8.76902 10.4892C8.92523 10.6454 9.1785 10.6454 9.33471 10.4892L12.5876 7.23634L11.8807 7.94364C12.2658 7.55853 12.8868 7.55319 13.2785 7.92761L16.1426 10.7918C16.5076 11.177 16.5076 11.7813 16.1427 12.1665L13.5773 14.7319C13.4211 14.8881 13.4211 15.1413 13.5773 15.2975L14.0205 15.7407C14.3867 16.1264 14.3865 16.7326 14.0197 17.118L11.1732 19.9644C10.7844 20.3533 10.155 20.355 9.7641 19.9695L9.75898 19.9644L9.33474 19.5402C9.17853 19.384 8.92527 19.384 8.76906 19.5402L8.32641 19.9828C7.93462 20.3549 7.31535 20.3488 6.93104 19.9645L7.63765 20.6716L6.93104 21.3787C7.31559 20.9941 7.9354 20.9882 8.32715 21.361L8.76906 21.8029C8.92527 21.9591 9.17853 21.9591 9.33474 21.8029L9.75898 21.3787L9.76238 21.3753C10.1532 20.9881 10.7838 20.9893 11.1732 21.3787L11.5975 21.8029C11.7537 21.9591 12.0069 21.9591 12.1631 21.8029L15.8401 18.126C15.9963 17.9698 15.9963 17.7165 15.8401 17.5603L15.4158 17.136C15.0253 16.7455 15.0253 16.1123 15.4158 15.7218L17.9614 13.1762C18.1176 13.02 18.1176 12.7667 17.9614 12.6105L16.8303 11.4794L17.5376 12.1863C17.1471 11.7958 17.1471 11.1626 17.5376 10.7721L16.8303 11.4794L17.9614 10.3478C18.1176 10.1916 18.1176 9.93832 17.9614 9.78211L16.6889 8.50957L19.612 5.58647L19.7531 5.72764Z"
  />
  <path
    d="M4.10248 15.7218L3.3952 16.4291L4.10248 17.136C3.71196 16.7455 3.71196 16.1123 4.10248 15.7218Z"
  />
  <path
    d="M10.4189 11.3848C10.8355 10.9683 11.5109 10.9683 11.9274 11.3848L12.6817 12.1391C13.0982 12.5557 13.0982 13.231 12.6817 13.6476L11.9274 14.4018C11.5109 14.8184 10.8355 14.8184 10.4189 14.4018L9.66469 13.6476C9.24813 13.231 9.24813 12.5557 9.66469 12.1391L10.4189 11.3848Z"
  />
  <path
    d="M6.97556 14.1632C6.81935 14.007 6.56608 14.007 6.40987 14.1632L5.57418 14.9989C5.41797 15.1551 5.41797 15.4084 5.57418 15.5646L8.50213 18.4925C8.65834 18.6487 8.91161 18.6487 9.06782 18.4925L9.90351 17.6568C10.0597 17.5006 10.0597 17.2474 9.90351 17.0912L6.97556 14.1632Z"
  />
</svg>