<svg xmlns="http://www.w3.org/2000/svg" viewBox="0 0 24 24" fill="currentColor">
  <path
    d="M5.00049 9L5.00049 18.75H3.80049C3.35866 18.75 3.00049 18.3918 3.00049 17.95L3.00049 9.8C3.00049 9.35817 3.35866 9 3.80049 9H5.00049Z"
  />
  <path
    d="M6.00078 13.35L6.00078 19.75H7.60078C7.82169 19.75 8.00078 19.5709 8.00078 19.35L8.00078 13.75C8.00078 13.5291 7.82169 13.35 7.60078 13.35H6.00078Z"
  />
  <path
    d="M7.00107 6.25V8.6C7.00107 8.82091 6.82198 9 6.60107 9H5.00049L5.00107 6.65C5.00107 6.42909 5.18015 6.25 5.40107 6.25L7.00107 6.25Z"
  />
  <path d="M5.00049 9L5.00009 8C5.00009 8.55228 4.55238 9 4.00009 9H5.00049Z" />
  <path d="M5.00049 9L5.00078 10C5.00078 9.44771 5.44849 9 6.00078 9H5.00049Z" />
  <path d="M7.00107 6.25L7.00076 5.25C7.00076 5.80228 6.55305 6.25 6.00076 6.25L7.00107 6.25Z"
  />
  <path d="M7.00107 6.25L7.00136 7.25C7.00136 6.69772 7.44907 6.25 8.00136 6.25L7.00107 6.25Z"
  />
  <path
    d="M18.999 9L18.999 18.75H20.199C20.6409 18.75 20.999 18.3918 20.999 17.95V9.8C20.999 9.35817 20.6409 9 20.199 9H18.999Z"
  />
  <path
    d="M17.9987 13.35V19.75H16.3987C16.1778 19.75 15.9987 19.5709 15.9987 19.35L15.9987 13.75C15.9987 13.5291 16.1778 13.35 16.3987 13.35H17.9987Z"
  />
  <path
    d="M16.9985 6.25V8.6C16.9985 8.82091 17.1775 9 17.3985 9H18.999L18.9985 6.65C18.9985 6.42909 18.8194 6.25 18.5985 6.25L16.9985 6.25Z"
  />
  <path d="M18.999 9L18.9993 8C18.9993 8.55228 19.447 9 19.9993 9H18.999Z" />
  <path d="M18.999 9L18.9987 10C18.9987 9.44771 18.551 9 17.9987 9H18.999Z" />
  <path d="M16.9985 6.25L16.9986 5.25C16.9986 5.80228 17.4463 6.25 17.9986 6.25L16.9985 6.25Z"
  />
  <path d="M16.9985 6.25L16.9982 7.25C16.9982 6.69772 16.5504 6.25 15.9982 6.25L16.9985 6.25Z"
  />
  <path
    d="M17.004 6.25L7.00107 6.25L7.00107 5.05C7.00107 4.60817 7.35924 4.25 7.80107 4.25L16.204 4.25C16.6458 4.25 17.004 4.60817 17.004 5.05V6.25Z"
  />
</svg>