<svg xmlns="http://www.w3.org/2000/svg" viewBox="0 0 24 24" fill="currentColor">
  <path
    d="M17 5.5L7 5.5L7 4.3C7 3.85817 7.35817 3.5 7.8 3.5H16.2C16.6418 3.5 17 3.85817 17 4.3V4.50001C17 5.05112 17.4458 5.49811 17.9965 5.5H18.6C18.8209 5.5 19 5.67909 19 5.9V6.90001C19 7.45115 19.4459 7.89816 19.9966 7.9H20.6C20.8209 7.9 21 8.07909 21 8.3V16.5C21 16.7209 20.8209 16.9 20.6 16.9H19L20 16.9C19.4477 16.9 19 17.3477 19 17.9V19.1C19 19.3209 18.8209 19.5 18.6 19.5H18C17.4477 19.5 17 19.9477 17 20.5L17 20.7C17 21.1418 16.6418 21.5 16.2 21.5L7.8 21.5C7.35817 21.5 7 21.1418 7 20.7V20.5C7 19.9477 6.55228 19.5 6 19.5H5.4C5.17909 19.5 5 19.3209 5 19.1V16.9L5 15.9C5 16.4523 5.44771 16.9 6 16.9L6.6 16.9C6.82091 16.9 7 17.0791 7 17.3V18.5C7 19.0523 7.44771 19.5 8 19.5H16C16.5523 19.5 17 19.0523 17 18.5V17.3C17 17.0791 17.1791 16.9 17.4 16.9L18 16.9C18.5523 16.9 19 16.4523 19 15.9V8.90001C19 8.34772 18.5523 7.90001 18 7.90001L19 7.9L17.4 7.9C17.1791 7.9 17 7.72091 17 7.5V6.50001C17 5.94772 16.5523 5.50001 16 5.50001L17 5.5Z"
  />
  <path
    d="M5 15.9L5 16.9L3.4 16.9C3.17909 16.9 3 16.7209 3 16.5V8.3C3 8.07909 3.17909 7.9 3.4 7.9H4.00342C4.55413 7.89816 5 7.45115 5 6.90001L5 7.9L6 7.90001C5.44772 7.90001 5 8.34772 5 8.90001V15.9Z"
  />
  <path
    d="M7 4.50001L7 5.5L8 5.50001C7.44771 5.50001 7 5.94772 7 6.50001V7.5C7 7.72091 6.82091 7.9 6.6 7.9L5 7.9L5 5.9C5 5.67909 5.17909 5.5 5.4 5.5H6.00351C6.55418 5.49811 7 5.05112 7 4.50001Z"
  />
  <path d="M5 17.9C5 17.3477 4.55228 16.9 4 16.9L5 16.9L5 17.9Z" />
  <path
    d="M13 13.1C13 13.3209 12.8209 13.5 12.6 13.5H8.4C8.17909 13.5 8 13.3209 8 13.1V11.9C8 11.6791 8.17909 11.5 8.4 11.5L11 11.5V7.3C11 7.07909 11.1791 6.9 11.4 6.9H12.6C12.8209 6.9 13 7.07909 13 7.3L13 13.1Z"
  />
</svg>