<svg xmlns="http://www.w3.org/2000/svg" viewBox="0 0 24 24" fill="currentColor">
  <path d="M2 8.4C2 8.17909 2.17909 8 2.4 8H4V17H2.4C2.17909 17 2 16.8209 2 16.6V8.4Z" />
  <path d="M22 8.4C22 8.17909 21.8209 8 21.6 8H20V17H21.6C21.8209 17 22 16.8209 22 16.6V8.4Z"
  />
  <path d="M11 13.6H9.4C9.17909 13.6 9 13.7791 9 14V17H10.6C10.8209 17 11 16.8209 11 16.6V13.6Z"
  />
  <path d="M13 13.6H11V15.2H13V13.6Z" />
  <path d="M13 13.6H14.6C14.8209 13.6 15 13.7791 15 14V17H13.4C13.1791 17 13 16.8209 13 16.6V13.6Z"
  />
  <path d="M19.6 6C19.8209 6 20 6.17909 20 6.4V8H4L4 6.4C4 6.17909 4.17909 6 4.4 6L19.6 6Z"
  />
  <path d="M13.6 4C13.8209 4 14 4.17909 14 4.4V6L10 6V4.4C10 4.17909 10.1791 4 10.4 4L13.6 4Z"
  />
  <path d="M8.6 19C8.82091 19 9 18.8209 9 18.6V17L4 17L4 18.6C4 18.8209 4.17909 19 4.4 19H8.6Z"
  />
  <path
    d="M19.6 19C19.8209 19 20 18.8209 20 18.6V17L15 17L15 18.6C15 18.8209 15.1791 19 15.4 19H19.6Z"
  />
  <path d="M4 8V9C4 8.44772 4.44772 8 5 8H4Z" />
  <path d="M4 8L4 7C4 7.55228 3.55229 8 3 8H4Z" />
  <path d="M20 8V9C20 8.44772 19.5523 8 19 8H20Z" />
  <path d="M20 8L20 7C20 7.55228 20.4477 8 21 8H20Z" />
  <path d="M9 17V18C9 17.4477 9.44772 17 10 17L9 17Z" />
  <path d="M9 17L9 16C9 16.5523 8.55229 17 8 17L9 17Z" />
  <path d="M15 17V18C15 17.4477 14.5523 17 14 17L15 17Z" />
  <path d="M15 17L15 16C15 16.5523 15.4477 17 16 17L15 17Z" />
  <path d="M4 17L4 18C4 17.4477 3.55228 17 3 17H4Z" />
  <path d="M4 17L4 16C4 16.5523 4.44771 17 5 17H4Z" />
  <path d="M20 17V18C20 17.4477 20.4477 17 21 17H20Z" />
  <path d="M20 17V16C20 16.5523 19.5523 17 19 17H20Z" />
  <path
    d="M6.5 9.6C6.5 9.32386 6.72386 9.1 7 9.1H7.5C7.77614 9.1 8 9.32386 8 9.6V10.1C8 10.3761 7.77614 10.6 7.5 10.6H7C6.72386 10.6 6.5 10.3761 6.5 10.1V9.6Z"
  />
  <path
    d="M5 11.1C5 10.8239 5.22385 10.6 5.5 10.6H6C6.27614 10.6 6.5 10.8239 6.5 11.1V11.6C6.5 11.8761 6.27614 12.1 6 12.1H5.5C5.22385 12.1 5 11.8761 5 11.6V11.1Z"
  />
  <path
    d="M6.5 12.6C6.5 12.3239 6.72386 12.1 7 12.1H7.5C7.77614 12.1 8 12.3239 8 12.6V13.1C8 13.3761 7.77614 13.6 7.5 13.6H7C6.72386 13.6 6.5 13.3761 6.5 13.1V12.6Z"
  />
  <path
    d="M8 11.025C8 10.7489 8.22386 10.525 8.5 10.525H9C9.27614 10.525 9.5 10.7489 9.5 11.025V11.525C9.5 11.8011 9.27614 12.025 9 12.025H8.5C8.22386 12.025 8 11.8011 8 11.525V11.025Z"
  />
  <path
    d="M16 9.6C16 9.32386 16.2239 9.1 16.5 9.1H17C17.2761 9.1 17.5 9.32386 17.5 9.6V10.1C17.5 10.3761 17.2761 10.6 17 10.6H16.5C16.2239 10.6 16 10.3761 16 10.1V9.6Z"
  />
  <path
    d="M14.5 11.1C14.5 10.8239 14.7239 10.6 15 10.6H15.5C15.7761 10.6 16 10.8239 16 11.1V11.6C16 11.8761 15.7761 12.1 15.5 12.1H15C14.7239 12.1 14.5 11.8761 14.5 11.6V11.1Z"
  />
  <path
    d="M16 12.6C16 12.3239 16.2239 12.1 16.5 12.1H17C17.2761 12.1 17.5 12.3239 17.5 12.6V13.1C17.5 13.3761 17.2761 13.6 17 13.6H16.5C16.2239 13.6 16 13.3761 16 13.1V12.6Z"
  />
  <path
    d="M17.5 11.025C17.5 10.7489 17.7239 10.525 18 10.525H18.5C18.7761 10.525 19 10.7489 19 11.025V11.525C19 11.8011 18.7761 12.025 18.5 12.025H18C17.7239 12.025 17.5 11.8011 17.5 11.525V11.025Z"
  />
</svg>