<svg xmlns="http://www.w3.org/2000/svg" viewBox="0 0 24 24" fill="currentColor">
  <path
    d="M16.6985 14.3875C16.5276 14.5271 16.3151 14.5969 16.061 14.5969C15.8006 14.5969 15.5839 14.5271 15.4109 14.3875C15.2401 14.2459 15.112 14.0563 15.0266 13.8187C14.9432 13.5813 14.9016 13.3167 14.9016 13.025C14.9016 12.7313 14.9432 12.4656 15.0266 12.2281C15.112 11.9885 15.2401 11.7979 15.4109 11.6563C15.5839 11.5146 15.8006 11.4438 16.061 11.4438C16.3151 11.4438 16.5276 11.5146 16.6985 11.6563C16.8693 11.7979 16.9963 11.9885 17.0797 12.2281C17.1651 12.4656 17.2078 12.7313 17.2078 13.025C17.2078 13.3167 17.1651 13.5813 17.0797 13.8187C16.9963 14.0563 16.8693 14.2459 16.6985 14.3875Z"
  />
  <path fill-rule="evenodd" clip-rule="evenodd"
    d="M12 23C18.0751 23 23 18.0751 23 12C23 5.92489 18.0751 1 12 1C5.92489 1 1 5.92489 1 12C1 18.0751 5.92489 23 12 23ZM14.8359 15.1937C15.1797 15.4 15.5859 15.5031 16.0546 15.5031C16.5234 15.5031 16.9297 15.4 17.2735 15.1937C17.6172 14.9875 17.8828 14.699 18.0703 14.3281C18.2599 13.9573 18.3547 13.524 18.3547 13.0281C18.3547 12.5323 18.2599 12.0979 18.0703 11.725C17.8828 11.3521 17.6172 11.0625 17.2735 10.8562C16.9297 10.65 16.5234 10.5469 16.0546 10.5469C15.5859 10.5469 15.1797 10.65 14.8359 10.8562C14.4922 11.0625 14.2255 11.3521 14.0359 11.725C13.8485 12.0979 13.7547 12.5323 13.7547 13.0281C13.7547 13.524 13.8485 13.9573 14.0359 14.3281C14.2255 14.699 14.4922 14.9875 14.8359 15.1937ZM10.9757 15.5031C10.4966 15.5031 10.0852 15.3979 9.74146 15.1875C9.39972 14.9771 9.13613 14.6865 8.95083 14.3156C8.76741 13.9427 8.67583 13.5136 8.67583 13.0281C8.67583 12.5406 8.76956 12.1104 8.95701 11.7375C9.14459 11.3625 9.40912 11.0708 9.75072 10.8625C10.0945 10.6521 10.5008 10.5469 10.9696 10.5469C11.3591 10.5469 11.7039 10.6188 12.0039 10.7625C12.306 10.9042 12.5466 11.1052 12.7258 11.3656C12.9049 11.624 13.0071 11.926 13.0321 12.2718H11.9507C11.9071 12.0406 11.8029 11.8479 11.6383 11.6938C11.4758 11.5375 11.2581 11.4594 10.9851 11.4594C10.7539 11.4594 10.5507 11.5219 10.3758 11.6469C10.2008 11.7698 10.0643 11.9469 9.96637 12.1781C9.87063 12.4093 9.82269 12.6864 9.82269 13.0094C9.82269 13.1654 9.83357 13.3109 9.85532 13.4461C9.87922 13.5943 9.91628 13.73 9.96637 13.8531C10.0622 14.0865 10.1967 14.2667 10.3695 14.3938C10.5446 14.5188 10.7497 14.5813 10.9851 14.5813C11.0631 14.5813 11.1374 14.5744 11.2078 14.5607C11.2875 14.5452 11.3623 14.5207 11.432 14.4875C11.5653 14.4229 11.6768 14.3302 11.7664 14.2094C11.8147 14.1442 11.8548 14.0715 11.8868 13.9911C11.9141 13.9225 11.9354 13.8484 11.9507 13.7688H13.0321C13.0049 14.1084 12.9049 14.4094 12.7321 14.6719C12.5591 14.9323 12.3237 15.1365 12.0258 15.2844C11.8399 15.3753 11.634 15.4379 11.4076 15.4721C11.271 15.4928 11.1271 15.5031 10.9757 15.5031ZM6.58755 10.6094V15.4094H7.7187V10.6094H6.58755ZM6.69376 9.74998C6.82294 9.86875 6.97709 9.9281 7.15621 9.9281C7.33749 9.9281 7.49164 9.86875 7.6188 9.74998C7.74797 9.6292 7.81256 9.48438 7.81256 9.31559C7.81256 9.14479 7.74797 8.99998 7.6188 8.88127C7.49164 8.76042 7.33749 8.7 7.15621 8.7C6.97709 8.7 6.82294 8.76042 6.69376 8.88127C6.6277 8.94204 6.57842 9.00964 6.54619 9.08403C6.51544 9.155 6.5 9.23221 6.5 9.31559C6.5 9.48438 6.56459 9.6292 6.69376 9.74998Z"
  />
</svg>