<svg xmlns="http://www.w3.org/2000/svg" viewBox="0 0 24 24" fill="currentColor">
  <path fill-rule="evenodd" clip-rule="evenodd"
    d="M6.35 6.59995C6.35 6.15812 6.70817 5.79995 7.15 5.79995H16.85C17.2918 5.79995 17.65 6.15812 17.65 6.59995V17.8C17.65 18.2418 17.2918 18.6 16.85 18.6H7.15C6.70817 18.6 6.35 18.2418 6.35 17.8V6.59995ZM7.95 17V7.39995H16.05V17H7.95Z"
  />
  <path fill-rule="evenodd" clip-rule="evenodd"
    d="M3.75 4.39995C3.75 3.73721 4.28726 3.19995 4.95 3.19995H18.25C18.4709 3.19995 18.65 3.37904 18.65 3.59995L18.65 3.79995C18.65 4.35224 19.0977 4.79995 19.65 4.79995L19.85 4.79995C20.0709 4.79995 20.25 4.97904 20.25 5.19995V20C20.25 20.6627 19.7127 21.2 19.05 21.2H5.75C5.52909 21.2 5.35 21.0209 5.35 20.8V19.6L5.35 20.6C5.35 20.0477 4.90228 19.6 4.35 19.6H4.15C3.92909 19.6 3.75 19.4209 3.75 19.2V4.39995ZM6.35 19.6H18.65L18.65 5.7986C18.6493 5.24736 18.2025 4.80063 17.6513 4.79995L5.35 4.79995L5.35 18.6C5.35027 19.152 5.79788 19.6 6.35 19.6Z"
  />
</svg>