<svg xmlns="http://www.w3.org/2000/svg" viewBox="0 0 24 24" fill="currentColor">
  <path d="M13 7.5V10H11V8.3C11 7.85817 11.3582 7.5 11.8 7.5H13Z" />
  <path
    d="M13 10.7V16.1H14.5C14.7209 16.1 14.9 16.279 14.9 16.5V17.3C14.9 17.5209 14.7209 17.7 14.5 17.7H9.5C9.27909 17.7 9.1 17.5209 9.1 17.3L9.1 16.5C9.1 16.279 9.27909 16.1 9.5 16.1H11V11.5C11 11.0581 11.3582 10.7 11.8 10.7H13Z"
  />
  <path fill-rule="evenodd" clip-rule="evenodd"
    d="M17.9996 5.59998C17.4475 5.59976 17 5.15213 17 4.59998V4.39998C17 3.95815 16.6418 3.59998 16.2 3.59998H7.8C7.35817 3.59998 7 3.95815 7 4.39998V4.59998C7 5.15213 6.5525 5.59976 6.00039 5.59998H5.4C5.17909 5.59998 5 5.77906 5 5.99998L5 7C5 7.55228 4.55228 8 4 8H3.4C3.17909 8 3 8.17909 3 8.4V16.6C3 16.8209 3.17909 17 3.4 17H4C4.55228 17 5 17.4477 5 18L5 19.2C5 19.4209 5.17909 19.6 5.4 19.6H6C6.55228 19.6 7 20.0477 7 20.6V20.8C7 21.2418 7.35817 21.6 7.8 21.6H16.2C16.6418 21.6 17 21.2418 17 20.8V20.6C17 20.0477 17.4477 19.6 18 19.6H18.6C18.8209 19.6 19 19.4209 19 19.2V18C19 17.4477 19.4477 17 20 17H20.6C20.8209 17 21 16.8209 21 16.6V8.4C21 8.17909 20.8209 8 20.6 8H20C19.4477 8 19 7.55228 19 7V5.99998C19 5.77906 18.8209 5.59998 18.6 5.59998H17.9996ZM16 19.6C16.5523 19.6 17 19.1523 17 18.6V17.4C17 17.1791 17.1791 17 17.4 17H18.007C18.5561 16.9962 19 16.55 19 16V9C19 8.44771 18.5523 8 18 8H19L17.4 7.99998C17.1791 7.99998 17 7.82089 17 7.59998V6.59998C17 6.04778 16.5524 5.60012 16.0003 5.59998H8C7.44772 5.59997 7 6.04769 7 6.59998V7.59998C7 7.82089 6.82091 7.99998 6.6 7.99998H5L6 8C5.44772 8 5 8.44771 5 9V16C5.00035 16.5497 5.44417 16.9962 5.99302 17H6.6C6.82091 17 7 17.1791 7 17.4V18.6C7 19.1523 7.44772 19.6 8 19.6H16Z"
  />
</svg>