<svg xmlns="http://www.w3.org/2000/svg" viewBox="0 0 24 24" fill="currentColor">
  <path fill-rule="evenodd" clip-rule="evenodd"
    d="M7 5L17 5L16 5C16.5523 5 17 5.44771 17 6V7C17 7.22091 17.1791 7.4 17.4 7.4H19L19 7.40002H18C18.5523 7.40002 19 7.84774 19 8.40002V15.4L19 15.4013C18.9993 15.9507 18.5556 16.3963 18.007 16.4H17.4C17.1791 16.4 17 16.5791 17 16.8V18C17 18.5523 16.5523 19 16 19H8C7.44771 19 7 18.5523 7 18L7 16.8C7 16.5791 6.82091 16.4 6.6 16.4H5.99302C5.44395 16.3962 5 15.95 5 15.4L5 16.4L5 18.6C5 18.8209 5.17909 19 5.4 19H6C6.55228 19 7 19.4477 7 20L7 20.2C7 20.6418 7.35817 21 7.8 21L16.2 21C16.6418 21 17 20.6418 17 20.2L17 20C17 19.4477 17.4477 19 18 19H18.6C18.8209 19 19 18.8209 19 18.6L19 17.4C19 16.8477 19.4477 16.4 20 16.4L19 16.4L20.6 16.4C20.8209 16.4 21 16.2209 21 16V7.80002C21 7.57911 20.8209 7.40002 20.6 7.40002H20C19.4477 7.40002 19 6.95231 19 6.40002L19 5.4C19 5.17909 18.8209 5 18.6 5L18 5C17.4477 5 17 4.55228 17 4V3.8C17 3.35817 16.6418 3 16.2 3H7.8C7.35817 3 7 3.35817 7 3.8V5ZM7 5V4C7 4.55228 6.55228 5 6 5L5.4 5C5.17909 5 5 5.17909 5 5.4V7.4H6.6C6.82091 7.4 7 7.22091 7 7L7 6C7 5.44771 7.44771 5 8 5L7 5ZM5 7.40002L5 16.4L3.4 16.4C3.17909 16.4 3 16.2209 3 16V7.80002C3 7.57911 3.17909 7.40002 3.4 7.40002H4C4.55228 7.40002 5 6.95231 5 6.40002L5 7.40002ZM4 16.4C4.55228 16.4 5 16.8477 5 17.4V16.4H4ZM5 7.40002H6C5.44772 7.40002 5 7.84774 5 8.40002V7.40002ZM11 14.8H13C13.5523 14.8 14 14.3523 14 13.8V13.6001C14 13.3792 14.1791 13.2001 14.4 13.2001H15.6C15.8209 13.2001 16 13.3792 16 13.6001V14.4001C16 14.621 15.8209 14.8001 15.6 14.8001H14.9929C14.4439 14.8039 14 15.2501 14 15.8V16C14 16.221 13.8209 16.4 13.6 16.4H10.4C10.1791 16.4 10 16.221 10 16V15.8C10 15.2501 9.55613 14.8039 9.00712 14.8001H8.4C8.17909 14.8001 8 14.621 8 14.4001V13.6001C8 13.3792 8.17909 13.2001 8.4 13.2001H9.6C9.82091 13.2001 10 13.3792 10 13.6001V13.8C10 14.3523 10.4477 14.8 11 14.8ZM8 10.2747C8 9.90651 8.29848 9.60803 8.66667 9.60803H9.33333C9.70152 9.60803 10 9.90651 10 10.2747V10.9414C10 11.3096 9.70152 11.608 9.33333 11.608H8.66667C8.29848 11.608 8 11.3096 8 10.9414V10.2747ZM14.6667 9.60803C14.2985 9.60803 14 9.90651 14 10.2747V10.9414C14 11.3096 14.2985 11.608 14.6667 11.608H15.3333C15.7015 11.608 16 11.3096 16 10.9414V10.2747C16 9.90651 15.7015 9.60803 15.3333 9.60803H14.6667Z"
  />
</svg>