<svg xmlns="http://www.w3.org/2000/svg" viewBox="0 0 24 24" fill="currentColor">
  <path
    d="M8.76799 20.189L20.7888 8.16818L21.9202 9.29955C22.0764 9.45576 22.0764 9.70902 21.9202 9.86523L10.465 21.3204C10.3088 21.4766 10.0556 21.4766 9.89936 21.3204L8.76799 20.189Z"
  />
  <path
    d="M3.95967 15.3807C3.80346 15.2245 3.80346 14.9712 3.95967 14.815L12.5864 6.18828C12.7426 6.03207 12.9958 6.03207 13.1521 6.18828L14.2834 7.31965L5.09104 16.512L3.95967 15.3807Z"
  />
  <path
    d="M2.40085 12.414C2.24464 12.2578 2.24464 12.0045 2.40085 11.8483L11.7378 2.51132C11.894 2.35511 12.1473 2.35511 12.3035 2.51132L13.4349 3.64269L3.81506 13.2625C3.65885 13.4187 3.40559 13.4187 3.24938 13.2625L2.40085 12.414Z"
  />
  <path
    d="M3.95967 18.2091C3.80346 18.0529 3.80346 17.7996 3.95967 17.6434L5.09104 16.512L8.76799 20.189L7.63662 21.3204C7.48041 21.4766 7.22715 21.4766 7.07094 21.3204L3.95967 18.2091Z"
  />
  <path
    d="M16.2633 3.64269L17.3947 2.51132C17.5509 2.35511 17.8042 2.35511 17.9604 2.51132L21.9202 6.47112C22.0764 6.62733 22.0764 6.8806 21.9202 7.03681L20.7888 8.16818L16.2633 3.64269Z"
  />
  <path
    d="M13.4349 3.64269L14.5663 2.51132C14.7225 2.35511 14.9757 2.35511 15.132 2.51132L16.2633 3.64269L15.132 4.77406C14.9757 4.93027 14.7225 4.93027 14.5663 4.77406L13.4349 3.64269Z"
  />
  <path
    d="M14.2834 7.31965L15.4148 6.18828C15.571 6.03207 15.8243 6.03207 15.9805 6.18828L16.829 7.03681C16.9852 7.19302 16.9852 7.44628 16.829 7.60249L15.6976 8.73386L14.2834 7.31965Z"
  />
  <path
    d="M8.20231 16.7949C8.0461 16.6387 8.0461 16.3854 8.20231 16.2292L15.6976 8.73386L16.829 9.86523C16.9852 10.0214 16.9852 10.2747 16.829 10.4309L9.61652 17.6434C9.46031 17.7996 9.20704 17.7996 9.05083 17.6434L8.20231 16.7949Z"
  />
  <path
    d="M8.76799 20.189L8.06088 19.4819C8.45141 19.8724 9.08457 19.8724 9.4751 19.4819L8.76799 20.189Z"
  />
  <path
    d="M8.76799 20.189L9.4751 20.8961C9.08457 20.5056 8.45141 20.5056 8.06088 20.8961L8.76799 20.189Z"
  />
  <path
    d="M5.09104 16.512L4.38393 15.8049C4.77445 16.1955 4.77445 16.8286 4.38393 17.2191L5.09104 16.512Z"
  />
  <path
    d="M5.09104 16.512L5.79814 17.2191C5.40762 16.8286 5.40762 16.1955 5.79814 15.8049L5.09104 16.512Z"
  />
  <path
    d="M14.2834 7.31965L13.5763 6.61254C13.9668 7.00307 14.6 7.00307 14.9905 6.61254L14.2834 7.31965Z"
  />
  <path
    d="M14.2834 7.31965L14.9905 8.02676C14.6 7.63623 13.9668 7.63623 13.5763 8.02675L14.2834 7.31965Z"
  />
  <path
    d="M15.6976 8.73386L16.4047 9.44097C16.0142 9.05044 16.0142 8.41728 16.4047 8.02676L15.6976 8.73386Z"
  />
  <path
    d="M15.6976 8.73386L14.9905 8.02676C15.3811 8.41728 15.3811 9.05044 14.9905 9.44097L15.6976 8.73386Z"
  />
  <path
    d="M20.7888 8.16818L21.4959 8.87528C21.1054 8.48476 21.1054 7.85159 21.4959 7.46107L20.7888 8.16818Z"
  />
  <path
    d="M20.7888 8.16818L20.0817 7.46107C20.4722 7.85159 20.4722 8.48476 20.0817 8.87528L20.7888 8.16818Z"
  />
  <path
    d="M16.2633 3.64269L16.9704 4.3498C16.5799 3.95928 15.9467 3.95928 15.5562 4.3498L16.2633 3.64269Z"
  />
  <path
    d="M16.2633 3.64269L15.5562 2.93559C15.9467 3.32611 16.5799 3.32611 16.9704 2.93559L16.2633 3.64269Z"
  />
  <path
    d="M13.4349 3.64269L14.142 4.3498C13.7515 3.95928 13.1183 3.95928 12.7278 4.3498L13.4349 3.64269Z"
  />
  <path
    d="M13.4349 3.64269L12.7278 2.93559C13.1183 3.32611 13.7515 3.32611 14.142 2.93559L13.4349 3.64269Z"
  />
</svg>