<svg xmlns="http://www.w3.org/2000/svg" viewBox="0 0 24 24" fill="currentColor">
  <path
    d="M7.55556 8.82439C7.24074 8.82439 6.97667 8.71773 6.76333 8.50439C6.55074 8.2918 6.44444 8.0281 6.44444 7.71328C6.44444 7.39847 6.55074 7.1344 6.76333 6.92106C6.97667 6.70847 7.24074 6.60217 7.55556 6.60217H20.8889C21.2037 6.60217 21.4674 6.70847 21.68 6.92106C21.8933 7.1344 22 7.39847 22 7.71328C22 8.0281 21.8933 8.2918 21.68 8.50439C21.4674 8.71773 21.2037 8.82439 20.8889 8.82439H7.55556ZM7.55556 13.2688C7.24074 13.2688 6.97667 13.1622 6.76333 12.9488C6.55074 12.7362 6.44444 12.4725 6.44444 12.1577C6.44444 11.8429 6.55074 11.5788 6.76333 11.3655C6.97667 11.1529 7.24074 11.0466 7.55556 11.0466H20.8889C21.2037 11.0466 21.4674 11.1529 21.68 11.3655C21.8933 11.5788 22 11.8429 22 12.1577C22 12.4725 21.8933 12.7362 21.68 12.9488C21.4674 13.1622 21.2037 13.2688 20.8889 13.2688H7.55556ZM7.55556 17.7133C7.24074 17.7133 6.97667 17.6066 6.76333 17.3933C6.55074 17.1807 6.44444 16.917 6.44444 16.6022C6.44444 16.2874 6.55074 16.0233 6.76333 15.8099C6.97667 15.5974 7.24074 15.4911 7.55556 15.4911H20.8889C21.2037 15.4911 21.4674 15.5974 21.68 15.8099C21.8933 16.0233 22 16.2874 22 16.6022C22 16.917 21.8933 17.1807 21.68 17.3933C21.4674 17.6066 21.2037 17.7133 20.8889 17.7133H7.55556ZM3.11111 8.82439C2.7963 8.82439 2.53259 8.71773 2.32 8.50439C2.10667 8.2918 2 8.0281 2 7.71328C2 7.39847 2.10667 7.1344 2.32 6.92106C2.53259 6.70847 2.7963 6.60217 3.11111 6.60217C3.42593 6.60217 3.69 6.70847 3.90333 6.92106C4.11593 7.1344 4.22222 7.39847 4.22222 7.71328C4.22222 8.0281 4.11593 8.2918 3.90333 8.50439C3.69 8.71773 3.42593 8.82439 3.11111 8.82439ZM3.11111 13.2688C2.7963 13.2688 2.53259 13.1622 2.32 12.9488C2.10667 12.7362 2 12.4725 2 12.1577C2 11.8429 2.10667 11.5788 2.32 11.3655C2.53259 11.1529 2.7963 11.0466 3.11111 11.0466C3.42593 11.0466 3.69 11.1529 3.90333 11.3655C4.11593 11.5788 4.22222 11.8429 4.22222 12.1577C4.22222 12.4725 4.11593 12.7362 3.90333 12.9488C3.69 13.1622 3.42593 13.2688 3.11111 13.2688ZM3.11111 17.7133C2.7963 17.7133 2.53259 17.6066 2.32 17.3933C2.10667 17.1807 2 16.917 2 16.6022C2 16.2874 2.10667 16.0233 2.32 15.8099C2.53259 15.5974 2.7963 15.4911 3.11111 15.4911C3.42593 15.4911 3.69 15.5974 3.90333 15.8099C4.11593 16.0233 4.22222 16.2874 4.22222 16.6022C4.22222 16.917 4.11593 17.1807 3.90333 17.3933C3.69 17.6066 3.42593 17.7133 3.11111 17.7133Z"
  />
</svg>