<svg xmlns="http://www.w3.org/2000/svg" viewBox="0 0 24 24" fill="currentColor">
  <path fill-rule="evenodd" clip-rule="evenodd"
    d="M12 4H9C8.44772 4 8 4.44772 8 5V5.6C8 5.82091 7.82091 6 7.6 6H7C6.44772 6 6 6.44772 6 7L6 13C6 13.5523 6.44772 14 7 14H7.6C7.82091 14 8 14.1791 8 14.4V16C8 16.5523 8.44772 17 9 17H9.6C9.82091 17 10 17.1791 10 17.4V19C10 19.5523 10.4477 20 11 20H13C13.5523 20 14 19.5523 14 19V17.4C14 17.1791 14.1791 17 14.4 17H15C15.5523 17 16 16.5523 16 16V14.4C16 14.1791 16.1791 14 16.4 14H17C17.5523 14 18 13.5523 18 13V7C18 6.44772 17.5523 6 17 6H16.4C16.1791 6 16 5.82091 16 5.6V5C16 4.44772 15.5523 4 15 4H12ZM18 15C18 14.4477 18.4477 14 19 14H19.6C19.8209 14 20 13.8209 20 13.6V6.4C20 6.17909 19.8209 6 19.6 6H19C18.4477 6 18 5.55228 18 5V4.4C18 4.17909 17.8209 4 17.6 4L17 4L16.9993 4C16.4473 3.99962 16 3.55205 16 3V2.4C16 2.17909 15.8209 2 15.6 2H12H8.4C8.17909 2 8 2.17909 8 2.4L8 3C8 3.55205 7.55266 3.99962 7.0007 4L7 4L6.4 4C6.17909 4 6 4.17909 6 4.4L6 5C6 5.55228 5.55228 6 5 6H4.4C4.17909 6 4 6.17909 4 6.4V13.6C4 13.8209 4.17909 14 4.4 14H5C5.55228 14 6 14.4477 6 15V16.6C6 16.8209 6.17909 17 6.4 17H7C7.55228 17 8 17.4477 8 18V19.6C8 19.8209 8.17909 20 8.4 20H9C9.55228 20 10 20.4477 10 21V21.6C10 21.8209 10.1791 22 10.4 22H13.6C13.8209 22 14 21.8209 14 21.6V21C14 20.4477 14.4477 20 15 20H15.6C15.8209 20 16 19.8209 16 19.6V18C16 17.4477 16.4477 17 17 17H17.6C17.8209 17 18 16.8209 18 16.6V15ZM11.2001 7.44019C10.3164 7.44019 9.6001 8.15653 9.6001 9.04018V10.6402C9.6001 11.5238 10.3164 12.2402 11.2001 12.2402H12.8001C13.6838 12.2402 14.4001 11.5238 14.4001 10.6402V9.04019C14.4001 8.15653 13.6838 7.44019 12.8001 7.44019H11.2001Z"
  />
</svg>