<svg xmlns="http://www.w3.org/2000/svg" viewBox="0 0 24 24" fill="currentColor">
  <path
    d="M19.7663 7.49228L16.9379 10.3207L18.0693 11.4521C18.2255 11.6083 18.4787 11.6083 18.635 11.4521L20.8977 9.18933C21.0539 9.03312 21.0539 8.77986 20.8977 8.62365L19.7663 7.49228Z"
  />
  <path fill-rule="evenodd" clip-rule="evenodd"
    d="M16.9379 10.3207L17.645 11.0278C17.2545 10.6373 16.6213 10.6373 16.2308 11.0278L16.9379 10.3207Z"
  />
  <path fill-rule="evenodd" clip-rule="evenodd"
    d="M16.9379 10.3207L16.2308 9.61359C16.6213 10.0041 17.2545 10.0041 17.645 9.61359L16.9379 10.3207Z"
  />
  <path fill-rule="evenodd" clip-rule="evenodd"
    d="M19.7663 7.49228L20.473 8.19941C20.0825 7.80889 20.0825 7.17573 20.473 6.7852L19.7663 7.49228Z"
  />
  <path fill-rule="evenodd" clip-rule="evenodd"
    d="M19.7663 7.49228L19.0588 6.78519C19.4493 7.17572 19.4493 7.80888 19.0588 8.19941L19.7663 7.49228Z"
  />
  <path
    d="M15.5237 3.24963L12.6953 6.07805L11.5639 4.94668C11.4077 4.79048 11.4077 4.53721 11.5639 4.381L13.8267 2.11826C13.9829 1.96205 14.2361 1.96205 14.3923 2.11826L15.5237 3.24963Z"
  />
  <path fill-rule="evenodd" clip-rule="evenodd"
    d="M12.6953 6.07805L11.9882 5.37094C12.3787 5.76147 12.3787 6.39463 11.9882 6.78516L12.6953 6.07805Z"
  />
  <path fill-rule="evenodd" clip-rule="evenodd"
    d="M12.6953 6.07805L13.4024 6.78516C13.0119 6.39464 13.0119 5.76147 13.4024 5.37095L12.6953 6.07805Z"
  />
  <path fill-rule="evenodd" clip-rule="evenodd"
    d="M15.5237 3.24963L14.8166 2.54252C15.2071 2.93304 15.8403 2.93304 16.2308 2.54252L15.5237 3.24963Z"
  />
  <path fill-rule="evenodd" clip-rule="evenodd"
    d="M15.5237 3.24963L16.2308 3.95674C15.8403 3.56621 15.2071 3.56621 14.8166 3.95674L15.5237 3.24963Z"
  />
  <path
    d="M15.5237 3.24963L19.7663 7.49228L20.8977 6.3609C21.0539 6.20469 21.0539 5.95142 20.8977 5.79521L17.2208 2.11826C17.0646 1.96205 16.8113 1.96205 16.6551 2.11826L15.5237 3.24963Z"
  />
  <path
    d="M12.6953 6.07805L16.9379 10.3207L15.8066 11.4521C15.6503 11.6083 15.3971 11.6083 15.2409 11.4521L11.5639 7.77511C11.4077 7.6189 11.4077 7.36563 11.5639 7.20942L12.6953 6.07805Z"
  />
  <path d="M14.6752 4.09816L18.9178 8.3408L17.7864 9.47217L13.5438 5.22953L14.6752 4.09816Z"
  />
  <path
    d="M4.38679 17.215L5.801 18.6293L3.96252 20.4677C3.80631 20.6239 3.55305 20.6239 3.39684 20.4677L2.54831 19.6192C2.3921 19.463 2.3921 19.2097 2.54831 19.0535L4.38679 17.215Z"
  />
  <path
    d="M5.801 18.6293L5.09384 19.3363C5.48437 18.9458 6.11753 18.9458 6.50805 19.3363L5.801 18.6293Z"
  />
  <path
    d="M5.801 18.6293L6.50805 17.9221C6.11753 18.3127 5.48437 18.3127 5.09384 17.9221L5.801 18.6293Z"
  />
  <path
    d="M14.5338 12.7249C14.69 12.5686 14.69 12.3154 14.5338 12.1592L13.6852 11.3106C13.529 11.1544 13.2758 11.1544 13.1195 11.3106L5.801 18.6293L6.93232 19.7606C7.08853 19.9168 7.34179 19.9168 7.498 19.7606L14.5338 12.7249Z"
  />
  <path
    d="M4.38679 17.215L3.67962 17.9221C4.07015 17.5316 4.07015 16.8984 3.67962 16.5079L4.38679 17.215Z"
  />
  <path
    d="M4.38679 17.215L5.09384 16.5079C4.70331 16.8984 4.70332 17.5316 5.09384 17.9221L4.38679 17.215Z"
  />
  <path
    d="M11.7053 9.89643C11.8615 9.74022 11.8615 9.48695 11.7053 9.33074L10.8568 8.48221C10.7006 8.326 10.4473 8.326 10.2911 8.48221L3.25536 15.518C3.09915 15.6742 3.09915 15.9274 3.25536 16.0837L4.38679 17.215L11.7053 9.89643Z"
  />
  <path
    d="M10.6958 14.8066C10.6958 14.5857 10.8749 14.4066 11.0958 14.4066H12.2958C12.5167 14.4066 12.6958 14.5857 12.6958 14.8066V20.6C12.6958 20.821 12.5167 21 12.2958 21H11.0958C10.8749 21 10.6958 20.821 10.6958 20.6V14.8066Z"
  />
</svg>