<svg xmlns="http://www.w3.org/2000/svg" viewBox="0 0 24 24" fill="currentColor">
  <path fill-rule="evenodd" clip-rule="evenodd"
    d="M10 5.4C10 4.6268 10.6268 4 11.4 4H12.6C13.3732 4 14 4.6268 14 5.4V6.6C14 7.3732 13.3732 8 12.6 8H11.4C10.6268 8 10 7.3732 10 6.6V5.4ZM10 11.4C10 10.6268 10.6268 10 11.4 10H12.6C13.3732 10 14 10.6268 14 11.4V12.6C14 13.3732 13.3732 14 12.6 14H11.4C10.6268 14 10 13.3732 10 12.6V11.4ZM11.4 16C10.6268 16 10 16.6268 10 17.4V18.6C10 19.3732 10.6268 20 11.4 20H12.6C13.3732 20 14 19.3732 14 18.6V17.4C14 16.6268 13.3732 16 12.6 16H11.4Z"
  />
</svg>