<svg xmlns="http://www.w3.org/2000/svg" viewBox="0 0 24 24" fill="currentColor">
  <path
    d="M18.6 4.30005C18.8209 4.30005 19 4.47914 19 4.70005V16.4C19 16.621 18.8209 16.8 18.6 16.8H18C17.4477 16.8 17 17.2478 17 17.8V18.6C17 19.2628 16.4627 19.8 15.8 19.8H12.7C12.0373 19.8 11.5 19.2628 11.5 18.6V18C11.5 17.3373 12.0373 16.8 12.7 16.8L16 16.8C16.5523 16.8 17 16.3523 17 15.8V6.30005H10.5V16.4C10.5 16.621 10.3209 16.8 10.1 16.8H9.5C8.94772 16.8 8.5 17.2478 8.5 17.8V18.6C8.5 19.2628 7.96274 19.8 7.3 19.8H4.2C3.53726 19.8 3 19.2628 3 18.6V18C3 17.3373 3.53726 16.8 4.2 16.8L7.5 16.8C8.05218 16.8 8.49984 16.3525 8.5 15.8004V4.70005C8.5 4.47914 8.67909 4.30005 8.9 4.30005H18.6Z"
  />
</svg>