<svg xmlns="http://www.w3.org/2000/svg" viewBox="0 0 24 24" fill="currentColor">
  <path d="M5 7.4L5 16.4H3.4C3.17909 16.4 3 16.2209 3 16L3 7.8C3 7.57909 3.17909 7.4 3.4 7.4H5Z"
  />
  <path
    d="M7.00001 5V7C7.00001 7.22091 6.82092 7.4 6.60001 7.4L5 7.4L5.00001 5.4C5.00001 5.17909 5.17909 5 5.40001 5L7.00001 5Z"
  />
  <path
    d="M7.00001 19V16.8C7.00001 16.5791 6.82092 16.4 6.60001 16.4L5 16.4L5.00001 18.6C5.00001 18.8209 5.17909 19 5.40001 19H7.00001Z"
  />
  <path fill-rule="evenodd" clip-rule="evenodd"
    d="M5 16.4L4 16.4C4.55228 16.4 5 16.8477 5 17.4L5 16.4Z" />
  <path fill-rule="evenodd" clip-rule="evenodd"
    d="M5 16.4L6.00001 16.4C5.44772 16.4 5.00001 15.9523 5.00001 15.4L5 16.4Z" />
  <path d="M5 7.4L5.00001 6.40001C5.00001 6.95229 4.55229 7.40001 4.00001 7.40001L5 7.4Z"
  />
  <path d="M5 7.4L5.00001 8.40001C5.00001 7.84772 5.44772 7.40001 6.00001 7.40001L5 7.4Z"
  />
  <path d="M7.00001 5L7 4.00001C7 4.55229 6.55229 5.00001 6 5.00001L7.00001 5Z" />
  <path d="M7.00001 5L7 6.00001C7 5.44772 7.44772 5.00001 8 5.00001L7.00001 5Z" />
  <path d="M7.00001 19L7.00001 18C7.00001 18.5523 7.44772 19 8.00001 19L7.00001 19Z" />
  <path d="M7.00001 19L7.00001 20C7.00001 19.4477 6.55229 19 6.00001 19H7.00001Z" />
  <path
    d="M19 7.4L19 16.4H20.6C20.8209 16.4 21 16.2209 21 16V7.8C21 7.57909 20.8209 7.4 20.6 7.4H19Z"
  />
  <path d="M17 5V7C17 7.22091 17.1791 7.4 17.4 7.4L19 7.4V5.4C19 5.17909 18.8209 5 18.6 5L17 5Z"
  />
  <path
    d="M17 19V16.8C17 16.5791 17.1791 16.4 17.4 16.4L19 16.4L19 18.6C19 18.8209 18.8209 19 18.6 19H17Z"
  />
  <path d="M19 16.4L20 16.4C19.4477 16.4 19 16.8477 19 17.4L19 16.4Z" />
  <path d="M19 16.4L18 16.4C18.5523 16.4 19 15.9523 19 15.4L19 16.4Z" />
  <path d="M19 7.4L19 6.40001C19 6.95229 19.4477 7.40001 20 7.40001L19 7.4Z" />
  <path d="M19 7.4V8.40001C19 7.84772 18.5523 7.40001 18 7.40001L19 7.4Z" />
  <path d="M17 5L17 4.00001C17 4.55229 17.4477 5.00001 18 5.00001L17 5Z" />
  <path d="M17 5L17 6.00001C17 5.44772 16.5523 5.00001 16 5.00001L17 5Z" />
  <path fill-rule="evenodd" clip-rule="evenodd" d="M17 19L17 18C17 18.5523 16.5523 19 16 19L17 19Z"
  />
  <path fill-rule="evenodd" clip-rule="evenodd" d="M17 19L17 20C17 19.4477 17.4477 19 18 19L17 19Z"
  />
  <path d="M17 5H7.00001L7 3.8C7 3.35817 7.35817 3 7.8 3L16.2 3C16.6418 3 17 3.35817 17 3.8V5Z"
  />
  <path
    d="M7.00001 19H17L17 20.2C17 20.6418 16.6418 21 16.2 21H7.79999C7.35817 21 6.99999 20.6418 6.99999 20.2L7.00001 19Z"
  />
  <path
    d="M14 15.2C14 14.9791 13.8209 14.8 13.6 14.8H10.4C10.1791 14.8 9.99999 14.9791 9.99999 15.2V16C9.99999 16.2209 10.1791 16.4 10.4 16.4H13.6C13.8209 16.4 14 16.2209 14 16V15.2Z"
  />
  <path
    d="M7.99997 10.2747C7.99997 9.90647 8.29845 9.608 8.66664 9.608H9.33331C9.7015 9.608 9.99997 9.90647 9.99997 10.2747V10.9413C9.99997 11.3095 9.7015 11.608 9.33331 11.608H8.66664C8.29845 11.608 7.99997 11.3095 7.99997 10.9413V10.2747Z"
  />
  <path
    d="M14 10.2747C14 9.90647 14.2985 9.608 14.6666 9.608H15.3333C15.7015 9.608 16 9.90647 16 10.2747V10.9413C16 11.3095 15.7015 11.608 15.3333 11.608H14.6666C14.2985 11.608 14 11.3095 14 10.9413V10.2747Z"
  />
</svg>