<svg xmlns="http://www.w3.org/2000/svg" viewBox="0 0 24 24" fill="currentColor">
  <path fill-rule="evenodd" clip-rule="evenodd"
    d="M6 3.9C6 3.66131 6.09031 3.43239 6.25105 3.2636C6.4118 3.09482 6.62981 3 6.85714 3H8.57143C8.79876 3 9.01677 3.09482 9.17752 3.2636C9.33827 3.43239 9.42857 3.66131 9.42857 3.9V20.1C9.42857 20.3387 9.33827 20.5676 9.17752 20.7364C9.01677 20.9052 8.79876 21 8.57143 21H6.85714C6.62981 21 6.4118 20.9052 6.25105 20.7364C6.09031 20.5676 6 20.3387 6 20.1V3.9ZM14.5714 3.9C14.5714 3.66131 14.6617 3.43239 14.8225 3.2636C14.9832 3.09482 15.2012 3 15.4286 3H17.1429C17.3702 3 17.5882 3.09482 17.7489 3.2636C17.9097 3.43239 18 3.66131 18 3.9V20.1C18 20.3387 17.9097 20.5676 17.7489 20.7364C17.5882 20.9052 17.3702 21 17.1429 21H15.4286C15.2012 21 14.9832 20.9052 14.8225 20.7364C14.6617 20.5676 14.5714 20.3387 14.5714 20.1V3.9Z"
  />
</svg>