<svg xmlns="http://www.w3.org/2000/svg" viewBox="0 0 24 24"
  fill="currentColor">
  <path fill-rule="evenodd" clip-rule="evenodd"
    d="M15 8.80005C14.4477 8.80005 14 9.24777 14 9.80005V10.4C14 10.621 13.8209 10.8 13.6 10.8H10.4C10.1791 10.8 10 10.621 10 10.4V9.80005C10 9.24777 9.55228 8.80005 9 8.80005L8.4 8.80005C8.17909 8.80005 8 8.62096 8 8.40005L8 5.20005C8 4.97914 8.17909 4.80005 8.4 4.80005L9 4.80005C9.55228 4.80005 10 4.35233 10 3.80005V3.20005C10 2.97914 10.1791 2.80005 10.4 2.80005H13.6C13.8209 2.80005 14 2.97914 14 3.20005V3.80005C14 4.35233 14.4477 4.80005 15 4.80005L15.6 4.80005C15.8209 4.80005 16 4.97914 16 5.20005V8.40005C16 8.62096 15.8209 8.80005 15.6 8.80005L15 8.80005ZM11 4.80005H13C13.5523 4.80005 14 5.24777 14 5.80005V7.80005C14 8.35233 13.5523 8.80005 13 8.80005H11C10.4477 8.80005 10 8.35233 10 7.80005V5.80005C10 5.24777 10.4477 4.80005 11 4.80005Z"
  />
  <path fill-rule="evenodd" clip-rule="evenodd"
    d="M5.8 21.9C5.35817 21.9 5 21.5419 5 21.1V16.2C5 15.9791 5.17909 15.8 5.4 15.8H6C6.55228 15.8 7 15.3523 7 14.8L7 15.8V14.2C7 13.9791 7.17909 13.8 7.4 13.8H8C8.55228 13.8 9 13.3523 9 12.8L9 12.2001C9 11.9791 9.17909 11.8 9.4 11.8L14.6 11.8001C14.8209 11.8001 15 11.9791 15 12.2001V12.8C15 13.3523 15.4477 13.8 16 13.8L16.6 13.8001C16.8209 13.8001 17 13.9791 17 14.2001V14.8C17 15.3523 17.4477 15.8 18 15.8H18.6C18.8209 15.8 19 15.9791 19 16.2V21.1C19 21.5419 18.6418 21.9 18.2 21.9H5.8ZM8.6 15.8C8.82091 15.8 9 15.621 9 15.4001V14.8C9 14.2478 9.44772 13.8 10 13.8H14C14.5523 13.8 15 14.2478 15 14.8V15.4001C15 15.621 15.1791 15.8 15.4 15.8H16C16.5523 15.8 17 16.2478 17 16.8V19.3C17 19.8523 16.5523 20.3 16 20.3H8C7.44772 20.3 7 19.8523 7 19.3V16.8C7 16.2478 7.44772 15.8 8 15.8H8.6Z"
  />
</svg>