<svg xmlns="http://www.w3.org/2000/svg" viewBox="0 0 24 24" fill="currentColor">
  <path
    d="M15.35 6.75C15.5709 6.75 15.75 6.92909 15.75 7.15V8.35C15.75 8.57091 15.5709 8.75 15.35 8.75L8.65 8.75C8.42909 8.75 8.25 8.57091 8.25 8.35V7.15C8.25 6.92909 8.42909 6.75 8.65 6.75L15.35 6.75Z"
  />
  <path fill-rule="evenodd" clip-rule="evenodd"
    d="M18.6 4C18.8209 4 19 4.17909 19 4.4V5C19 5.55229 19.4477 6 20 6H20.6C20.8209 6 21 6.17909 21 6.4V17.6C21 17.8209 20.8209 18 20.6 18H20C19.4477 18 19 18.4477 19 19V19.6C19 19.8209 18.8209 20 18.6 20L5.4 20C5.17909 20 5 19.8209 5 19.6L5 19C4.99979 18.4479 4.55215 18 4 18H3.4C3.17909 18 3 17.8209 3 17.6V6.4C3 6.17909 3.17909 6 3.4 6H4C4.55194 5.9996 5 5.55204 5 5V4.4C5 4.17909 5.17909 4 5.4 4H18.6ZM6 6C5.44772 6 5 6.44772 5 7V9.5L19 9.5V7C19 6.44803 18.5528 6.0005 18.0009 6L6 6ZM18 18H6C5.44772 18 5 17.5523 5 17L5 11.5H6.7002V15.5H8.3002V11.5H9.7002V15.5H11.3002V11.5H12.7002V15.5H14.3002V11.5H15.7002V15.5H17.3002V11.5L19 11.5V17C19 17.5523 18.5523 18 18 18Z"
  />
</svg>