<svg xmlns="http://www.w3.org/2000/svg" viewBox="0 0 24 24" fill="currentColor">
  <path fill-rule="evenodd" clip-rule="evenodd"
    d="M13 21L12 22L11 21V15.6H6.4C6.17909 15.6 6 15.4209 6 15.2L6 11.4C6 11.1791 6.17909 11 6.4 11H7C7.55229 11 8 10.5523 8 10V7C8 6.44772 7.55229 6 7 6H6.4C6.17909 6 6 5.82092 6 5.6L6 4.4C6 4.17909 6.17909 4 6.4 4H7C7.55229 4 8 3.55228 8 3V2.4C8 2.17909 8.17909 2 8.4 2L15.6 2C15.8209 2 16 2.17909 16 2.4V3C16 3.55228 16.4477 4 17 4H17.6C17.8209 4 18 4.17909 18 4.4V5.6C18 5.82091 17.8209 6 17.6 6L17 6C16.4477 6 16 6.44772 16 7V10C16.0004 10.552 16.4479 11 17 11H17.6C17.8209 11 18 11.1791 18 11.4V15.2C18 15.4209 17.8209 15.6 17.6 15.6H13V21ZM9 11C8.44772 11 8 11.4477 8 12V14H16V12C16 11.4477 15.5523 11 15 11L14.4 11C14.1791 11 14 10.8209 14 10.6L14 6.4C14 6.17909 14.1791 6 14.4 6H15.0014C15.553 5.99925 16 5.55182 16 5C16 4.44772 15.5523 4 15 4L9 4C8.44772 4 8 4.44772 8 5C8 5.55228 8.44772 6 9 6H9.6C9.82091 6 10 6.17909 10 6.4L10 10.6C10 10.8209 9.82091 11 9.6 11H9Z"
  />
</svg>