<svg xmlns="http://www.w3.org/2000/svg" viewBox="0 0 24 24" fill="currentColor">
  <path
    d="M4.6998 4.69995C4.47889 4.69995 4.2998 4.87904 4.2998 5.09995V6.29995C4.2998 6.52087 4.47889 6.69995 4.6998 6.69995H19.3998C19.6207 6.69995 19.7998 6.52087 19.7998 6.29995V5.09995C19.7998 4.87904 19.6207 4.69995 19.3998 4.69995H4.6998Z"
  />
  <path
    d="M4.69981 8.49998C4.47889 8.49998 4.2998 8.67906 4.2998 8.89998V10.1C4.2998 10.3209 4.47889 10.5 4.69981 10.5H9.29981V8.49998H4.69981Z"
  />
  <path
    d="M4.2998 12.7C4.2998 12.4791 4.47889 12.3 4.69981 12.3H9.29981V14.3H4.69981C4.47889 14.3 4.2998 14.1209 4.2998 13.9V12.7Z"
  />
  <path
    d="M19.7998 8.89998C19.7998 8.67906 19.6207 8.49998 19.3998 8.49998L10.6998 8.49997C10.4789 8.49997 10.2998 8.67906 10.2998 8.89997V16.5C10.2998 17.0506 9.85481 17.4973 9.30484 17.5H5.99981C5.33706 17.5 4.79981 18.0372 4.79981 18.7V19.3C4.79981 19.9627 5.33706 20.5 5.99981 20.5H9.09981C9.76255 20.5 10.2998 19.9627 10.2998 19.3V18.5C10.2998 17.9477 10.7475 17.5 11.2998 17.5H11.8998C12.1207 17.5 12.2998 17.3209 12.2998 17.1V10.5H17.7998V16.5C17.7998 17.0506 17.3548 17.4973 16.8048 17.5H13.4998C12.8371 17.5 12.2998 18.0372 12.2998 18.7V19.3C12.2998 19.9627 12.8371 20.5 13.4998 20.5H16.5998C17.2625 20.5 17.7998 19.9627 17.7998 19.3V18.5C17.7998 17.9477 18.2475 17.5 18.7998 17.5H19.3998C19.6207 17.5 19.7998 17.3209 19.7998 17.1V8.89998Z"
  />
</svg>