<svg xmlns="http://www.w3.org/2000/svg" viewBox="0 0 24 24" fill="currentColor">
  <path fill-rule="evenodd" clip-rule="evenodd"
    d="M18 5.30005C17.4477 5.30005 17 4.85233 17 4.30005V4.10005C17 3.65822 16.6418 3.30005 16.2 3.30005L7.8 3.30005C7.35817 3.30005 7 3.65822 7 4.10005L7 5.30005L7 4.30005C7 4.85233 6.55228 5.30005 6 5.30005L5.4 5.30005C5.17909 5.30005 5 5.47914 5 5.70005V7.70005L5 6.70005C5 7.25233 4.55228 7.70005 4 7.70005H3.4C3.17909 7.70005 3 7.87914 3 8.10005V16.3C3 16.521 3.17909 16.7 3.4 16.7H5L5 18.9C5 19.121 5.17909 19.3 5.4 19.3H6C6.55228 19.3 7 19.7478 7 20.3L7 20.5C7 20.9419 7.35817 21.3 7.8 21.3L16.2 21.3C16.6418 21.3 17 20.9419 17 20.5L17 20.3C17 19.7478 17.4477 19.3 18 19.3H18.6C18.8209 19.3 19 19.121 19 18.9L19 17.7C19 17.1478 19.4477 16.7 20 16.7L19 16.7H20.6C20.8209 16.7 21 16.521 21 16.3V8.10005C21 7.87914 20.8209 7.70005 20.6 7.70005H20C19.4477 7.70005 19 7.25233 19 6.70005L19 5.70005C19 5.47914 18.8209 5.30005 18.6 5.30005L18 5.30005ZM15 9.10005C14.4477 9.10005 14 8.65233 14 8.10005V7.50005C14 7.27914 13.8209 7.10005 13.6 7.10005L10.4 7.10005C10.1791 7.10005 10 7.27914 10 7.50005V8.10005C10 8.65233 9.55228 9.10005 9 9.10005H8.4C8.17909 9.10005 8 9.27914 8 9.50005V12.7C8 12.921 8.17909 13.1 8.4 13.1L8.3 13.1C8.78379 13.1 9.18734 13.4436 9.28 13.9C9.18734 14.3565 8.78379 14.7 8.3 14.7H7.4C7.17909 14.7 7 14.8791 7 15.1L7 15.7C7 16.2523 6.55228 16.7 6 16.7C5.44772 16.7 5 16.2523 5 15.7V8.70005C5 8.14776 5.44772 7.70005 6 7.70005H6.6C6.82091 7.70005 7 7.52096 7 7.30005V6.30005C7 5.74776 7.44772 5.30005 8 5.30005H16C16.5523 5.30005 17 5.74776 17 6.30005V7.30005C17 7.52096 17.1791 7.70005 17.4 7.70005H18C18.5523 7.70005 19 8.14776 19 8.70005V15.7C19 16.2523 18.5523 16.7 18 16.7C17.4477 16.7 17 16.2523 17 15.7V15.1C17 14.8791 16.8209 14.7 16.6 14.7H15.5C15.0162 14.7 14.6127 14.3565 14.52 13.9001C14.6127 13.4436 15.0162 13.1 15.5 13.1L15.6 13.1C15.8209 13.1 16 12.921 16 12.7V9.50005C16 9.27914 15.8209 9.10005 15.6 9.10005H15ZM14 10.1C14 9.54776 13.5523 9.10005 13 9.10005H11C10.4477 9.10005 10 9.54776 10 10.1V12.1C10 12.6523 10.4477 13.1 11 13.1H13C13.5523 13.1 14 12.6523 14 12.1V10.1ZM9.3 15.7C9.3 15.1482 9.74696 14.7008 10.2986 14.7001H13.5014C14.053 14.7008 14.5 15.1482 14.5 15.7V16.3C14.5 16.521 14.6791 16.7 14.9 16.7H16C16.5523 16.7 17 17.1478 17 17.7V18.3C17 18.8523 16.5523 19.3 16 19.3H8C7.44772 19.3 7 18.8523 7 18.3V17.7C7 17.1478 7.44772 16.7 8 16.7H8.9C9.12091 16.7 9.3 16.521 9.3 16.3V15.7Z"
  />
  <path d="M5 17.7C5 17.1478 4.55228 16.7 4 16.7L5 16.7L5 17.7Z" />
</svg>