<svg xmlns="http://www.w3.org/2000/svg" viewBox="0 0 24 24" fill="currentColor">
  <path
    d="M4.9999 7.70005L4.9999 14H3.7999C3.57899 14 3.3999 13.821 3.3999 13.6L3.3999 8.10005C3.3999 7.87913 3.57899 7.70005 3.7999 7.70005H4.9999Z"
  />
  <path
    d="M6.99991 5.30005V7.30005C6.99991 7.52096 6.82082 7.70005 6.59991 7.70005H4.9999L4.99991 5.70005C4.99991 5.47913 5.179 5.30005 5.39991 5.30005L6.99991 5.30005Z"
  />
  <path
    d="M4.9999 7.70005L4.99991 6.70005C4.99991 7.25234 4.55219 7.70005 3.99991 7.70005L4.9999 7.70005Z"
  />
  <path
    d="M4.9999 7.70005L4.99991 8.70005C4.99991 8.14777 5.44762 7.70005 5.99991 7.70005L4.9999 7.70005Z"
  />
  <path
    d="M6.99991 5.30005L6.99991 4.30005C6.99991 4.85234 6.55219 5.30005 5.99991 5.30005L6.99991 5.30005Z"
  />
  <path
    d="M6.99991 5.30005L6.99991 6.30005C6.99991 5.74777 7.44762 5.30005 7.99991 5.30005L6.99991 5.30005Z"
  />
  <path
    d="M18.9999 7.70005V16.7H20.5999C20.8208 16.7 20.9999 16.521 20.9999 16.3L20.9999 8.10005C20.9999 7.87913 20.8208 7.70005 20.5999 7.70005H18.9999Z"
  />
  <path
    d="M16.9999 5.30005V7.30005C16.9999 7.52096 17.179 7.70005 17.3999 7.70005H18.9999V5.70005C18.9999 5.47913 18.8208 5.30005 18.5999 5.30005L16.9999 5.30005Z"
  />
  <path
    d="M16.9999 19.3V17.1C16.9999 16.8791 17.179 16.7 17.3999 16.7L18.9999 16.7L18.9999 18.9C18.9999 19.121 18.8208 19.3 18.5999 19.3L16.9999 19.3Z"
  />
  <path
    d="M6.9999 19.3V17.1C6.9999 16.8791 6.82082 16.7 6.5999 16.7L5.3999 16.7C5.17899 16.7 4.9999 16.8791 4.9999 17.1V18.9C4.9999 19.121 5.17899 19.3 5.3999 19.3L6.9999 19.3Z"
  />
  <path d="M18.9999 16.7L19.9999 16.7C19.4476 16.7 18.9999 17.1478 18.9999 17.7V16.7Z" />
  <path d="M18.9999 16.7L17.9999 16.7C18.5522 16.7 18.9999 16.2523 18.9999 15.7V16.7Z" />
  <path
    d="M18.9999 7.70005V6.70005C18.9999 7.25234 19.4476 7.70005 19.9999 7.70005L18.9999 7.70005Z"
  />
  <path
    d="M18.9999 7.70005V8.70005C18.9999 8.14777 18.5522 7.70005 17.9999 7.70005L18.9999 7.70005Z"
  />
  <path
    d="M16.9999 5.30005L16.9999 4.30005C16.9999 4.85234 17.4476 5.30005 17.9999 5.30005L16.9999 5.30005Z"
  />
  <path
    d="M16.9999 5.30005L16.9999 6.30005C16.9999 5.74777 16.5522 5.30005 15.9999 5.30005L16.9999 5.30005Z"
  />
  <path fill-rule="evenodd" clip-rule="evenodd"
    d="M16.9999 19.3V18.3C16.9999 18.8523 16.5522 19.3 15.9999 19.3H16.9999Z" />
  <path fill-rule="evenodd" clip-rule="evenodd"
    d="M16.9999 19.3V20.3C16.9999 19.7478 17.4476 19.3 17.9999 19.3L16.9999 19.3Z" />
  <path fill-rule="evenodd" clip-rule="evenodd"
    d="M6.9999 19.3V18.3C6.9999 18.8523 7.44762 19.3 7.9999 19.3H6.9999Z" />
  <path fill-rule="evenodd" clip-rule="evenodd"
    d="M6.9999 19.3V20.3C6.9999 19.7478 6.55219 19.3 5.9999 19.3L6.9999 19.3Z" />
  <path
    d="M16.9999 5.30005H6.99991L6.9999 4.10005C6.9999 3.65822 7.35807 3.30005 7.7999 3.30005L16.1999 3.30005C16.6417 3.30005 16.9999 3.65822 16.9999 4.10005V5.30005Z"
  />
  <path
    d="M6.9999 19.3H16.9999L16.9999 20.5C16.9999 20.9419 16.6417 21.3 16.1999 21.3H7.7999C7.35807 21.3 6.9999 20.9419 6.9999 20.5L6.9999 19.3Z"
  />
  <path
    d="M11.6578 7.30005C11.4369 7.30005 11.2578 7.47914 11.2578 7.70005V13.7H12.8578C13.0787 13.7 13.2578 13.521 13.2578 13.3L13.2578 7.70005C13.2578 7.47914 13.0787 7.30005 12.8578 7.30005H11.6578Z"
  />
  <path
    d="M8.25783 12.3C8.25783 12.0791 8.43691 11.9 8.65783 11.9H13.2578V13.5C13.2578 13.721 13.0787 13.9 12.8578 13.9H8.65783C8.43691 13.9 8.25783 13.721 8.25783 13.5L8.25783 12.3Z"
  />
  <path
    d="M4.06927 14.476C3.91306 14.3198 3.91306 14.0666 4.06927 13.9104L5.97846 12.0012C6.13467 11.845 6.38793 11.845 6.54414 12.0012L6.93056 12.3876C7.08677 12.5438 7.08677 12.7971 6.93056 12.9533L5.02137 14.8625C4.86516 15.0187 4.6119 15.0187 4.45569 14.8625L4.06927 14.476Z"
  />
  <path
    d="M5.15011 14.7298L2.42131 12.001C2.2651 11.8448 2.01184 11.8448 1.85563 12.001L1.46921 12.3874C1.313 12.5436 1.313 12.7969 1.46921 12.9531L3.91516 15.3991C4.07137 15.5553 4.32464 15.5553 4.48085 15.3991L5.15011 14.7298Z"
  />
</svg>