<svg xmlns="http://www.w3.org/2000/svg" viewBox="0 0 24 24" fill="currentColor">
  <path fill-rule="evenodd" clip-rule="evenodd"
    d="M7 4.4V5C7 5.54895 6.55767 5.99459 6.00999 5.99995H5.4C5.17909 5.99995 5 6.17904 5 6.39995V12.2V12.2H3.8C3.35817 12.2 3 12.5582 3 13V17.6C3 17.8209 3.17909 18 3.4 18H4C4.55228 18 5 18.4477 5 19V19.6C5 19.8209 5.17909 20 5.4 20H7.6C7.82091 20 8 19.8209 8 19.6V19C8 18.4477 8.44772 18 9 18H15C15.5523 18 16 18.4477 16 19V19.6C16 19.8209 16.1791 20 16.4 20H18.6C18.8209 20 19 19.8209 19 19.6V19C19 18.4477 19.4477 18 20 18H20.6C20.8209 18 21 17.8209 21 17.6V13C21 12.5582 20.6418 12.2 20.2 12.2H19V12.2V6.39995C19 6.17904 18.8209 5.99995 18.6 5.99995H17.99C17.4423 5.99459 17 5.54895 17 5V4.4C17 4.17909 16.8209 4 16.6 4H7.4C7.17909 4 7 4.17909 7 4.4ZM8 17V16H16V17C16 17.5523 16.4477 18 17 18H18C18.5523 18 19 17.5523 19 17V14.2H5V17C5 17.5523 5.44772 18 6 18H7C7.55228 18 8 17.5523 8 17ZM16.0007 6C16.5526 6.00036 17 6.44794 17 7V12.2H7V7C7 6.44772 7.44772 6 8 6H16L16.0007 6Z"
  />
</svg>