<svg xmlns="http://www.w3.org/2000/svg" viewBox="0 0 24 24" fill="currentColor">
  <path fill-rule="evenodd" clip-rule="evenodd"
    d="M7 5L17 5L16 5C16.5523 5 17 5.44772 17 6V7C17 7.22091 17.1791 7.4 17.4 7.4H19L19 7.40002L18 7.40002C18.5523 7.40002 19 7.84774 19 8.40002V15.4L19 15.4013C18.9993 15.9507 18.5556 16.3963 18.007 16.4H17.4C17.1791 16.4 17 16.5791 17 16.8V18C17 18.5523 16.5523 19 16 19L8 19C7.44772 19 7 18.5523 7 18L7 19V16.8C7 16.5791 6.82091 16.4 6.6 16.4H5.99303C5.44396 16.3962 5.00001 15.95 5.00001 15.4V16.4H5V18.6C5 18.8209 5.17909 19 5.4 19L6 19L6.0014 19C6.55271 19.0008 6.99947 19.4476 7 19.999L7 20L7 20.2C7 20.6418 7.35817 21 7.8 21L16.2 21C16.6418 21 17 20.6418 17 20.2L17 20C17 19.4477 17.4477 19 18 19H18.6C18.8209 19 19 18.8209 19 18.6L19 17.4C19 16.8477 19.4477 16.4 20 16.4L19 16.4H20.6C20.8209 16.4 21 16.2209 21 16V7.80002C21 7.57911 20.8209 7.40002 20.6 7.40002L20 7.40002L19.999 7.40002C19.4472 7.39949 19 6.95198 19 6.40002L19 5.4C19 5.17909 18.8209 5 18.6 5H17.9989C17.4471 4.99943 17 4.55193 17 4V3.8C17 3.35817 16.6418 3 16.2 3H7.8C7.35817 3 7 3.35817 7 3.8L7 4C7 4.55193 6.55286 4.99943 6.00106 5H5.4C5.17909 5 5 5.17909 5 5.4V6.40002C5 6.95198 4.55282 7.39949 4.00099 7.40002L4 7.40002L3.4 7.40002C3.17909 7.40002 3 7.57911 3 7.80002V16C3 16.2209 3.17909 16.4 3.4 16.4H5L5 7.40002L5 7.4H6.6C6.82091 7.4 7 7.22091 7 7L7 6C7 5.44772 7.44772 5 8 5L7 5ZM5 17.4V16.4H4C4.55228 16.4 5 16.8477 5 17.4ZM6 7.40002C5.44772 7.40002 5 7.84774 5 8.40002V7.40002H6ZM10.9958 14.8H14V14.8001H13C13.5518 14.8001 13.9992 15.2471 14 15.7987L14 15.8001L14 16C14 16.2209 14.1791 16.4 14.4 16.4H15.6C15.8209 16.4 16 16.2209 16 16V15.2C16 14.9791 15.8209 14.8 15.6 14.8H14.9865C14.4404 14.7928 14 14.3479 14 13.8001V13.6C14 13.3791 13.8209 13.2 13.6 13.2H10.4C10.1791 13.2 10 13.3791 10 13.6L10 13.8L10 13.8016C9.99916 14.3512 9.55487 14.7969 9.00576 14.8H8.4C8.17909 14.8 8 14.9791 8 15.2V16C8 16.2209 8.17909 16.4 8.4 16.4H9.6C9.82092 16.4 10 16.2209 10 16L10 15.8L10 15.7985C10.0008 15.2483 10.446 14.8023 10.9958 14.8ZM7.88851 11.2592C7.98999 11.6131 8.35918 11.8178 8.71311 11.7163L9.73845 11.4223C10.0924 11.3208 10.297 10.9516 10.1955 10.5977L10.0118 9.95681C9.91029 9.60289 9.5411 9.39824 9.18718 9.49973L8.16183 9.79374C7.8079 9.89523 7.60326 10.2644 7.70475 10.6183L7.88851 11.2592ZM14.2199 11.4222C13.866 11.3207 13.6614 10.9515 13.7629 10.5976L13.9466 9.95672C14.0481 9.60279 14.4173 9.39815 14.7712 9.49964L15.7966 9.79365C16.1505 9.89514 16.3551 10.2643 16.2536 10.6183L16.0699 11.2591C15.9684 11.613 15.5992 11.8177 15.2453 11.7162L14.2199 11.4222Z"
  />
</svg>