<svg xmlns="http://www.w3.org/2000/svg" viewBox="0 0 24 24" fill="currentColor">
  <path fill-rule="evenodd" clip-rule="evenodd"
    d="M9.8999 3.90002C13.4898 3.90002 16.3999 6.81017 16.3999 10.4C16.3999 12.4501 15.4508 14.2786 13.968 15.4699C14.5782 15.5766 15.2285 15.3989 15.7054 14.9368L15.7281 14.9141L20.3951 19.581C20.5513 19.7372 20.5513 19.9904 20.3951 20.1466L19.5465 20.9952C19.3903 21.1514 19.137 21.1514 18.9808 20.9952L13.6767 15.6908C12.6122 16.452 11.3084 16.9 9.8999 16.9C6.31005 16.9 3.3999 13.9899 3.3999 10.4C3.3999 6.81017 6.31005 3.90002 9.8999 3.90002ZM9.8999 5.50002C12.6061 5.50002 14.7999 7.69383 14.7999 10.4C14.7999 13.1062 12.6061 15.3 9.8999 15.3C7.19371 15.3 4.9999 13.1062 4.9999 10.4C4.9999 7.69383 7.19371 5.50002 9.8999 5.50002Z"
  />
</svg>