<svg xmlns="http://www.w3.org/2000/svg" viewBox="0 0 24 24" fill="currentColor">
  <path fill-rule="evenodd" clip-rule="evenodd"
    d="M11.1921 4.1196C11.2034 4.10828 11.2152 4.09778 11.2275 4.0881L11.7326 3.58298C11.8888 3.42677 12.1421 3.42677 12.2983 3.58298L14.7442 6.02893C14.9004 6.18514 14.9004 6.43841 14.7442 6.59462L14.3578 6.98104C14.2016 7.13725 13.9483 7.13725 13.7921 6.98104L12.7 5.88896L12.7 13.8367C12.7 14.0577 12.521 14.2367 12.3 14.2367H11.6C11.3791 14.2367 11.2 14.0577 11.2 13.8367L11.2 6.01581L10.235 6.98089C10.0788 7.1371 9.8255 7.1371 9.66929 6.98089L9.28287 6.59447C9.12666 6.43826 9.12666 6.185 9.28287 6.02879L11.1921 4.1196ZM11.9791 5.23674H12.0478L12.0135 5.20239L11.9791 5.23674Z"
  />
  <path
    d="M10 10.1C10 10.321 9.82091 10.5 9.6 10.5H7C6.44772 10.5 6 10.9478 6 11.5V17.9001C6 18.4524 6.44772 18.9001 7 18.9001H17C17.5523 18.9001 18 18.4524 18 17.9001V11.5C18 10.9478 17.5523 10.5 17 10.5H14.5C14.2791 10.5 14.1 10.321 14.1 10.1V8.90004C14.1 8.67913 14.2791 8.50004 14.5 8.50004L17.6 8.50004C17.8209 8.50004 18 8.67913 18 8.90004V9.50004C18 10.0523 18.4477 10.5 19 10.5H18L19.6 10.5002C19.8209 10.5002 20 10.6793 20 10.9002V18.5001C20 18.721 19.8209 18.9001 19.6 18.9001H18.9888C18.4417 18.9061 18 19.3515 18 19.9001V20.5001C18 20.721 17.8209 20.9001 17.6 20.9001H6.4C6.17909 20.9001 6 20.721 6 20.5001V19.9001C6 19.3515 5.55831 18.9061 5.01116 18.9001H4.4C4.17909 18.9001 4 18.721 4 18.5001V10.9002C4 10.6793 4.17909 10.5002 4.4 10.5002H6L5 10.5C5.55228 10.5 6 10.0523 6 9.50004V8.90004C6 8.67913 6.17909 8.50004 6.4 8.50004L9.6 8.50004C9.82091 8.50004 10 8.67913 10 8.90004V10.1Z"
  />
</svg>