<svg xmlns="http://www.w3.org/2000/svg" viewBox="0 0 24 24" fill="currentColor">
  <path fill-rule="evenodd" clip-rule="evenodd"
    d="M16.9092 21.2318C17.108 21.2318 17.2692 21.0706 17.2692 20.8718V20.3318C17.2692 19.8347 17.6721 19.4318 18.1692 19.4318H18.7092C18.908 19.4318 19.0692 19.2706 19.0692 19.0718V18.5307C19.0698 18.0342 19.4725 17.6318 19.9692 17.6318H20.5092C20.708 17.6318 20.8692 17.4706 20.8692 17.2718V16.1918C20.8692 15.993 20.708 15.8318 20.5092 15.8318H19.9692C19.4725 15.8318 19.0698 15.4294 19.0692 14.9328V14.3918C19.0692 14.193 18.908 14.0318 18.7092 14.0318L18.1692 14.0318C17.6721 14.0318 17.2692 13.6288 17.2692 13.1318V12.5918C17.2692 12.393 17.108 12.2318 16.9092 12.2318H15.8292C15.6304 12.2318 15.4692 12.393 15.4692 12.5918L15.4692 13.1318C15.4692 13.6288 15.0662 14.0318 14.5692 14.0318L14.0292 14.0318C13.8304 14.0318 13.6692 14.193 13.6692 14.3918V14.9318C13.6692 15.4288 13.2662 15.8318 12.7692 15.8318H12.2292C12.0304 15.8318 11.8692 15.993 11.8692 16.1918V17.2718C11.8692 17.4706 12.0304 17.6318 12.2292 17.6318H12.7692C13.2662 17.6318 13.6692 18.0347 13.6692 18.5318V19.0718C13.6692 19.2706 13.8304 19.4318 14.0292 19.4318H14.5692C15.0662 19.4318 15.4692 19.8347 15.4692 20.3318L15.4692 20.8718C15.4692 21.0706 15.6304 21.2318 15.8292 21.2318H16.9092ZM13.6692 16.7318C13.6692 16.2347 14.0721 15.8318 14.5692 15.8318H15.1092C15.308 15.8318 15.4692 15.6706 15.4692 15.4718V14.9318C15.4692 14.435 15.8716 14.0323 16.3683 14.0318C16.8653 14.0318 17.2692 14.4347 17.2692 14.9318L17.2692 15.4718C17.2692 15.6706 17.4304 15.8318 17.6292 15.8318H18.1692C18.6662 15.8318 19.0692 16.2347 19.0692 16.7318C19.0692 17.2288 18.6662 17.6318 18.1692 17.6318H17.6292C17.4304 17.6318 17.2692 17.793 17.2692 17.9918L17.2692 18.5318C17.2692 19.0288 16.8662 19.4318 16.3692 19.4318C15.8721 19.4318 15.4692 19.0288 15.4692 18.5318V17.9918C15.4692 17.793 15.308 17.6318 15.1092 17.6318H14.5692C14.0721 17.6318 13.6692 17.2288 13.6692 16.7318Z"
  />
  <path fill-rule="evenodd" clip-rule="evenodd"
    d="M10.5309 14.3818H11.0109C11.1876 14.3818 11.3309 14.5251 11.3309 14.7018V18.7618C11.3309 18.9385 11.1876 19.0818 11.0109 19.0818L10.5309 19.0818C10.089 19.0818 9.73086 19.44 9.73086 19.8818L9.73086 20.3618C9.73086 20.5385 9.58759 20.6818 9.41086 20.6818L5.05086 20.6818C4.87413 20.6818 4.73086 20.5385 4.73086 20.3618L4.73086 19.8818C4.73086 19.44 4.37269 19.0818 3.93086 19.0818L3.45086 19.0818C3.27413 19.0818 3.13086 18.9385 3.13086 18.7618V14.7018C3.13086 14.5251 3.27413 14.3818 3.45086 14.3818H3.93086C4.37269 14.3818 4.73086 14.0236 4.73086 13.5818L4.73086 13.1018C4.73086 12.9251 4.87413 12.7818 5.05086 12.7818H9.41086C9.58759 12.7818 9.73086 12.9251 9.73086 13.1018L9.73086 13.5818C9.73086 14.0236 10.089 14.3818 10.5309 14.3818ZM5.53086 19.0818H8.93086C9.37269 19.0818 9.73086 18.7236 9.73086 18.2818V15.1818C9.73086 14.74 9.37269 14.3818 8.93086 14.3818H5.53086C5.08903 14.3818 4.73086 14.74 4.73086 15.1818L4.73086 14.3818V19.0818L4.73086 18.2818C4.73086 18.7236 5.08903 19.0818 5.53086 19.0818Z"
  />
  <path fill-rule="evenodd" clip-rule="evenodd"
    d="M11.5953 9.63027L11.6243 9.62828L10.6152 11.3522C10.5696 11.523 10.4139 11.6488 10.2287 11.6488L4.87944 11.6488C4.71911 11.6488 4.58081 11.5544 4.51702 11.4182L3.46924 9.62828L3.50043 9.63042C3.38609 9.50513 3.3603 9.31553 3.44963 9.1608L6.12427 4.52819C6.19886 4.39899 6.33466 4.32715 6.4739 4.32814L6.46006 4.30902H8.63234L8.61849 4.32817C8.75886 4.32604 8.89617 4.39799 8.97134 4.52819L11.646 9.1608C11.7353 9.31546 11.7095 9.50498 11.5953 9.63027ZM5.05048 10.2432C4.90407 10.2139 4.64726 10.0678 4.75267 9.71638L7.24735 5.39404C7.48674 5.14116 7.72899 5.26453 7.83646 5.37361L10.3436 9.71619L10.3409 9.71638C10.4463 10.0678 10.1895 10.2139 10.0431 10.2432H5.05048Z"
  />
  <path fill-rule="evenodd" clip-rule="evenodd"
    d="M19.6692 5.44875H20.1492C20.3259 5.44875 20.4692 5.59202 20.4692 5.76875V9.82875C20.4692 10.0055 20.3259 10.1488 20.1492 10.1488H19.6692C19.2274 10.1488 18.8692 10.5069 18.8692 10.9488V11.4288C18.8692 11.6055 18.7259 11.7488 18.5492 11.7488L14.1892 11.7488C14.0125 11.7488 13.8692 11.6055 13.8692 11.4288V10.9488C13.8692 10.5069 13.511 10.1488 13.0692 10.1488H12.5892C12.4125 10.1488 12.2692 10.0055 12.2692 9.82875L12.2692 5.76875C12.2692 5.59202 12.4125 5.44875 12.5892 5.44875H13.0692C13.511 5.44875 13.8692 5.09058 13.8692 4.64875V4.16875C13.8692 3.99202 14.0125 3.84875 14.1892 3.84875H18.5492C18.7259 3.84875 18.8692 3.99202 18.8692 4.16875V4.64875C18.8692 5.09058 19.2274 5.44875 19.6692 5.44875ZM13.8692 6.24875V9.34875C13.8692 9.79017 14.2267 10.1481 14.6679 10.1488L18.0704 10.1488C18.5117 10.1481 18.8692 9.79017 18.8692 9.34875V6.24875C18.8692 5.80693 18.511 5.44875 18.0692 5.44875H14.6692C14.2274 5.44875 13.8692 5.80693 13.8692 6.24875Z"
  />
</svg>