<svg xmlns="http://www.w3.org/2000/svg" viewBox="0 0 24 24" fill="currentColor">
  <path fill-rule="evenodd" clip-rule="evenodd"
    d="M17 4.90002C17 5.45218 17.4475 5.89981 17.9996 5.90002H18.6C18.8209 5.90002 19 6.07911 19 6.30002V7.30005C19 7.85233 19.4477 8.30005 20 8.30005H20.6C20.8209 8.30005 21 8.47914 21 8.70005V16.9C21 17.121 20.8209 17.3 20.6 17.3H20C19.4477 17.3 19 17.7478 19 18.3V19.5C19 19.7209 18.8209 19.9 18.6 19.9H18C17.4477 19.9 17 20.3477 17 20.9V21.1C17 21.5419 16.6418 21.9 16.2 21.9H7.8C7.35817 21.9 7 21.5419 7 21.1V20.9C7 20.3477 6.55228 19.9 6 19.9H5.4C5.17909 19.9 5 19.7209 5 19.5L5 18.3C5 17.7478 4.55228 17.3 4 17.3H3.4C3.17909 17.3 3 17.121 3 16.9V8.70005C3 8.47914 3.17909 8.30005 3.4 8.30005H4C4.55228 8.30005 5 7.85233 5 7.30005L5 6.30002C5 6.07911 5.17909 5.90002 5.4 5.90002L6 5.90002C6.55211 5.89981 7 5.45218 7 4.90002V4.70002C7 4.2582 7.35817 3.90002 7.8 3.90002H16.2C16.6418 3.90002 17 4.2582 17 4.70003V4.90002ZM17 18.9C17 19.4523 16.5523 19.9 16 19.9H14.6C14.8209 19.9 15 19.7209 15 19.5V18.3C15 17.7478 15.4477 17.3 16 17.3H16.6C16.8209 17.3 17 17.121 17 16.9V14.4H19V16.3C19 16.85 18.5561 17.2963 18.007 17.3H17.4C17.1791 17.3 17 17.4791 17 17.7V18.9ZM19 12.4V9.30005C19 8.74776 18.5523 8.30005 18 8.30005H19L17.4 8.30002C17.1791 8.30002 17 8.12094 17 7.90002V6.90002C17 6.34774 16.5523 5.90002 16 5.90002L14.6 5.90002C14.8209 5.90002 15 6.07911 15 6.30002V7.30005C15 7.85233 15.4477 8.30005 16 8.30005H16.6C16.8209 8.30005 17 8.47914 17 8.70005V12.4H19ZM13 18.9C13 19.4523 12.5523 19.9 12 19.9C11.4477 19.9 11 19.4523 11 18.9V17.7C11 17.4791 10.8209 17.3 10.6 17.3H9.99302C9.44395 17.2963 9 16.85 9 16.3V14.4H15V16.3C15 16.85 14.5561 17.2963 14.007 17.3H13.4C13.1791 17.3 13 17.4791 13 17.7V18.9ZM15 12.4H9V9.30005C9 8.74776 9.44772 8.30005 10 8.30005H9L10.6 8.30002C10.8209 8.30002 11 8.12094 11 7.90002V6.90002C11 6.34774 11.4477 5.90002 12 5.90002C12.5523 5.90002 13 6.34774 13 6.90002V7.90002C13 8.12094 13.1791 8.30002 13.4 8.30002L15 8.30002L14 8.30005C14.5523 8.30005 15 8.74776 15 9.30005V12.4ZM7 12.4V8.70005C7 8.47914 7.17909 8.30005 7.4 8.30005H8C8.55228 8.30005 9 7.85233 9 7.30005L9 6.30002C9 6.07911 9.17909 5.90002 9.4 5.90002L8 5.90002C7.44772 5.90002 7 6.34774 7 6.90002V7.90002C7 8.12094 6.82091 8.30002 6.6 8.30002L5 8.30002L6 8.30005C5.44772 8.30005 5 8.74776 5 9.30005V12.4H7ZM5 14.4V16.3C5.00035 16.8497 5.44417 17.2963 5.99302 17.3H6.6C6.82091 17.3 7 17.4791 7 17.7V18.9C7 19.4523 7.44772 19.9 8 19.9H9.4C9.17909 19.9 9 19.7209 9 19.5L9 18.3C9 17.7478 8.55228 17.3 8 17.3H7.4C7.17909 17.3 7 17.121 7 16.9V14.4H5Z"
  />
</svg>