<svg xmlns="http://www.w3.org/2000/svg" viewBox="0 0 24 24" fill="currentColor">
  <path
    d="M4.69158 19.8688C4.40186 19.8688 4.16699 19.6339 4.16699 19.3442L4.16699 4.39337C4.16699 4.10364 4.40186 3.86877 4.69158 3.86877L7.2424 3.86877C7.53212 3.86877 7.76699 4.10364 7.76699 4.39336L7.76699 19.3442C7.76699 19.6339 7.53213 19.8688 7.2424 19.8688H4.69158Z"
  />
  <path
    d="M10.7244 19.8688C10.4347 19.8688 10.1998 19.6339 10.1998 19.3442L10.1998 9.5934C10.1998 9.30368 10.4347 9.06881 10.7244 9.06881H13.2752C13.5649 9.06881 13.7998 9.30368 13.7998 9.5934V19.3442C13.7998 19.6339 13.5649 19.8688 13.2752 19.8688H10.7244Z"
  />
  <path
    d="M16.7572 19.8688C16.4674 19.8688 16.2326 19.6339 16.2326 19.3442L16.2326 13.836C16.2326 13.5463 16.4674 13.3114 16.7572 13.3114H19.308C19.5977 13.3114 19.8326 13.5463 19.8326 13.836V19.3442C19.8326 19.6339 19.5977 19.8688 19.308 19.8688H16.7572Z"
  />
</svg>