<svg xmlns="http://www.w3.org/2000/svg" viewBox="0 0 24 24" fill="currentColor">
  <path fill-rule="evenodd" clip-rule="evenodd"
    d="M12 5.30002C12 5.07911 11.8209 4.90002 11.6 4.90002H5.4C5.17909 4.90002 5 5.07911 5 5.30002L5 5.90002C4.99969 6.45173 4.55261 6.89951 4.00095 6.90002L3.4 6.90002C3.17909 6.90002 3 7.07911 3 7.30002V18.5C3 18.7209 3.17909 18.9 3.4 18.9H4C4.5521 18.9 4.9997 19.3474 5 19.8995L5 20.5C5 20.7209 5.17909 20.9 5.4 20.9H18.6C18.8209 20.9 19 20.7209 19 20.5V19.9C19 19.3477 19.4477 18.9 20 18.9H20.6C20.8209 18.9 21 18.7209 21 18.5V11.3C21 11.0791 20.8209 10.9 20.6 10.9L20 10.9C19.4482 10.8995 19 10.452 19 9.90002V9.30002C19 9.07911 18.8209 8.90002 18.6 8.90002H12V5.30002ZM18 10.9H10.8C10.5791 10.9 10.4 10.7209 10.4 10.5V6.90002H6C5.44772 6.90002 5 7.34774 5 7.90002L5 6.90002V13.9L19 13.9V11.9C19 11.3477 18.5523 10.9 18 10.9ZM5 17.9C5 18.4523 5.44772 18.9 6 18.9H18C18.5523 18.9 19 18.4523 19 17.9V15.9H17.5V18.1H16.5V15.9H15V18.1H14V15.9H12.5V18.1H11.5V15.9H10V18.1H9V15.9H7.5V18.1H6.5V15.9H5L5 17.9Z"
  />
</svg>