<svg xmlns="http://www.w3.org/2000/svg" viewBox="0 0 24 24" fill="currentColor">
  <path
    d="M5 3.4C5 3.17909 5.17909 3 5.4 3H18.6C18.8209 3 19 3.17909 19 3.4V4C19 4.55228 19.4477 5 20 5H20.6C20.8209 5 21 5.17909 21 5.4V8.6C21 8.82091 20.8209 9 20.6 9H19.4C19.1791 9 19 8.82091 19 8.6V6C19 5.44772 18.5523 5 18 5H13V19H17V20.6C17 20.8209 16.8209 21 16.6 21H7.4C7.17909 21 7 20.8209 7 20.6V19.4C7 19.1791 7.17909 19 7.4 19H11V5H6C5.44772 5 5 5.44772 5 6V8.6C5 8.82091 4.82091 9 4.6 9H3.4C3.17909 9 3 8.82091 3 8.6V5.4C3 5.17909 3.17909 5 3.4 5H4C4.55228 5 5 4.55228 5 4V3.4Z"
  />
</svg>