<svg xmlns="http://www.w3.org/2000/svg" viewBox="0 0 24 24" fill="currentColor">
  <path
    d="M18.823 2.82761C18.9792 2.6714 19.2325 2.6714 19.3887 2.82761L20.9444 4.38324C21.1006 4.53945 21.1006 4.79272 20.9444 4.94893L19.813 6.0803L17.6917 3.95898L18.823 2.82761Z"
  />
  <path
    d="M10.309 21.1705C9.99655 21.4829 9.49001 21.4829 9.17759 21.1705L2.6015 14.5944C2.28908 14.282 2.28908 13.7754 2.6015 13.463L3.16719 12.8973L10.8747 20.6048L10.309 21.1705Z"
  />
  <path
    d="M17.6917 3.95898L16.9849 4.66618C17.3754 4.27565 18.0086 4.27565 18.3991 4.66618L17.6917 3.95898Z"
  />
  <path
    d="M17.6917 3.95898L18.3991 3.25196C18.0086 3.64248 17.3755 3.64248 16.9849 3.25196L17.6917 3.95898Z"
  />
  <path
    d="M6.06899 12.8126L5.36188 13.5197C5.7524 13.1292 6.38557 13.1292 6.77609 13.5197L6.06899 12.8126Z"
  />
  <path
    d="M6.06899 12.8126L6.77609 12.1055C6.38557 12.496 5.7524 12.496 5.36188 12.1055L6.06899 12.8126Z"
  />
  <path fill-rule="evenodd" clip-rule="evenodd"
    d="M12.0456 6.46264C12.2717 6.47421 12.4921 6.38944 12.6522 6.22937L16.0244 2.85714C16.1806 2.70093 16.4339 2.70093 16.5901 2.85714L17.7215 3.98851L13.6264 8.0836C13.3463 8.36373 12.9606 8.51206 12.5649 8.49182L7.01695 8.20797C6.92549 8.20329 6.87637 8.31379 6.94113 8.37855L9.14634 10.5838C9.69307 11.1305 9.69307 12.0169 9.14634 12.5637L7.76603 13.944C7.60982 14.1002 7.35656 14.1002 7.20035 13.944L6.06899 12.8126L6.74217 12.1394C7.05459 11.827 7.05459 11.3204 6.74217 11.008L4.23985 8.50569C3.33329 7.59913 4.02093 6.05206 5.30133 6.11757L12.0456 6.46264Z"
  />
  <path
    d="M4.08644 11.9781C4.39886 11.6657 4.90539 11.6657 5.21781 11.9781L6.06634 12.8266L4.58141 14.3115L3.16719 12.8973L4.08644 11.9781Z"
  />
  <path
    d="M11.7939 19.6855C12.1063 19.3731 12.1063 18.8666 11.7939 18.5542L10.9454 17.7056L9.46045 19.1906L10.8747 20.6048L11.7939 19.6855Z"
  />
  <path
    d="M19.8112 6.07844L19.1041 6.78555C19.4946 6.39503 19.4946 5.76186 19.1041 5.37134L19.8112 6.07844Z"
  />
  <path
    d="M19.8112 6.07844L20.5183 5.37134C20.1277 5.76186 20.1277 6.39503 20.5183 6.78555L19.8112 6.07844Z"
  />
  <path
    d="M10.9576 17.7015L10.2505 18.4086C10.641 18.0181 10.641 17.3849 10.2505 16.9944L10.9576 17.7015Z"
  />
  <path
    d="M10.9576 17.7015L11.6647 16.9944C11.2742 17.3849 11.2742 18.0181 11.6647 18.4086L10.9576 17.7015Z"
  />
  <path fill-rule="evenodd" clip-rule="evenodd"
    d="M17.3076 11.7248C17.296 11.4988 17.3808 11.2784 17.5408 11.1183L20.9131 7.74606C21.0693 7.58985 21.0693 7.33658 20.9131 7.18037L19.7817 6.049L15.6866 10.1441C15.4065 10.4242 15.2581 10.8099 15.2784 11.2056L15.549 16.4938C15.5583 16.6768 15.3373 16.775 15.2078 16.6455L13.1865 14.6241C12.6397 14.0774 11.7533 14.0774 11.2066 14.6241L9.82626 16.0044C9.67005 16.1607 9.67005 16.4139 9.82626 16.5701L10.9576 17.7015L11.6308 17.0283C11.9432 16.7159 12.4498 16.7159 12.7622 17.0283L15.2645 19.5306C16.1711 20.4372 17.7181 19.7496 17.6526 18.4692L17.3076 11.7248Z"
  />
</svg>