<svg xmlns="http://www.w3.org/2000/svg" viewBox="0 0 24 24" fill="currentColor">
  <path fill-rule="evenodd" clip-rule="evenodd"
    d="M15.3358 2.10983C15.1796 1.95362 14.9263 1.95362 14.7701 2.10983L13.9216 2.95836C13.7654 3.11457 13.7654 3.36784 13.9216 3.52405L14.3582 3.96063C14.7331 4.34852 14.7325 4.96483 14.3564 5.35197L13.9216 5.78673C13.7654 5.94294 13.7654 6.19621 13.9216 6.35242L15.0529 7.48376L11.8636 10.6731L10.7323 9.54184C10.5761 9.38563 10.3228 9.38563 10.1666 9.54184L10.0252 9.68326C9.86899 9.83947 9.86899 10.0927 10.0252 10.2489L11.1565 11.3802L10.4495 12.0872L9.31824 10.956C9.16203 10.7998 8.90876 10.7998 8.75255 10.956L8.61113 11.0974C8.45492 11.2537 8.45492 11.5069 8.61113 11.6631L9.74235 12.7944L9.03509 13.5016L7.90369 12.3702C7.74748 12.214 7.49421 12.214 7.338 12.3702L7.19658 12.5116C7.04037 12.6678 7.04037 12.9211 7.19658 13.0773L8.32799 14.2087L4.078 18.4587L2.80524 17.1859C2.72713 17.1078 2.6005 17.1078 2.52239 17.1859L2.09813 17.6102C2.02002 17.6883 2.02002 17.8149 2.09813 17.893L6.05793 21.8528C6.13603 21.931 6.26267 21.931 6.34077 21.8528L6.76503 21.4286C6.84314 21.3505 6.84314 21.2238 6.76503 21.1457L5.49221 19.8729L7.25991 18.1052L8.99749 19.8428C9.1537 19.999 9.40696 19.999 9.56317 19.8428L10.6945 18.7114L8.67413 16.691L9.7422 15.6229L11.748 17.6287L11.2427 18.134C10.8548 18.3885 10.3288 18.3453 9.98781 18.0043L10.6801 18.6966L10.6945 18.7114L9.98781 19.4185C10.3758 19.0305 11.0034 19.028 11.3945 19.411L11.8115 19.828C11.9677 19.9842 12.2209 19.9842 12.3771 19.828L17.483 14.7221C17.6392 14.5659 17.6392 14.3127 17.483 14.1565L16.3663 13.0397L17.0589 13.7322C16.7174 13.3908 16.6745 12.8638 16.9302 12.4757L17.4975 11.9085C17.6537 11.7523 17.6537 11.499 17.4975 11.3428L15.7599 9.60522L16.4672 8.89797L17.5986 10.0294C17.7548 10.1856 18.008 10.1856 18.1642 10.0294L19.2956 8.89803L18.5885 9.60511C18.9764 9.21723 19.6037 9.21461 19.9948 9.59724L20.427 10.0294C20.5832 10.1856 20.8365 10.1856 20.9927 10.0294L21.8412 9.1809C21.9974 9.02469 21.9974 8.77143 21.8412 8.61522L15.3358 2.10983ZM12.4551 16.9216L13.1624 16.2144L11.1566 14.2086L10.4493 14.9158L12.4551 16.9216ZM13.8695 15.5073L11.8637 13.5015L12.5707 12.7944L14.5765 14.8002L13.8695 15.5073ZM15.2836 14.0931L15.6569 13.7199C16.0296 13.3342 16.0312 12.7227 15.6614 12.3352L14.3457 11.0194L13.2778 12.0873L15.2836 14.0931Z"
  />
</svg>