<svg xmlns="http://www.w3.org/2000/svg" viewBox="0 0 24 24" fill="currentColor">
  <path
    d="M14.4 5.59998C14.1791 5.59998 14 5.77906 14 5.99998V9.19998C14 9.42089 14.1791 9.59998 14.4 9.59998H15.6C15.8209 9.59998 16 9.42089 16 9.19998V5.99998C16 5.77906 15.8209 5.59998 15.6 5.59998H14.4Z"
  />
  <path
    d="M3 6.99998C3 6.77906 3.17909 6.59998 3.4 6.59998H12.9V8.59998H3.4C3.17909 8.59998 3 8.42089 3 8.19998V6.99998Z"
  />
  <path
    d="M18 6.59998H20.6C20.8209 6.59998 21 6.77906 21 6.99998V8.19998C21 8.42089 20.8209 8.59998 20.6 8.59998H18V6.59998Z"
  />
  <path
    d="M21 12C21 11.7791 20.8209 11.6 20.6 11.6H11.1V13.6H20.6C20.8209 13.6 21 13.4209 21 13.2V12Z"
  />
  <path d="M3.4 11.6H6V13.6H3.4C3.17909 13.6 3 13.4209 3 13.2V12C3 11.7791 3.17909 11.6 3.4 11.6Z"
  />
  <path
    d="M10 11C10 10.7791 9.82091 10.6 9.6 10.6H8.4C8.17909 10.6 8 10.7791 8 11V14.2C8 14.4209 8.17909 14.6 8.4 14.6H9.6C9.82091 14.6 10 14.4209 10 14.2V11Z"
  />
  <path
    d="M3.4 16.6C3.17909 16.6 3 16.7791 3 17V18.2C3 18.4209 3.17909 18.6 3.4 18.6H12.9V16.6H3.4Z"
  />
  <path
    d="M18 16.6H20.6C20.8209 16.6 21 16.7791 21 17V18.2C21 18.4209 20.8209 18.6 20.6 18.6H18V16.6Z"
  />
  <path
    d="M14.4 15.6C14.1791 15.6 14 15.7791 14 16V19.2C14 19.4209 14.1791 19.6 14.4 19.6H15.6C15.8209 19.6 16 19.4209 16 19.2V16C16 15.7791 15.8209 15.6 15.6 15.6H14.4Z"
  />
</svg>