<svg xmlns="http://www.w3.org/2000/svg" viewBox="0 0 24 24" fill="currentColor">
  <path fill-rule="evenodd" clip-rule="evenodd"
    d="M14.6 2C14.8209 2 15 2.17909 15 2.4V3.0014C15.0008 3.55304 15.4482 4 16 4H16.6C16.8209 4 17 4.17909 17 4.4V6H19.6C19.8209 6 20 6.17909 20 6.4V7.0014C20.0008 7.55304 20.4482 8 21 8H21.6C21.8209 8 22 8.17909 22 8.4V18.6C22 18.8209 21.8209 19 21.6 19H21C20.4477 19 20 19.4477 20 20V20.6C20 20.8209 19.8209 21 19.6 21H4.4C4.17909 21 4 20.8209 4 20.6V20C4 19.4477 3.55228 19 3 19H2.4C2.17909 19 2 18.8209 2 18.6V8.4C2 8.17909 2.17909 8 2.4 8H3C3.55229 8 4 7.55228 4 7V6.4C4 6.17909 4.17908 6 4.4 6H7V4.4C7 4.17909 7.17909 4 7.4 4H8C8.55182 4 8.99925 3.55304 9 3.0014L9 3L9 2.4C9 2.17909 9.17909 2 9.4 2H14.6ZM4 18V16.4H20V18.0013C19.9993 18.553 19.5519 19 19 19H5C4.44771 19 4 18.5523 4 18ZM15 5C15 4.44772 14.5523 4 14 4H10C9.44772 4 9 4.44772 9 5V6H15V5ZM19 8C19.5523 8 20 8.44772 20 9V14.4H4V9C4 8.44772 4.44772 8 5 8H19Z"
  />
</svg>