<svg xmlns="http://www.w3.org/2000/svg" viewBox="0 0 24 24" fill="currentColor">
  <path d="M2 7.4C2 7.17909 2.17909 7 2.4 7H4V17H2.4C2.17909 17 2 16.8209 2 16.6V7.4Z" />
  <path d="M14 13H15.2C15.6418 13 16 13.3582 16 13.8V17H14.4C14.1791 17 14 16.8209 14 16.6V13Z"
  />
  <path d="M8 13.8C8 13.3582 8.35817 13 8.8 13H10V16.6C10 16.8209 9.82091 17 9.6 17H8V13.8Z"
  />
  <path d="M8 7H9.6C9.82091 7 10 7.17909 10 7.4V11H8.8C8.35817 11 8 10.6418 8 10.2V7Z" />
  <path d="M14 7.4C14 7.17909 14.1791 7 14.4 7H16V10.2C16 10.6418 15.6418 11 15.2 11H14V7.4Z"
  />
  <path d="M20 7H21.6C21.8209 7 22 7.17909 22 7.4V16.6C22 16.8209 21.8209 17 21.6 17H20V7Z"
  />
  <path d="M4 5.4C4 5.17909 4.17909 5 4.4 5H7.6C7.82091 5 8 5.17909 8 5.4V7H4V5.4Z" />
  <path d="M16 5.4C16 5.17909 16.1791 5 16.4 5H19.6C19.8209 5 20 5.17909 20 5.4V7H16V5.4Z"
  />
  <path d="M10 13H14V15H10V13Z" />
  <path d="M10 9H14V11H10V9Z" />
  <path d="M4 17H8V18.6C8 18.8209 7.82091 19 7.6 19H4.4C4.17909 19 4 18.8209 4 18.6V17Z"
  />
  <path d="M16 17H20V18.6C20 18.8209 19.8209 19 19.6 19H16.4C16.1791 19 16 18.8209 16 18.6V17Z"
  />
  <path d="M8 7L8 8C8 7.44772 7.55228 7 7 7H8Z" />
  <path d="M8 7L8 6C8 6.55228 8.44771 7 9 7H8Z" />
  <path d="M4 7L4 8C4 7.44772 4.44771 7 5 7H4Z" />
  <path d="M4 7V6C4 6.55228 3.55228 7 3 7H4Z" />
  <path d="M8 17L8 18C8 17.4477 8.44771 17 9 17H8Z" />
  <path d="M8 17V16C8 16.5523 7.55228 17 7 17H8Z" />
  <path d="M20 17L20 18C20 17.4477 20.4477 17 21 17H20Z" />
  <path d="M20 17L20 16C20 16.5523 19.5523 17 19 17H20Z" />
  <path d="M20 7L20 6C20 6.55228 20.4477 7 21 7H20Z" />
  <path d="M20 7L20 8C20 7.44772 19.5523 7 19 7H20Z" />
  <path d="M4 17L4 18C4 17.4477 3.55228 17 3 17H4Z" />
  <path d="M4 17L4 16C4 16.5523 4.44771 17 5 17H4Z" />
  <path d="M16 17L16 18C16 17.4477 15.5523 17 15 17H16Z" />
  <path d="M16 17V16C16 16.5523 16.4477 17 17 17H16Z" />
  <path d="M16 7L16 6C16 6.55228 15.5523 7 15 7H16Z" />
  <path d="M16 7V8C16 7.44772 16.4477 7 17 7H16Z" />
</svg>